{
.appVersion = "1286";
DisplayStrings = (
"As I went on, still gaining velocity, the palpitation of night and day merged into one continuous greyness; the sky took on a wonderful deepness of blue, a splendid luminous color like that of early twilight; the jerking sun became a projecting streak of fire, a brilliant arch, in space; the moon a fainter fluctuating band; and I could see nothing of the stars, save now and then a brighter circlet flickering in the blue.",
"/zerosuperior ¹²³/four.numr/foursuperior/five.numr/fivesuperior/six.numr/sixsuperior/seven.numr/sevensuperior/eightsuperior/ninesuperior",
"/zero.numr/one.numr/two.numr/three.numr/four.numr/five.numr/six.numr/seven.numr/eight.numr/nine.numr",
"0123456789",
groupon,
"Æ",
"Ð",
"Greenbook Papers",
"Battleship\012Carrier\012Destroyer\012Fighter\012Bomberman\012Convoy\012Cruiser\012Crusade",
"Print is back",
"/Wacute/Wcircumflex/Wdieresis/Wgrave",
"",
"æ",
CRIMSON,
"Pronoun Checkers",
"End of story. Period.",
"1+1=2",
"",
"¢¤$/euro £¥",
"=/upArrow/northEastArrow/rightArrow/southEastArrow/downArrow/southWestArrow/leftArrow/northWestArrow/leftRightArrow/upDownArrow",
"backstory*",
Corey.,
"80",
"¡?¿",
"·/bullet *#///backslash (){}[]-­/endash/emdash _/quotesinglbase/quotedblbase/quotedblleft/quotedblright/quoteleft/quoteright «»/guilsinglleft/guilsinglright/primeReversed \"'",
"Jingle Bells.",
"+=/southWestArrow",
"/emptyset/infinity/integral/product/summation/radical/partialdiff µ%/perthousand",
"&¶§©®/trademark °|¦/dagger/daggerdbl",
"/replacementCharacter",
"/apostrophemod",
z,
"?",
"¿",
"why can't you see",
"Self-contrived",
"Art History 10.\012Introduction to Modernity."
);
copyright = "Copyright 2020 The Urbanist Project Authors (github.com/coreywho)";
customParameters = (
{
name = Axes;
value = (
{
Name = Weight;
Tag = wght;
}
);
},
{
name = fsType;
value = (
);
},
{
name = licenseURL;
value = "http://scripts.sil.org/OFL";
},
{
name = vendorID;
value = KERN;
},
{
name = versionString;

glyphs = (
{
glyphname = A;
lastChange = "2020-01-28 10:33:36 +0000";
layers = (
{
layerId = "10BC12B3-5274-42E3-B5BC-F74F362F0DF4";
paths = (
{
closed = 1;
nodes = (
"80 0 LINE",
"398 0 LINE",
"478 220 LINE",
"1036 220 LINE",
"1116 0 LINE",
"1434 0 LINE",
"926 1400 LINE",
"588 1400 LINE"
);
},
{
closed = 1;
nodes = (
"756 984 LINE",
"926 520 LINE",
"588 520 LINE"
);
}
);
width = 1516;
},
{
layerId = "9AF1F7D9-E035-453E-B2A8-46DE370997D0";
paths = (
{
closed = 1;
nodes = (
"80 0 LINE",
"144 0 LINE",
"268 340 LINE",
"1004 340 LINE",
"1128 0 LINE",
"1192 0 LINE",
"682 1400 LINE",
"590 1400 LINE"
);
},
{
closed = 1;
nodes = (
"636 1350 LINE",
"982 400 LINE",
"290 400 LINE"
);
}
);
width = 1272;
}
);
leftKerningGroup = A;
rightKerningGroup = A;
unicode = 0041;
},
{
glyphname = AE;
lastChange = "2020-01-27 21:41:26 +0000";
layers = (
{
layerId = "10BC12B3-5274-42E3-B5BC-F74F362F0DF4";
paths = (
{
closed = 1;
nodes = (
"398 0 LINE",
"478 220 LINE",
"858 220 LINE",
"858 0 LINE",
"1610 0 LINE",
"1610 300 LINE",
"1158 300 LINE",
"1158 550 LINE",
"1514 550 LINE",
"1514 850 LINE",
"1158 850 LINE",
"1158 1100 LINE",
"1610 1100 LINE",
"1610 1400 LINE",
"588 1400 LINE",
"80 0 LINE"
);
},
{
closed = 1;
nodes = (
"798 1100 LINE",
"858 1100 LINE",
"858 520 LINE",
"588 520 LINE"
);
}
);
width = 1690;
},
{
layerId = "9AF1F7D9-E035-453E-B2A8-46DE370997D0";
paths = (
{
closed = 1;
nodes = (
"144 0 LINE",
"268 340 LINE",
"782 340 LINE",
"782 0 LINE",
"1474 0 LINE",
"1474 60 LINE",
"842 60 LINE",
"842 670 LINE",
"1378 670 LINE",
"1378 730 LINE",
"842 730 LINE",
"842 1340 LINE",
"1474 1340 LINE",
"1474 1400 LINE",
"590 1400 LINE",
"80 0 LINE"
);
},
{
closed = 1;
nodes = (
"634 1340 LINE",
"782 1340 LINE",
"782 400 LINE",
"290 400 LINE"
);
}
);
width = 1554;
}
);
leftKerningGroup = A;
rightKerningGroup = E;
unicode = 00C6;
},
{
glyphname = B;
lastChange = "2020-01-27 03:55:58 +0000";
layers = (
{
layerId = "10BC12B3-5274-42E3-B5BC-F74F362F0DF4";
paths = (
{
closed = 1;
nodes = (
"704 0 LINE SMOOTH",
"936 0 OFFCURVE",
"1126 170 OFFCURVE",
"1126 402 CURVE SMOOTH",
"1126 526 OFFCURVE",
"1108 710 OFFCURVE",
"930 734 CURVE",
"1034 782 OFFCURVE",
"1060 906 OFFCURVE",
"1060 994 CURVE SMOOTH",
"1060 1228 OFFCURVE",
"880 1400 OFFCURVE",
"650 1400 CURVE SMOOTH",
"120 1400 LINE",
"120 0 LINE"
);
},
{
closed = 1;
nodes = (
"420 594 LINE",
"672 594 LINE SMOOTH",
"776 594 OFFCURVE",
"860 516 OFFCURVE",
"860 424 CURVE SMOOTH",
"860 332 OFFCURVE",
"776 254 OFFCURVE",
"672 254 CURVE SMOOTH",
"420 254 LINE"
);
},
{
closed = 1;
nodes = (
"420 1144 LINE",
"614 1144 LINE SMOOTH",
"694 1144 OFFCURVE",
"760 1076 OFFCURVE",
"760 994 CURVE SMOOTH",
"760 912 OFFCURVE",
"694 844 OFFCURVE",
"614 844 CURVE SMOOTH",
"420 844 LINE"
);
}
);
width = 1186;
},
{
layerId = "9AF1F7D9-E035-453E-B2A8-46DE370997D0";
paths = (
{
closed = 1;
nodes = (
"630 0 LINE SMOOTH",
"828 0 OFFCURVE",
"990 162 OFFCURVE",
"990 362 CURVE SMOOTH",
"990 526 OFFCURVE",
"882 664 OFFCURVE",
"732 708 CURVE",
"838 770 OFFCURVE",
"912 892 OFFCURVE",
"912 1030 CURVE SMOOTH",
"912 1232 OFFCURVE",
"756 1398 OFFCURVE",
"564 1398 CURVE SMOOTH",
"120 1398 LINE",
"120 0 LINE"
);
},
{
closed = 1;
nodes = (
"180 662 LINE",
"630 662 LINE SMOOTH",
"796 662 OFFCURVE",
"930 528 OFFCURVE",
"930 362 CURVE SMOOTH",
"930 196 OFFCURVE",
"796 60 OFFCURVE",
"630 60 CURVE SMOOTH",
"180 60 LINE"
);
},
{
closed = 1;
nodes = (
"180 1338 LINE",
"564 1338 LINE SMOOTH",
"722 1338 OFFCURVE",
"852 1200 OFFCURVE",
"852 1030 CURVE SMOOTH",
"852 860 OFFCURVE",
"722 722 OFFCURVE",
"564 722 CURVE SMOOTH",
"180 722 LINE"
);
}
);
width = 1050;
}
);
leftKerningGroup = H;
rightKerningGroup = B;
unicode = 0042;
},
{
glyphname = C;
lastChange = "2020-01-27 03:55:58 +0000";
layers = (
{
layerId = "10BC12B3-5274-42E3-B5BC-F74F362F0DF4";
paths = (
{
closed = 1;
nodes = (
"974 -26 OFFCURVE",
"1172 88 OFFCURVE",
"1298 262 CURVE",
"1030 408 LINE",
"960 326 OFFCURVE",
"860 274 OFFCURVE",
"748 274 CURVE",
"534 274 OFFCURVE",
"360 466 OFFCURVE",
"360 700 CURVE",
"360 936 OFFCURVE",
"534 1126 OFFCURVE",
"748 1126 CURVE",
"860 1126 OFFCURVE",
"960 1074 OFFCURVE",
"1030 994 CURVE",
"1298 1138 LINE",
"1172 1312 OFFCURVE",
"974 1426 OFFCURVE",
"748 1426 CURVE",
"368 1426 OFFCURVE",
"60 1102 OFFCURVE",
"60 700 CURVE",
"60 300 OFFCURVE",
"368 -26 OFFCURVE",
"748 -26 CURVE"
);
}
);
width = 1358;
},
{
layerId = "9AF1F7D9-E035-453E-B2A8-46DE370997D0";
paths = (
{
closed = 1;
nodes = (
"974 -26 OFFCURVE",
"1172 86 OFFCURVE",
"1298 262 CURVE",
"1246 290 LINE",
"1136 138 OFFCURVE",
"952 34 OFFCURVE",
"748 34 CURVE SMOOTH",
"402 34 OFFCURVE",
"120 332 OFFCURVE",
"120 700 CURVE SMOOTH",
"120 1058 OFFCURVE",
"396 1366 OFFCURVE",
"748 1366 CURVE SMOOTH",
"942 1366 OFFCURVE",
"1132 1266 OFFCURVE",
"1246 1108 CURVE",
"1298 1136 LINE",
"1172 1312 OFFCURVE",
"974 1426 OFFCURVE",
"748 1426 CURVE SMOOTH",
"368 1426 OFFCURVE",
"60 1100 OFFCURVE",
"60 700 CURVE SMOOTH",
"60 298 OFFCURVE",
"368 -26 OFFCURVE",
"748 -26 CURVE SMOOTH"
);
}
);
width = 1358;
}
);
leftKerningGroup = O;
rightKerningGroup = C;
unicode = 0043;
},
{
glyphname = D;
lastChange = "2020-01-27 03:55:58 +0000";
layers = (
{
layerId = "10BC12B3-5274-42E3-B5BC-F74F362F0DF4";
paths = (
{
closed = 1;
nodes = (
"544 0 LINE SMOOTH",
"930 0 OFFCURVE",
"1244 314 OFFCURVE",
"1244 700 CURVE SMOOTH",
"1244 1086 OFFCURVE",
"930 1400 OFFCURVE",
"544 1400 CURVE SMOOTH",
"80 1400 LINE",
"80 0 LINE"
);
},
{
closed = 1;
nodes = (
"380 1100 LINE",
"544 1100 LINE SMOOTH",
"762 1100 OFFCURVE",
"944 920 OFFCURVE",
"944 700 CURVE SMOOTH",
"944 478 OFFCURVE",
"760 300 OFFCURVE",
"544 300 CURVE SMOOTH",
"380 300 LINE"
);
}
);
width = 1264;
},
{
layerId = "9AF1F7D9-E035-453E-B2A8-46DE370997D0";
paths = (
{
closed = 1;
nodes = (
"542 0 LINE SMOOTH",
"930 0 OFFCURVE",
"1242 314 OFFCURVE",
"1242 700 CURVE SMOOTH",
"1242 1086 OFFCURVE",
"930 1400 OFFCURVE",
"542 1400 CURVE SMOOTH",
"80 1400 LINE",
"80 0 LINE"
);
},
{
closed = 1;
nodes = (
"140 1340 LINE",
"542 1340 LINE SMOOTH",
"896 1340 OFFCURVE",
"1182 1054 OFFCURVE",
"1182 700 CURVE SMOOTH",
"1182 346 OFFCURVE",
"898 60 OFFCURVE",
"542 60 CURVE SMOOTH",
"140 60 LINE"
);
}
);
width = 1262;
}
);
leftKerningGroup = H;
rightKerningGroup = O;
unicode = 0044;
},
{
glyphname = Eth;
lastChange = "2020-01-27 03:55:58 +0000";
layers = (
{
layerId = "10BC12B3-5274-42E3-B5BC-F74F362F0DF4";
paths = (
{
closed = 1;
nodes = (
"682 0 LINE SMOOTH",
"1068 0 OFFCURVE",
"1382 314 OFFCURVE",
"1382 700 CURVE SMOOTH",
"1382 1086 OFFCURVE",
"1068 1400 OFFCURVE",
"682 1400 CURVE SMOOTH",
"220 1400 LINE",
"220 850 LINE",
"80 850 LINE",
"80 550 LINE",
"220 550 LINE",
"220 0 LINE"
);
},
{
closed = 1;
nodes = (
"520 550 LINE",
"758 550 LINE",
"758 850 LINE",
"520 850 LINE",
"520 1100 LINE",
"682 1100 LINE SMOOTH",
"902 1100 OFFCURVE",
"1082 920 OFFCURVE",
"1082 700 CURVE SMOOTH",
"1082 480 OFFCURVE",
"902 300 OFFCURVE",
"682 300 CURVE SMOOTH",
"520 300 LINE"
);
}
);
width = 1402;
},
{
layerId = "9AF1F7D9-E035-453E-B2A8-46DE370997D0";
paths = (
{
closed = 1;
nodes = (
"692 0 LINE SMOOTH",
"1078 0 OFFCURVE",
"1392 314 OFFCURVE",
"1392 700 CURVE SMOOTH",
"1392 1086 OFFCURVE",
"1078 1400 OFFCURVE",
"692 1400 CURVE SMOOTH",
"228 1400 LINE",
"228 730 LINE",
"100 730 LINE",
"100 670 LINE",
"228 670 LINE",
"228 0 LINE"
);
},
{
closed = 1;
nodes = (
"288 670 LINE",
"686 670 LINE",
"686 730 LINE",
"288 730 LINE",
"288 1340 LINE",
"692 1340 LINE SMOOTH",
"1036 1340 OFFCURVE",
"1332 1060 OFFCURVE",
"1332 700 CURVE SMOOTH",
"1332 354 OFFCURVE",
"1052 60 OFFCURVE",
"692 60 CURVE SMOOTH",
"288 60 LINE"
);
}
);
width = 1412;
}
);
leftKerningGroup = H;
rightKerningGroup = O;
unicode = 00D0;
},
{
glyphname = E;
lastChange = "2020-01-28 06:45:27 +0000";
layers = (
{
layerId = "10BC12B3-5274-42E3-B5BC-F74F362F0DF4";
paths = (
{
closed = 1;
nodes = (
"1032 0 LINE",
"1032 300 LINE",
"440 300 LINE",
"440 550 LINE",
"936 550 LINE",
"936 850 LINE",
"440 850 LINE",
"440 1100 LINE",
"1032 1100 LINE",
"1032 1400 LINE",
"140 1400 LINE",
"140 0 LINE"
);
}
);
width = 1132;
},
{
layerId = "9AF1F7D9-E035-453E-B2A8-46DE370997D0";
paths = (
{
closed = 1;
nodes = (
"932 0 LINE",
"932 60 LINE",
"160 60 LINE",
"160 670 LINE",
"836 670 LINE",
"836 730 LINE",
"160 730 LINE",
"160 1340 LINE",
"932 1340 LINE",
"932 1400 LINE",
"100 1400 LINE",
"100 0 LINE"
);
}
);
width = 1032;
}
);
leftKerningGroup = H;
rightKerningGroup = E;
unicode = 0045;
},
{
glyphname = F;
lastChange = "2020-01-27 03:55:58 +0000";
layers = (
{
layerId = "10BC12B3-5274-42E3-B5BC-F74F362F0DF4";
paths = (
{
closed = 1;
nodes = (
"380 0 LINE",
"380 550 LINE",
"816 550 LINE",
"816 850 LINE",
"380 850 LINE",
"380 1100 LINE",
"912 1100 LINE",
"912 1400 LINE",
"80 1400 LINE",
"80 0 LINE"
);
}
);
width = 972;
},
{
layerId = "9AF1F7D9-E035-453E-B2A8-46DE370997D0";
paths = (
{
closed = 1;
nodes = (
"132 0 LINE",
"132 670 LINE",
"788 670 LINE",
"788 730 LINE",
"132 730 LINE",
"132 1340 LINE",
"884 1340 LINE",
"884 1400 LINE",
"72 1400 LINE",
"72 0 LINE"
);
}
);
width = 952;
}
);
leftKerningGroup = H;
rightKerningGroup = F;
unicode = 0046;
},
{
glyphname = G;
lastChange = "2020-01-27 03:55:58 +0000";
layers = (
{
layerId = "10BC12B3-5274-42E3-B5BC-F74F362F0DF4";
paths = (
{
closed = 1;
nodes = (
"1144 -26 OFFCURVE",
"1456 322 OFFCURVE",
"1436 740 CURVE",
"894 740 LINE",
"894 480 LINE",
"1082 480 LINE",
"1000 338 OFFCURVE",
"874 274 OFFCURVE",
"752 274 CURVE SMOOTH",
"536 274 OFFCURVE",
"360 460 OFFCURVE",
"360 696 CURVE SMOOTH",
"360 952 OFFCURVE",
"550 1126 OFFCURVE",
"750 1126 CURVE SMOOTH",
"848 1126 OFFCURVE",
"948 1084 OFFCURVE",
"1030 992 CURVE",
"1298 1136 LINE",
"1146 1338 OFFCURVE",
"948 1424 OFFCURVE",
"754 1424 CURVE SMOOTH",
"398 1424 OFFCURVE",
"60 1130 OFFCURVE",
"60 702 CURVE SMOOTH",
"60 304 OFFCURVE",
"356 -26 OFFCURVE",
"748 -26 CURVE SMOOTH"
);
}
);
width = 1496;
},
{
layerId = "9AF1F7D9-E035-453E-B2A8-46DE370997D0";
paths = (
{
closed = 1;
nodes = (
"1110 -26 OFFCURVE",
"1412 272 OFFCURVE",
"1436 642 CURVE",
"896 642 LINE",
"896 582 LINE",
"1368 582 LINE",
"1322 282 OFFCURVE",
"1064 34 OFFCURVE",
"750 34 CURVE SMOOTH",
"402 34 OFFCURVE",
"120 336 OFFCURVE",
"120 700 CURVE SMOOTH",
"120 1058 OFFCURVE",
"398 1366 OFFCURVE",
"750 1366 CURVE SMOOTH",
"940 1366 OFFCURVE",
"1126 1272 OFFCURVE",
"1246 1108 CURVE",
"1300 1138 LINE",
"1174 1312 OFFCURVE",
"974 1426 OFFCURVE",
"750 1426 CURVE SMOOTH",
"368 1426 OFFCURVE",
"60 1100 OFFCURVE",
"60 700 CURVE SMOOTH",
"60 300 OFFCURVE",
"368 -26 OFFCURVE",
"750 -26 CURVE SMOOTH"
);
}
);
width = 1496;
}
);
leftKerningGroup = O;
rightKerningGroup = G;
unicode = 0047;
},
{
glyphname = H;
lastChange = "2020-01-28 10:33:52 +0000";
layers = (
{
layerId = "10BC12B3-5274-42E3-B5BC-F74F362F0DF4";
paths = (
{
closed = 1;
nodes = (
"876 866 LINE",
"380 866 LINE",
"380 1400 LINE",
"80 1400 LINE",
"80 0 LINE",
"380 0 LINE",
"380 566 LINE",
"876 566 LINE",
"876 0 LINE",
"1176 0 LINE",
"1176 1400 LINE",
"876 1400 LINE"
);
}
);
width = 1256;
},
{
layerId = "9AF1F7D9-E035-453E-B2A8-46DE370997D0";
paths = (
{
closed = 1;
nodes = (
"994 746 LINE",
"140 746 LINE",
"140 1400 LINE",
"80 1400 LINE",
"80 0 LINE",
"140 0 LINE",
"140 686 LINE",
"994 686 LINE",
"994 0 LINE",
"1054 0 LINE",
"1054 1400 LINE",
"994 1400 LINE"
);
}
);
width = 1134;
}
);
leftKerningGroup = H;
rightKerningGroup = H;
unicode = 0048;
},
{
glyphname = I;
lastChange = "2020-01-27 03:55:58 +0000";
layers = (
{
layerId = "10BC12B3-5274-42E3-B5BC-F74F362F0DF4";
paths = (
{
closed = 1;
nodes = (
"380 0 LINE",
"380 1400 LINE",
"80 1400 LINE",
"80 0 LINE"
);
}
);
width = 460;
},
{
layerId = "9AF1F7D9-E035-453E-B2A8-46DE370997D0";
paths = (
{
closed = 1;
nodes = (
"180 0 LINE",
"180 1400 LINE",
"120 1400 LINE",
"120 0 LINE"
);
}
);
width = 300;
}
);
leftKerningGroup = H;
rightKerningGroup = H;
unicode = 0049;
},
{
glyphname = J;
lastChange = "2020-01-27 03:55:58 +0000";
layers = (
{
layerId = "10BC12B3-5274-42E3-B5BC-F74F362F0DF4";
paths = (
{
closed = 1;
nodes = (
"602 -26 OFFCURVE",
"814 186 OFFCURVE",
"814 446 CURVE SMOOTH",
"814 1400 LINE",
"514 1400 LINE",
"514 446 LINE SMOOTH",
"514 352 OFFCURVE",
"436 274 OFFCURVE",
"342 274 CURVE SMOOTH",
"290 274 OFFCURVE",
"254 296 OFFCURVE",
"232 314 CURVE",
"40 84 LINE",
"124 12 OFFCURVE",
"232 -26 OFFCURVE",
"342 -26 CURVE SMOOTH"
);
}
);
width = 894;
},
{
layerId = "9AF1F7D9-E035-453E-B2A8-46DE370997D0";
paths = (
{
closed = 1;
nodes = (
"460 -26 OFFCURVE",
"618 152 OFFCURVE",
"618 346 CURVE SMOOTH",
"618 1400 LINE",
"558 1400 LINE",
"558 346 LINE SMOOTH",
"558 184 OFFCURVE",
"426 34 OFFCURVE",
"264 34 CURVE SMOOTH",
"196 34 OFFCURVE",
"130 58 OFFCURVE",
"78 102 CURVE",
"40 56 LINE",
"102 2 OFFCURVE",
"182 -26 OFFCURVE",
"264 -26 CURVE SMOOTH"
);
}
);
width = 698;
}
);
leftKerningGroup = J;
rightKerningGroup = J;
unicode = 004A;
},
{
glyphname = K;
lastChange = "2020-01-27 03:55:58 +0000";
layers = (
{
layerId = "10BC12B3-5274-42E3-B5BC-F74F362F0DF4";
paths = (
{
closed = 1;
nodes = (
"616 740 LINE",
"1170 1400 LINE",
"778 1400 LINE",
"380 924 LINE",
"380 1400 LINE",
"80 1400 LINE",
"80 0 LINE",
"380 0 LINE",
"380 458 LINE",
"420 506 LINE",
"778 0 LINE",
"1170 0 LINE"
);
}
);
width = 1190;
},
{
layerId = "9AF1F7D9-E035-453E-B2A8-46DE370997D0";
paths = (
{
closed = 1;
nodes = (
"338 738 LINE",
"894 1400 LINE",
"816 1400 LINE",
"140 594 LINE",
"140 1400 LINE",
"80 1400 LINE",
"80 0 LINE",
"140 0 LINE",
"140 500 LINE",
"298 690 LINE",
"808 0 LINE",
"884 0 LINE"
);
}
);
width = 914;
}
);
leftKerningGroup = H;
rightKerningGroup = K;
unicode = 004B;
},
{
glyphname = L;
lastChange = "2020-01-27 03:55:58 +0000";
layers = (
{
layerId = "10BC12B3-5274-42E3-B5BC-F74F362F0DF4";
paths = (
{
closed = 1;
nodes = (
"80 0 LINE",
"80 1400 LINE",
"380 1400 LINE",
"380 300 LINE",
"1000 300 LINE",
"1000 0 LINE"
);
}
);
width = 1020;
},
{
layerId = "9AF1F7D9-E035-453E-B2A8-46DE370997D0";
paths = (
{
closed = 1;
nodes = (
"80 0 LINE",
"80 1400 LINE",
"140 1400 LINE",
"140 60 LINE",
"900 60 LINE",
"900 0 LINE"
);
}
);
width = 920;
}
);
leftKerningGroup = H;
rightKerningGroup = L;
unicode = 004C;
},
{
glyphname = M;
lastChange = "2020-01-27 03:55:58 +0000";
layers = (
{
layerId = "10BC12B3-5274-42E3-B5BC-F74F362F0DF4";
paths = (
{
closed = 1;
nodes = (
"386 0 LINE",
"532 756 LINE",
"818 0 LINE",
"1026 0 LINE",
"1312 756 LINE",
"1458 0 LINE",
"1764 0 LINE",
"1492 1400 LINE",
"1236 1400 LINE",
"922 574 LINE",
"608 1400 LINE",
"352 1400 LINE",
"80 0 LINE"
);
}
);
width = 1844;
},
{
layerId = "9AF1F7D9-E035-453E-B2A8-46DE370997D0";
paths = (
{
closed = 1;
nodes = (
"140 0 LINE",
"378 1228 LINE",
"790 138 LINE",
"820 138 LINE",
"1232 1228 LINE",
"1470 0 LINE",
"1532 0 LINE",
"1260 1400 LINE",
"1234 1400 LINE",
"806 268 LINE",
"376 1400 LINE",
"350 1400 LINE",
"80 0 LINE"
);
}
);
width = 1612;
}
);
leftKerningGroup = M;
rightKerningGroup = M;
unicode = 004D;
},
{
glyphname = N;
lastChange = "2020-01-27 03:55:58 +0000";
layers = (
{
layerId = "10BC12B3-5274-42E3-B5BC-F74F362F0DF4";
paths = (
{
closed = 1;
nodes = (
"420 0 LINE",
"420 858 LINE",
"932 0 LINE",
"1256 0 LINE",
"1256 1400 LINE",
"956 1400 LINE",
"956 542 LINE",
"444 1400 LINE",
"120 1400 LINE",
"120 0 LINE"
);
}
);
width = 1376;
},
{
layerId = "9AF1F7D9-E035-453E-B2A8-46DE370997D0";
paths = (
{
closed = 1;
nodes = (
"180 0 LINE",
"180 1292 LINE",
"1034 0 LINE",
"1098 0 LINE",
"1098 1400 LINE",
"1038 1400 LINE",
"1038 108 LINE",
"186 1400 LINE",
"120 1400 LINE",
"120 0 LINE"
);
}
);
width = 1218;
}
);
leftKerningGroup = H;
rightKerningGroup = H;
unicode = 004E;
},
{
glyphname = O;
lastChange = "2020-01-27 03:55:58 +0000";
layers = (
{
layerId = "10BC12B3-5274-42E3-B5BC-F74F362F0DF4";
paths = (
{
closed = 1;
nodes = (
"1150 -26 OFFCURVE",
"1460 300 OFFCURVE",
"1460 700 CURVE SMOOTH",
"1460 1100 OFFCURVE",
"1150 1426 OFFCURVE",
"770 1426 CURVE SMOOTH",
"390 1426 OFFCURVE",
"80 1100 OFFCURVE",
"80 700 CURVE SMOOTH",
"80 300 OFFCURVE",
"390 -26 OFFCURVE",
"770 -26 CURVE SMOOTH"
);
},
{
closed = 1;
nodes = (
"556 274 OFFCURVE",
"380 466 OFFCURVE",
"380 700 CURVE SMOOTH",
"380 934 OFFCURVE",
"556 1126 OFFCURVE",
"770 1126 CURVE SMOOTH",
"984 1126 OFFCURVE",
"1160 934 OFFCURVE",
"1160 700 CURVE SMOOTH",
"1160 466 OFFCURVE",
"984 274 OFFCURVE",
"770 274 CURVE SMOOTH"
);
}
);
width = 1540;
},
{
layerId = "9AF1F7D9-E035-453E-B2A8-46DE370997D0";
paths = (
{
closed = 1;
nodes = (
"1150 -26 OFFCURVE",
"1460 300 OFFCURVE",
"1460 700 CURVE SMOOTH",
"1460 1100 OFFCURVE",
"1150 1426 OFFCURVE",
"770 1426 CURVE SMOOTH",
"390 1426 OFFCURVE",
"80 1100 OFFCURVE",
"80 700 CURVE SMOOTH",
"80 300 OFFCURVE",
"390 -26 OFFCURVE",
"770 -26 CURVE SMOOTH"
);
},
{
closed = 1;
nodes = (
"422 34 OFFCURVE",
"140 334 OFFCURVE",
"140 700 CURVE SMOOTH",
"140 1060 OFFCURVE",
"418 1366 OFFCURVE",
"770 1366 CURVE SMOOTH",
"1118 1366 OFFCURVE",
"1400 1064 OFFCURVE",
"1400 700 CURVE SMOOTH",
"1400 340 OFFCURVE",
"1122 34 OFFCURVE",
"770 34 CURVE SMOOTH"
);
}
);
width = 1540;
}
);
leftKerningGroup = O;
rightKerningGroup = O;
unicode = 004F;
},
{
glyphname = Oslash;
lastChange = "2020-01-27 03:55:58 +0000";
layers = (
{
layerId = "10BC12B3-5274-42E3-B5BC-F74F362F0DF4";
paths = (
{
closed = 1;
nodes = (
"548 14 LINE",
"618 -12 OFFCURVE",
"692 -26 OFFCURVE",
"770 -26 CURVE SMOOTH",
"1150 -26 OFFCURVE",
"1460 300 OFFCURVE",
"1460 700 CURVE SMOOTH",
"1460 906 OFFCURVE",
"1378 1092 OFFCURVE",
"1246 1226 CURVE",
"1332 1372 LINE",
"1072 1522 LINE",
"994 1388 LINE",
"924 1412 OFFCURVE",
"850 1426 OFFCURVE",
"770 1426 CURVE SMOOTH",
"390 1426 OFFCURVE",
"80 1100 OFFCURVE",
"80 700 CURVE SMOOTH",
"80 494 OFFCURVE",
"164 308 OFFCURVE",
"294 176 CURVE",
"210 28 LINE",
"470 -122 LINE"
);
},
{
closed = 1;
nodes = (
"408 522 OFFCURVE",
"380 608 OFFCURVE",
"380 700 CURVE SMOOTH",
"380 934 OFFCURVE",
"556 1126 OFFCURVE",
"770 1126 CURVE SMOOTH",
"794 1126 OFFCURVE",
"818 1124 OFFCURVE",
"840 1120 CURVE",
"454 452 LINE"
);
},
{
closed = 1;
nodes = (
"748 274 OFFCURVE",
"724 276 OFFCURVE",
"702 282 CURVE",
"1088 948 LINE",
"1134 878 OFFCURVE",
"1160 792 OFFCURVE",
"1160 700 CURVE SMOOTH",
"1160 466 OFFCURVE",
"984 274 OFFCURVE",
"770 274 CURVE SMOOTH"
);
}
);
width = 1540;
},
{
layerId = "9AF1F7D9-E035-453E-B2A8-46DE370997D0";
paths = (
{
closed = 1;
nodes = (
"438 64 LINE",
"538 8 OFFCURVE",
"650 -26 OFFCURVE",
"770 -26 CURVE SMOOTH",
"1150 -26 OFFCURVE",
"1460 300 OFFCURVE",
"1460 700 CURVE SMOOTH",
"1460 952 OFFCURVE",
"1338 1174 OFFCURVE",
"1154 1304 CURVE",
"1228 1432 LINE",
"1176 1462 LINE",
"1104 1336 LINE",
"1004 1394 OFFCURVE",
"892 1426 OFFCURVE",
"770 1426 CURVE SMOOTH",
"390 1426 OFFCURVE",
"80 1100 OFFCURVE",
"80 700 CURVE SMOOTH",
"80 450 OFFCURVE",
"204 228 OFFCURVE",
"388 96 CURVE",
"314 -32 LINE",
"366 -62 LINE"
);
},
{
closed = 1;
nodes = (
"250 270 OFFCURVE",
"140 472 OFFCURVE",
"140 700 CURVE SMOOTH",
"140 1060 OFFCURVE",
"418 1366 OFFCURVE",
"770 1366 CURVE SMOOTH",
"880 1366 OFFCURVE",
"984 1336 OFFCURVE",
"1074 1284 CURVE",
"418 150 LINE"
);
},
{
closed = 1;
nodes = (
"662 34 OFFCURVE",
"558 64 OFFCURVE",
"468 116 CURVE",
"1124 1252 LINE",
"1290 1130 OFFCURVE",
"1400 928 OFFCURVE",
"1400 700 CURVE SMOOTH",
"1400 340 OFFCURVE",
"1122 34 OFFCURVE",
"770 34 CURVE SMOOTH"
);
}
);
width = 1540;
}
);
leftKerningGroup = O;
rightKerningGroup = O;
unicode = 00D8;
},
{
glyphname = OE;
lastChange = "2020-01-27 03:55:58 +0000";
layers = (
{
layerId = "10BC12B3-5274-42E3-B5BC-F74F362F0DF4";
paths = (
{
closed = 1;
nodes = (
"896 -26 OFFCURVE",
"1032 22 OFFCURVE",
"1144 104 CURVE",
"1144 0 LINE",
"1976 0 LINE",
"1976 300 LINE",
"1444 300 LINE",
"1444 550 LINE",
"1880 550 LINE",
"1880 850 LINE",
"1444 850 LINE",
"1444 1100 LINE",
"1976 1100 LINE",
"1976 1400 LINE",
"1144 1400 LINE",
"1144 1296 LINE",
"1032 1378 OFFCURVE",
"896 1426 OFFCURVE",
"750 1426 CURVE SMOOTH",
"370 1426 OFFCURVE",
"60 1100 OFFCURVE",
"60 700 CURVE SMOOTH",
"60 300 OFFCURVE",
"370 -26 OFFCURVE",
"750 -26 CURVE SMOOTH"
);
},
{
closed = 1;
nodes = (
"536 274 OFFCURVE",
"360 466 OFFCURVE",
"360 700 CURVE SMOOTH",
"360 934 OFFCURVE",
"536 1126 OFFCURVE",
"750 1126 CURVE SMOOTH",
"964 1126 OFFCURVE",
"1140 934 OFFCURVE",
"1140 700 CURVE SMOOTH",
"1140 466 OFFCURVE",
"964 274 OFFCURVE",
"750 274 CURVE SMOOTH"
);
}
);
width = 2056;
},
{
layerId = "9AF1F7D9-E035-453E-B2A8-46DE370997D0";
paths = (
{
closed = 1;
nodes = (
"1030 -26 OFFCURVE",
"1272 152 OFFCURVE",
"1380 404 CURVE",
"1380 0 LINE",
"2086 0 LINE",
"2086 60 LINE",
"1440 60 LINE",
"1440 670 LINE",
"1990 670 LINE",
"1990 730 LINE",
"1440 730 LINE",
"1440 1340 LINE",
"2086 1340 LINE",
"2086 1400 LINE",
"1380 1400 LINE",
"1380 996 LINE",
"1272 1248 OFFCURVE",
"1030 1426 OFFCURVE",
"750 1426 CURVE SMOOTH",
"370 1426 OFFCURVE",
"60 1100 OFFCURVE",
"60 700 CURVE SMOOTH",
"60 300 OFFCURVE",
"370 -26 OFFCURVE",
"750 -26 CURVE SMOOTH"
);
},
{
closed = 1;
nodes = (
"402 34 OFFCURVE",
"120 334 OFFCURVE",
"120 700 CURVE SMOOTH",
"120 1060 OFFCURVE",
"398 1366 OFFCURVE",
"750 1366 CURVE SMOOTH",
"1098 1366 OFFCURVE",
"1380 1064 OFFCURVE",
"1380 700 CURVE SMOOTH",
"1380 340 OFFCURVE",
"1102 34 OFFCURVE",
"750 34 CURVE SMOOTH"
);
}
);
width = 2166;
}
);
leftKerningGroup = O;
rightKerningGroup = E;
unicode = 0152;
},
{
glyphname = P;
lastChange = "2020-01-27 22:49:38 +0000";
layers = (
{
layerId = "10BC12B3-5274-42E3-B5BC-F74F362F0DF4";
paths = (
{
closed = 1;
nodes = (
"420 0 LINE",
"420 544 LINE",
"648 544 LINE SMOOTH",
"870 544 OFFCURVE",
"1060 736 OFFCURVE",
"1060 972 CURVE SMOOTH",
"1060 1204 OFFCURVE",
"878 1400 OFFCURVE",
"648 1400 CURVE SMOOTH",
"120 1400 LINE",
"120 0 LINE"
);
},
{
closed = 1;
nodes = (
"420 1144 LINE",
"614 1144 LINE SMOOTH",
"694 1144 OFFCURVE",
"760 1076 OFFCURVE",
"760 994 CURVE SMOOTH",
"760 912 OFFCURVE",
"694 844 OFFCURVE",
"614 844 CURVE SMOOTH",
"420 844 LINE"
);
}
);
width = 1090;
},
{
layerId = "9AF1F7D9-E035-453E-B2A8-46DE370997D0";
paths = (
{
closed = 1;
nodes = (
"180 0 LINE",
"180 600 LINE",
"528 600 LINE SMOOTH",
"742 600 OFFCURVE",
"920 770 OFFCURVE",
"920 1000 CURVE SMOOTH",
"920 1228 OFFCURVE",
"748 1400 OFFCURVE",
"528 1400 CURVE SMOOTH",
"120 1400 LINE",
"120 0 LINE"
);
},
{
closed = 1;
nodes = (
"180 1340 LINE",
"528 1340 LINE SMOOTH",
"710 1340 OFFCURVE",
"860 1196 OFFCURVE",
"860 1000 CURVE SMOOTH",
"860 804 OFFCURVE",
"710 660 OFFCURVE",
"528 660 CURVE SMOOTH",
"180 660 LINE"
);
}
);
width = 950;
}
);
leftKerningGroup = H;
rightKerningGroup = P;
unicode = 0050;
},
{
glyphname = Thorn;
lastChange = "2020-01-27 03:55:58 +0000";
layers = (
{
layerId = "10BC12B3-5274-42E3-B5BC-F74F362F0DF4";
paths = (
{
closed = 1;
nodes = (
"420 0 LINE",
"420 272 LINE",
"648 272 LINE SMOOTH",
"870 272 OFFCURVE",
"1060 464 OFFCURVE",
"1060 700 CURVE SMOOTH",
"1060 932 OFFCURVE",
"878 1128 OFFCURVE",
"648 1128 CURVE SMOOTH",
"420 1128 LINE",
"420 1400 LINE",
"120 1400 LINE",
"120 0 LINE"
);
},
{
closed = 1;
nodes = (
"420 872 LINE",
"614 872 LINE SMOOTH",
"694 872 OFFCURVE",
"760 804 OFFCURVE",
"760 722 CURVE SMOOTH",
"760 640 OFFCURVE",
"694 572 OFFCURVE",
"614 572 CURVE SMOOTH",
"420 572 LINE"
);
}
);
width = 1100;
},
{
layerId = "9AF1F7D9-E035-453E-B2A8-46DE370997D0";
paths = (
{
closed = 1;
nodes = (
"180 0 LINE",
"180 300 LINE",
"528 300 LINE SMOOTH",
"742 300 OFFCURVE",
"920 470 OFFCURVE",
"920 700 CURVE SMOOTH",
"920 928 OFFCURVE",
"748 1100 OFFCURVE",
"528 1100 CURVE SMOOTH",
"180 1100 LINE",
"180 1400 LINE",
"120 1400 LINE",
"120 0 LINE"
);
},
{
closed = 1;
nodes = (
"180 1040 LINE",
"528 1040 LINE SMOOTH",
"710 1040 OFFCURVE",
"860 896 OFFCURVE",
"860 700 CURVE SMOOTH",
"860 504 OFFCURVE",
"710 360 OFFCURVE",
"528 360 CURVE SMOOTH",
"180 360 LINE"
);
}
);
width = 960;
}
);
leftKerningGroup = H;
rightKerningGroup = Thorn;
unicode = 00DE;
},
{
glyphname = Q;
lastChange = "2020-01-27 03:55:58 +0000";
layers = (
{
layerId = "10BC12B3-5274-42E3-B5BC-F74F362F0DF4";
paths = (
{
closed = 1;
nodes = (
"1504 160 LINE",
"1350 314 LINE",
"1418 428 OFFCURVE",
"1460 562 OFFCURVE",
"1460 708 CURVE SMOOTH",
"1460 1108 OFFCURVE",
"1150 1434 OFFCURVE",
"770 1434 CURVE SMOOTH",
"390 1434 OFFCURVE",
"80 1108 OFFCURVE",
"80 708 CURVE SMOOTH",
"80 306 OFFCURVE",
"390 -18 OFFCURVE",
"770 -18 CURVE SMOOTH",
"908 -18 OFFCURVE",
"1036 24 OFFCURVE",
"1142 96 CURVE",
"1292 -52 LINE"
);
},
{
closed = 1;
nodes = (
"556 282 OFFCURVE",
"380 472 OFFCURVE",
"380 708 CURVE SMOOTH",
"380 942 OFFCURVE",
"556 1134 OFFCURVE",
"770 1134 CURVE SMOOTH",
"984 1134 OFFCURVE",
"1160 942 OFFCURVE",
"1160 708 CURVE SMOOTH",
"1160 648 OFFCURVE",
"1148 590 OFFCURVE",
"1126 538 CURVE",
"1052 612 LINE",
"840 400 LINE",
"924 316 LINE",
"876 294 OFFCURVE",
"824 282 OFFCURVE",
"770 282 CURVE SMOOTH"
);
}
);
width = 1584;
},
{
layerId = "9AF1F7D9-E035-453E-B2A8-46DE370997D0";
paths = (
{
closed = 1;
nodes = (
"1434 32 LINE",
"1256 208 LINE",
"1370 338 OFFCURVE",
"1438 510 OFFCURVE",
"1438 700 CURVE SMOOTH",
"1438 1100 OFFCURVE",
"1130 1426 OFFCURVE",
"750 1426 CURVE SMOOTH",
"368 1426 OFFCURVE",
"60 1100 OFFCURVE",
"60 700 CURVE SMOOTH",
"60 300 OFFCURVE",
"368 -26 OFFCURVE",
"750 -26 CURVE SMOOTH",
"928 -26 OFFCURVE",
"1092 46 OFFCURVE",
"1216 166 CURVE",
"1392 -10 LINE"
);
},
{
closed = 1;
nodes = (
"404 34 OFFCURVE",
"120 334 OFFCURVE",
"120 700 CURVE SMOOTH",
"120 1058 OFFCURVE",
"398 1366 OFFCURVE",
"750 1366 CURVE SMOOTH",
"1094 1366 OFFCURVE",
"1378 1066 OFFCURVE",
"1378 700 CURVE SMOOTH",
"1378 536 OFFCURVE",
"1320 376 OFFCURVE",
"1214 252 CURVE",
"946 520 LINE",
"904 476 LINE",
"1172 208 LINE",
"1062 98 OFFCURVE",
"904 34 OFFCURVE",
"750 34 CURVE SMOOTH"
);
}
);
width = 1538;
}
);
leftKerningGroup = O;
rightKerningGroup = O;
unicode = 0051;
},
{
glyphname = R;
lastChange = "2020-01-27 03:55:58 +0000";
layers = (
{
layerId = "10BC12B3-5274-42E3-B5BC-F74F362F0DF4";
paths = (
{
closed = 1;
nodes = (
"420 0 LINE",
"420 544 LINE",
"524 544 LINE",
"840 0 LINE",
"1186 0 LINE",
"854 572 LINE",
"1004 644 OFFCURVE",
"1100 792 OFFCURVE",
"1100 972 CURVE SMOOTH",
"1100 1206 OFFCURVE",
"920 1400 OFFCURVE",
"690 1400 CURVE SMOOTH",
"120 1400 LINE",
"120 0 LINE"
);
},
{
closed = 1;
nodes = (
"420 1144 LINE",
"654 1144 LINE SMOOTH",
"734 1144 OFFCURVE",
"800 1076 OFFCURVE",
"800 994 CURVE SMOOTH",
"800 912 OFFCURVE",
"734 844 OFFCURVE",
"654 844 CURVE SMOOTH",
"420 844 LINE"
);
}
);
width = 1246;
},
{
layerId = "9AF1F7D9-E035-453E-B2A8-46DE370997D0";
paths = (
{
closed = 1;
nodes = (
"180 0 LINE",
"180 600 LINE",
"512 600 LINE",
"860 0 LINE",
"930 0 LINE",
"582 602 LINE",
"780 618 OFFCURVE",
"940 782 OFFCURVE",
"940 1000 CURVE SMOOTH",
"940 1228 OFFCURVE",
"768 1400 OFFCURVE",
"548 1400 CURVE SMOOTH",
"120 1400 LINE",
"120 0 LINE"
);
},
{
closed = 1;
nodes = (
"180 1340 LINE",
"548 1340 LINE SMOOTH",
"730 1340 OFFCURVE",
"880 1196 OFFCURVE",
"880 1000 CURVE SMOOTH",
"880 804 OFFCURVE",
"730 660 OFFCURVE",
"548 660 CURVE SMOOTH",
"180 660 LINE"
);
}
);
width = 1000;
}
);
leftKerningGroup = H;
rightKerningGroup = R;
unicode = 0052;
},
{
glyphname = S;
lastChange = "2020-01-28 06:45:41 +0000";
layers = (
{
layerId = "10BC12B3-5274-42E3-B5BC-F74F362F0DF4";
paths = (
{
closed = 1;
nodes = (
"918 -26 OFFCURVE",
"1164 150 OFFCURVE",
"1164 412 CURVE SMOOTH",
"1164 670 OFFCURVE",
"920 808 OFFCURVE",
"632 850 CURVE SMOOTH",
"506 868 OFFCURVE",
"400 880 OFFCURVE",
"400 988 CURVE SMOOTH",
"400 1066 OFFCURVE",
"516 1126 OFFCURVE",
"632 1124 CURVE SMOOTH",
"762 1124 OFFCURVE",
"862 1066 OFFCURVE",
"882 1008 CURVE",
"1164 1110 LINE",
"1094 1308 OFFCURVE",
"868 1426 OFFCURVE",
"632 1426 CURVE SMOOTH",
"350 1426 OFFCURVE",
"100 1250 OFFCURVE",
"100 988 CURVE SMOOTH",
"100 714 OFFCURVE",
"328 594 OFFCURVE",
"632 550 CURVE SMOOTH",
"744 534 OFFCURVE",
"864 496 OFFCURVE",
"864 412 CURVE SMOOTH",
"864 330 OFFCURVE",
"752 274 OFFCURVE",
"632 274 CURVE SMOOTH",
"502 274 OFFCURVE",
"402 334 OFFCURVE",
"382 392 CURVE",
"100 288 LINE",
"172 92 OFFCURVE",
"396 -26 OFFCURVE",
"632 -26 CURVE SMOOTH"
);
}
);
width = 1264;
},
{
layerId = "9AF1F7D9-E035-453E-B2A8-46DE370997D0";
paths = (
{
closed = 1;
nodes = (
"858 -26 OFFCURVE",
"1088 120 OFFCURVE",
"1088 350 CURVE SMOOTH",
"1088 576 OFFCURVE",
"856 682 OFFCURVE",
"598 730 CURVE SMOOTH",
"352 776 OFFCURVE",
"170 826 OFFCURVE",
"170 1042 CURVE SMOOTH",
"170 1232 OFFCURVE",
"370 1358 OFFCURVE",
"598 1358 CURVE SMOOTH",
"780 1358 OFFCURVE",
"984 1276 OFFCURVE",
"1040 1118 CURVE",
"1098 1138 LINE",
"1028 1320 OFFCURVE",
"806 1418 OFFCURVE",
"598 1418 CURVE SMOOTH",
"340 1418 OFFCURVE",
"110 1272 OFFCURVE",
"110 1042 CURVE SMOOTH",
"110 790 OFFCURVE",
"320 718 OFFCURVE",
"598 666 CURVE SMOOTH",
"814 626 OFFCURVE",
"1028 546 OFFCURVE",
"1028 350 CURVE SMOOTH",
"1028 158 OFFCURVE",
"824 34 OFFCURVE",
"598 34 CURVE SMOOTH",
"416 34 OFFCURVE",
"212 116 OFFCURVE",
"156 274 CURVE",
"100 252 LINE",
"160 78 OFFCURVE",
"380 -26 OFFCURVE",
"598 -26 CURVE SMOOTH"
);
}
);
width = 1198;
}
);
leftKerningGroup = S;
rightKerningGroup = S;
unicode = 0053;
},
{
glyphname = Germandbls;
lastChange = "2020-01-27 03:55:58 +0000";
layers = (
{
layerId = "10BC12B3-5274-42E3-B5BC-F74F362F0DF4";
paths = (
{
closed = 1;
nodes = (
"420 0 LINE",
"420 950 LINE SMOOTH",
"420 1058 OFFCURVE",
"508 1144 OFFCURVE",
"594 1144 CURVE SMOOTH",
"680 1144 OFFCURVE",
"758 1148 OFFCURVE",
"758 1074 CURVE SMOOTH",
"758 1040 OFFCURVE",
"590 858 OFFCURVE",
"590 704 CURVE SMOOTH",
"590 594 LINE",
"672 594 LINE SMOOTH",
"776 594 OFFCURVE",
"920 556 OFFCURVE",
"920 424 CURVE SMOOTH",
"920 292 OFFCURVE",
"776 254 OFFCURVE",
"672 254 CURVE SMOOTH",
"590 254 LINE",
"650 0 LINE",
"704 0 LINE SMOOTH",
"936 0 OFFCURVE",
"1186 150 OFFCURVE",
"1186 422 CURVE SMOOTH",
"1186 586 OFFCURVE",
"1010 770 OFFCURVE",
"832 734 CURVE",
"974 906 OFFCURVE",
"1058 972 OFFCURVE",
"1058 1068 CURVE SMOOTH",
"1058 1248 OFFCURVE",
"858 1400 OFFCURVE",
"650 1400 CURVE SMOOTH",
"358 1400 OFFCURVE",
"120 1162 OFFCURVE",
"120 870 CURVE SMOOTH",
"120 0 LINE"
);
}
);
width = 1246;
},
{
layerId = "9AF1F7D9-E035-453E-B2A8-46DE370997D0";
paths = (
{
closed = 1;
nodes = (
"180 0 LINE",
"180 994 LINE SMOOTH",
"180 1184 OFFCURVE",
"332 1338 OFFCURVE",
"522 1338 CURVE SMOOTH",
"672 1338 OFFCURVE",
"804 1282 OFFCURVE",
"806 1152 CURVE SMOOTH",
"808 1032 OFFCURVE",
"510 754 OFFCURVE",
"518 694 CURVE SMOOTH",
"522 662 LINE",
"588 662 LINE SMOOTH",
"754 662 OFFCURVE",
"950 568 OFFCURVE",
"950 364 CURVE SMOOTH",
"950 156 OFFCURVE",
"756 60 OFFCURVE",
"590 60 CURVE SMOOTH",
"496 60 LINE",
"516 0 LINE",
"590 0 LINE SMOOTH",
"788 0 OFFCURVE",
"1010 122 OFFCURVE",
"1010 362 CURVE SMOOTH",
"1010 588 OFFCURVE",
"802 740 OFFCURVE",
"602 720 CURVE",
"800 992 OFFCURVE",
"876 1070 OFFCURVE",
"876 1152 CURVE SMOOTH",
"876 1320 OFFCURVE",
"716 1398 OFFCURVE",
"526 1398 CURVE SMOOTH",
"302 1398 OFFCURVE",
"120 1216 OFFCURVE",
"120 992 CURVE SMOOTH",
"120 0 LINE"
);
}
);
width = 1070;
}
);
leftKerningGroup = Germandbls;
rightKerningGroup = Germandbls;
unicode = 1E9E;
},
{
glyphname = T;
lastChange = "2020-01-27 03:55:58 +0000";
layers = (
{
layerId = "10BC12B3-5274-42E3-B5BC-F74F362F0DF4";
paths = (
{
closed = 1;
nodes = (
"60 1400 LINE",
"60 1100 LINE",
"460 1100 LINE",
"460 0 LINE",
"760 0 LINE",
"760 1100 LINE",
"1160 1100 LINE",
"1160 1400 LINE"
);
}
);
width = 1220;
},
{
layerId = "9AF1F7D9-E035-453E-B2A8-46DE370997D0";
paths = (
{
closed = 1;
nodes = (
"60 1400 LINE",
"60 1340 LINE",
"578 1340 LINE",
"578 0 LINE",
"638 0 LINE",
"638 1340 LINE",
"1158 1340 LINE",
"1158 1400 LINE"
);
}
);
width = 1218;
}
);
leftKerningGroup = T;
rightKerningGroup = T;
unicode = 0054;
},
{
glyphname = U;
lastChange = "2020-01-28 10:33:40 +0000";
layers = (
{
layerId = "10BC12B3-5274-42E3-B5BC-F74F362F0DF4";
paths = (
{
closed = 1;
nodes = (
"986 -26 OFFCURVE",
"1218 246 OFFCURVE",
"1218 584 CURVE SMOOTH",
"1218 1400 LINE",
"918 1400 LINE",
"918 584 LINE SMOOTH",
"918 412 OFFCURVE",
"822 274 OFFCURVE",
"650 274 CURVE SMOOTH",
"480 274 OFFCURVE",
"380 414 OFFCURVE",
"380 584 CURVE SMOOTH",
"380 1400 LINE",
"80 1400 LINE",
"80 584 LINE SMOOTH",
"80 246 OFFCURVE",
"314 -26 OFFCURVE",
"650 -26 CURVE SMOOTH"
);
}
);
width = 1298;
},
{
layerId = "9AF1F7D9-E035-453E-B2A8-46DE370997D0";
paths = (
{
closed = 1;
nodes = (
"946 -26 OFFCURVE",
"1140 246 OFFCURVE",
"1140 584 CURVE SMOOTH",
"1140 1400 LINE",
"1080 1400 LINE",
"1080 584 LINE SMOOTH",
"1080 288 OFFCURVE",
"918 34 OFFCURVE",
"610 34 CURVE SMOOTH",
"306 34 OFFCURVE",
"140 284 OFFCURVE",
"140 584 CURVE SMOOTH",
"140 1400 LINE",
"80 1400 LINE",
"80 584 LINE SMOOTH",
"80 246 OFFCURVE",
"274 -26 OFFCURVE",
"610 -26 CURVE SMOOTH"
);
}
);
width = 1220;
}
);
leftKerningGroup = U;
rightKerningGroup = U;
unicode = 0055;
},
{
glyphname = V;
lastChange = "2020-01-27 03:55:58 +0000";
layers = (
{
layerId = "10BC12B3-5274-42E3-B5BC-F74F362F0DF4";
paths = (
{
closed = 1;
nodes = (
"916 0 LINE",
"1424 1400 LINE",
"1106 1400 LINE",
"722 344 LINE",
"338 1400 LINE",
"20 1400 LINE",
"528 0 LINE"
);
}
);
width = 1444;
},
{
layerId = "9AF1F7D9-E035-453E-B2A8-46DE370997D0";
paths = (
{
closed = 1;
nodes = (
"628 0 LINE",
"1138 1400 LINE",
"1074 1400 LINE",
"598 92 LINE",
"124 1400 LINE",
"60 1400 LINE",
"568 0 LINE"
);
}
);
width = 1198;
}
);
leftKerningGroup = V;
rightKerningGroup = V;
unicode = 0056;
},
{
glyphname = W;
lastChange = "2020-01-27 03:55:58 +0000";
layers = (
{
layerId = "10BC12B3-5274-42E3-B5BC-F74F362F0DF4";
paths = (
{
closed = 1;
nodes = (
"740 0 LINE",
"924 726 LINE",
"1110 0 LINE",
"1448 0 LINE",
"1804 1400 LINE",
"1494 1400 LINE",
"1278 552 LINE",
"1062 1400 LINE",
"786 1400 LINE",
"570 552 LINE",
"354 1400 LINE",
"44 1400 LINE",
"402 0 LINE"
);
}
);
width = 1848;
},
{
layerId = "9AF1F7D9-E035-453E-B2A8-46DE370997D0";
paths = (
{
closed = 1;
nodes = (
"480 0 LINE",
"800 1250 LINE",
"1120 0 LINE",
"1200 0 LINE",
"1556 1400 LINE",
"1494 1400 LINE",
"1160 86 LINE",
"824 1400 LINE",
"776 1400 LINE",
"442 86 LINE",
"106 1400 LINE",
"44 1400 LINE",
"402 0 LINE"
);
}
);
width = 1600;
}
);
leftKerningGroup = W;
rightKerningGroup = W;
unicode = 0057;
},
{
glyphname = X;
lastChange = "2020-01-27 03:55:58 +0000";
layers = (
{
layerId = "10BC12B3-5274-42E3-B5BC-F74F362F0DF4";
paths = (
{
closed = 1;
nodes = (
"432 0 LINE",
"758 448 LINE",
"1084 0 LINE",
"1456 0 LINE",
"944 704 LINE",
"1452 1402 LINE",
"1082 1402 LINE",
"758 958 LINE",
"434 1402 LINE",
"64 1402 LINE",
"572 704 LINE",
"60 0 LINE"
);
}
);
width = 1516;
},
{
layerId = "9AF1F7D9-E035-453E-B2A8-46DE370997D0";
paths = (
{
closed = 1;
nodes = (
"136 0 LINE",
"610 652 LINE",
"1086 0 LINE",
"1160 0 LINE",
"648 704 LINE",
"1156 1402 LINE",
"1082 1402 LINE",
"610 754 LINE",
"138 1402 LINE",
"64 1402 LINE",
"574 704 LINE",
"60 0 LINE"
);
}
);
width = 1220;
}
);
leftKerningGroup = X;
rightKerningGroup = X;
unicode = 0058;
},
{
glyphname = Y;
lastChange = "2020-01-27 03:55:58 +0000";
layers = (
{
layerId = "10BC12B3-5274-42E3-B5BC-F74F362F0DF4";
paths = (
{
closed = 1;
nodes = (
"696 956 LINE",
"414 1400 LINE",
"60 1400 LINE",
"546 630 LINE",
"546 0 LINE",
"846 0 LINE",
"846 630 LINE",
"1332 1400 LINE",
"978 1400 LINE"
);
}
);
width = 1392;
},
{
layerId = "9AF1F7D9-E035-453E-B2A8-46DE370997D0";
paths = (
{
closed = 1;
nodes = (
"554 702 LINE",
"130 1400 LINE",
"60 1400 LINE",
"524 636 LINE",
"524 0 LINE",
"584 0 LINE",
"584 636 LINE",
"1048 1400 LINE",
"978 1400 LINE"
);
}
);
width = 1108;
}
);
leftKerningGroup = Y;
rightKerningGroup = Y;
unicode = 0059;
},
{
glyphname = Z;
lastChange = "2020-01-27 03:55:58 +0000";
layers = (
{
layerId = "10BC12B3-5274-42E3-B5BC-F74F362F0DF4";
paths = (
{
closed = 1;
nodes = (
"1172 0 LINE",
"1172 300 LINE",
"446 300 LINE",
"1172 1100 LINE",
"1172 1400 LINE",
"40 1400 LINE",
"40 1100 LINE",
"766 1100 LINE",
"40 300 LINE",
"40 0 LINE"
);
}
);
width = 1212;
},
{
layerId = "9AF1F7D9-E035-453E-B2A8-46DE370997D0";
paths = (
{
closed = 1;
nodes = (
"1172 0 LINE",
"1172 60 LINE",
"118 60 LINE",
"1172 1340 LINE",
"1172 1400 LINE",
"40 1400 LINE",
"40 1340 LINE",
"1094 1340 LINE",
"40 60 LINE",
"40 0 LINE"
);
}
);
width = 1212;
}
);
leftKerningGroup = Z;
rightKerningGroup = Z;
unicode = 005A;
},
{
glyphname = a;
lastChange = "2020-01-28 10:30:43 +0000";
layers = (
{
layerId = "10BC12B3-5274-42E3-B5BC-F74F362F0DF4";
paths = (
{
closed = 1;
nodes = (
"850 908 LINE",
"788 978 OFFCURVE",
"704 1028 OFFCURVE",
"596 1028 CURVE SMOOTH",
"306 1028 OFFCURVE",
"70 792 OFFCURVE",
"70 500 CURVE SMOOTH",
"70 210 OFFCURVE",
"306 -26 OFFCURVE",
"596 -26 CURVE SMOOTH",
"704 -26 OFFCURVE",
"788 24 OFFCURVE",
"850 94 CURVE",
"850 0 LINE",
"1150 0 LINE",
"1150 1000 LINE",
"850 1000 LINE"
);
},
{
closed = 1;
nodes = (
"478 262 OFFCURVE",
"378 370 OFFCURVE",
"378 500 CURVE SMOOTH",
"378 632 OFFCURVE",
"478 738 OFFCURVE",
"600 738 CURVE SMOOTH",
"724 738 OFFCURVE",
"824 632 OFFCURVE",
"824 500 CURVE SMOOTH",
"824 370 OFFCURVE",
"724 262 OFFCURVE",
"600 262 CURVE SMOOTH"
);
}
);
width = 1270;
},
{
layerId = "9AF1F7D9-E035-453E-B2A8-46DE370997D0";
paths = (
{
closed = 1;
nodes = (
"1004 768 LINE",
"932 924 OFFCURVE",
"790 1028 OFFCURVE",
"596 1028 CURVE",
"306 1028 OFFCURVE",
"70 792 OFFCURVE",
"70 500 CURVE",
"70 210 OFFCURVE",
"306 -26 OFFCURVE",
"596 -26 CURVE",
"790 -26 OFFCURVE",
"932 78 OFFCURVE",
"1004 234 CURVE",
"1004 0 LINE",
"1064 0 LINE",
"1064 1000 LINE",
"1004 1000 LINE"
);
},
{
closed = 1;
nodes = (
"346 34 OFFCURVE",
"130 238 OFFCURVE",
"130 500 CURVE",
"130 758 OFFCURVE",
"338 968 OFFCURVE",
"596 968 CURVE",
"850 968 OFFCURVE",
"1000 762 OFFCURVE",
"1000 500 CURVE",
"1000 244 OFFCURVE",
"854 34 OFFCURVE",
"596 34 CURVE"
);
}
);
width = 1184;
}
);
leftKerningGroup = "1";
rightKerningGroup = n;
unicode = 0061;
},
{
glyphname = ae;
lastChange = "2020-01-27 06:50:47 +0000";
layers = (
{
layerId = "10BC12B3-5274-42E3-B5BC-F74F362F0DF4";
paths = (
{
closed = 1;
nodes = (
"630 -26 LINE SMOOTH",
"764 -26 OFFCURVE",
"844 14 OFFCURVE",
"930 102 CURVE",
"1018 22 OFFCURVE",
"1132 -26 OFFCURVE",
"1258 -26 CURVE SMOOTH",
"1458 -26 OFFCURVE",
"1630 98 OFFCURVE",
"1710 276 CURVE",
"1404 348 LINE",
"1368 302 OFFCURVE",
"1316 274 OFFCURVE",
"1258 274 CURVE SMOOTH",
"1164 276 OFFCURVE",
"1110 330 OFFCURVE",
"1082 402 CURVE",
"1748 402 LINE",
"1808 722 OFFCURVE",
"1576 1028 OFFCURVE",
"1258 1028 CURVE SMOOTH",
"1134 1028 OFFCURVE",
"1022 982 OFFCURVE",
"934 904 CURVE",
"846 990 OFFCURVE",
"714 1028 OFFCURVE",
"552 1028 CURVE SMOOTH",
"356 1028 OFFCURVE",
"214 1004 OFFCURVE",
"118 838 CURVE",
"376 686 LINE",
"394 716 OFFCURVE",
"416 756 OFFCURVE",
"552 756 CURVE SMOOTH",
"664 756 OFFCURVE",
"746 708 OFFCURVE",
"762 622 CURVE",
"358 622 LINE SMOOTH",
"198 622 OFFCURVE",
"70 492 OFFCURVE",
"70 334 CURVE SMOOTH",
"70 108 OFFCURVE",
"220 -26 OFFCURVE",
"504 -26 CURVE SMOOTH"
);
},
{
closed = 1;
nodes = (
"438 174 OFFCURVE",
"370 234 OFFCURVE",
"370 330 CURVE SMOOTH",
"370 412 OFFCURVE",
"442 422 OFFCURVE",
"530 422 CURVE SMOOTH",
"752 422 LINE",
"752 374 LINE SMOOTH",
"752 266 OFFCURVE",
"662 174 OFFCURVE",
"550 174 CURVE SMOOTH"
);
},
{
closed = 1;
nodes = (
"1098 708 OFFCURVE",
"1172 768 OFFCURVE",
"1258 768 CURVE SMOOTH",
"1344 768 OFFCURVE",
"1416 708 OFFCURVE",
"1444 622 CURVE",
"1070 622 LINE"
);
}
);
width = 1818;
},
{
layerId = "9AF1F7D9-E035-453E-B2A8-46DE370997D0";
paths = (
{
closed = 1;
nodes = (
"572 0 LINE SMOOTH",
"740 0 OFFCURVE",
"880 122 OFFCURVE",
"904 284 CURVE",
"988 116 OFFCURVE",
"1154 0 OFFCURVE",
"1348 0 CURVE SMOOTH",
"1548 0 OFFCURVE",
"1720 124 OFFCURVE",
"1800 302 CURVE",
"1740 316 LINE",
"1660 156 OFFCURVE",
"1518 60 OFFCURVE",
"1348 60 CURVE SMOOTH",
"1118 60 OFFCURVE",
"928 246 OFFCURVE",
"908 496 CURVE",
"1846 496 LINE",
"1840 830 OFFCURVE",
"1634 1054 OFFCURVE",
"1348 1054 CURVE SMOOTH",
"1142 1054 OFFCURVE",
"964 922 OFFCURVE",
"888 734 CURVE",
"858 914 OFFCURVE",
"778 1054 OFFCURVE",
"530 1054 CURVE SMOOTH",
"398 1054 OFFCURVE",
"234 1014 OFFCURVE",
"160 888 CURVE",
"212 858 LINE",
"276 964 OFFCURVE",
"420 994 OFFCURVE",
"530 994 CURVE SMOOTH",
"826 994 OFFCURVE",
"830 796 OFFCURVE",
"846 556 CURVE",
"426 556 LINE SMOOTH",
"246 556 OFFCURVE",
"80 516 OFFCURVE",
"70 318 CURVE",
"74 92 OFFCURVE",
"280 0 OFFCURVE",
"460 0 CURVE SMOOTH"
);
},
{
closed = 1;
nodes = (
"312 60 OFFCURVE",
"134 112 OFFCURVE",
"130 318 CURVE",
"136 458 OFFCURVE",
"250 496 OFFCURVE",
"426 496 CURVE SMOOTH",
"848 496 LINE",
"848 384 LINE",
"848 330 OFFCURVE",
"858 60 OFFCURVE",
"518 60 CURVE"
);
},
{
closed = 1;
nodes = (
"924 798 OFFCURVE",
"1110 994 OFFCURVE",
"1348 994 CURVE SMOOTH",
"1584 994 OFFCURVE",
"1778 790 OFFCURVE",
"1786 556 CURVE",
"908 556 LINE"
);
}
);
width = 1906;
}
);
leftKerningGroup = "1";
rightKerningGroup = e;
unicode = 00E6;
},
{
glyphname = b;
lastChange = "2020-01-27 22:44:52 +0000";
layers = (
{
layerId = "10BC12B3-5274-42E3-B5BC-F74F362F0DF4";
paths = (
{
closed = 1;
nodes = (
"566 1028 OFFCURVE",
"482 978 OFFCURVE",
"420 908 CURVE",
"420 1500 LINE",
"120 1500 LINE",
"120 0 LINE",
"420 0 LINE",
"420 94 LINE",
"482 24 OFFCURVE",
"566 -26 OFFCURVE",
"672 -26 CURVE",
"964 -26 OFFCURVE",
"1200 210 OFFCURVE",
"1200 502 CURVE",
"1200 792 OFFCURVE",
"964 1028 OFFCURVE",
"672 1028 CURVE"
);
},
{
closed = 1;
nodes = (
"546 264 OFFCURVE",
"446 370 OFFCURVE",
"446 502 CURVE",
"446 632 OFFCURVE",
"546 740 OFFCURVE",
"668 740 CURVE",
"792 740 OFFCURVE",
"892 632 OFFCURVE",
"892 502 CURVE",
"892 370 OFFCURVE",
"792 264 OFFCURVE",
"668 264 CURVE"
);
}
);
width = 1260;
},
{
layerId = "9AF1F7D9-E035-453E-B2A8-46DE370997D0";
paths = (
{
closed = 1;
nodes = (
"394 1028 OFFCURVE",
"252 924 OFFCURVE",
"180 768 CURVE",
"180 1500 LINE",
"120 1500 LINE",
"120 0 LINE",
"180 0 LINE",
"180 234 LINE",
"252 78 OFFCURVE",
"394 -26 OFFCURVE",
"588 -26 CURVE",
"878 -26 OFFCURVE",
"1114 210 OFFCURVE",
"1114 500 CURVE",
"1114 792 OFFCURVE",
"878 1028 OFFCURVE",
"588 1028 CURVE"
);
},
{
closed = 1;
nodes = (
"334 34 OFFCURVE",
"184 240 OFFCURVE",
"184 500 CURVE",
"184 756 OFFCURVE",
"330 968 OFFCURVE",
"588 968 CURVE",
"838 968 OFFCURVE",
"1054 764 OFFCURVE",
"1054 500 CURVE",
"1054 244 OFFCURVE",
"846 34 OFFCURVE",
"588 34 CURVE"
);
}
);
width = 1194;
}
);
leftKerningGroup = h;
rightKerningGroup = o;
unicode = 0062;
},
{
glyphname = c;
lastChange = "2020-01-28 10:26:18 +0000";
layers = (
{
layerId = "10BC12B3-5274-42E3-B5BC-F74F362F0DF4";
paths = (
{
closed = 1;
nodes = (
"654 294 OFFCURVE",
"608 274 OFFCURVE",
"560 274 CURVE",
"446 274 OFFCURVE",
"360 382 OFFCURVE",
"360 500 CURVE",
"360 620 OFFCURVE",
"446 728 OFFCURVE",
"560 728 CURVE",
"608 728 OFFCURVE",
"654 708 OFFCURVE",
"690 672 CURVE",
"960 818 LINE",
"868 946 OFFCURVE",
"724 1028 OFFCURVE",
"560 1028 CURVE",
"284 1028 OFFCURVE",
"60 792 OFFCURVE",
"60 500 CURVE",
"60 210 OFFCURVE",
"284 -26 OFFCURVE",
"560 -26 CURVE",
"724 -26 OFFCURVE",
"868 56 OFFCURVE",
"960 182 CURVE",
"690 328 LINE"
);
}
);
width = 1020;
},
{
layerId = "9AF1F7D9-E035-453E-B2A8-46DE370997D0";
paths = (
{
closed = 1;
nodes = (
"828 108 OFFCURVE",
"700 34 OFFCURVE",
"560 34 CURVE",
"318 34 OFFCURVE",
"120 242 OFFCURVE",
"120 500 CURVE",
"120 754 OFFCURVE",
"312 968 OFFCURVE",
"560 968 CURVE",
"688 968 OFFCURVE",
"820 904 OFFCURVE",
"906 790 CURVE",
"958 818 LINE",
"868 946 OFFCURVE",
"722 1028 OFFCURVE",
"560 1028 CURVE",
"284 1028 OFFCURVE",
"60 792 OFFCURVE",
"60 500 CURVE",
"60 210 OFFCURVE",
"284 -26 OFFCURVE",
"560 -26 CURVE",
"722 -26 OFFCURVE",
"868 56 OFFCURVE",
"958 184 CURVE",
"906 212 LINE"
);
}
);
width = 1018;
}
);
leftKerningGroup = "1";
rightKerningGroup = c;
unicode = 0063;
},
{
glyphname = d;
lastChange = "2020-01-28 10:26:52 +0000";
layers = (
{
layerId = "10BC12B3-5274-42E3-B5BC-F74F362F0DF4";
paths = (
{
closed = 1;
nodes = (
"860 908 LINE",
"798 978 OFFCURVE",
"714 1026 OFFCURVE",
"606 1026 CURVE",
"316 1026 OFFCURVE",
"80 790 OFFCURVE",
"80 500 CURVE",
"80 210 OFFCURVE",
"316 -26 OFFCURVE",
"606 -26 CURVE",
"714 -26 OFFCURVE",
"798 22 OFFCURVE",
"860 92 CURVE",
"860 0 LINE",
"1160 0 LINE",
"1160 1500 LINE",
"860 1500 LINE"
);
},
{
closed = 1;
nodes = (
"488 262 OFFCURVE",
"388 368 OFFCURVE",
"388 500 CURVE",
"388 632 OFFCURVE",
"488 738 OFFCURVE",
"610 738 CURVE",
"734 738 OFFCURVE",
"834 632 OFFCURVE",
"834 500 CURVE",
"834 368 OFFCURVE",
"734 262 OFFCURVE",
"610 262 CURVE"
);
}
);
width = 1280;
},
{
layerId = "9AF1F7D9-E035-453E-B2A8-46DE370997D0";
paths = (
{
closed = 1;
nodes = (
"1014 768 LINE",
"942 924 OFFCURVE",
"800 1028 OFFCURVE",
"606 1028 CURVE",
"316 1028 OFFCURVE",
"80 792 OFFCURVE",
"80 500 CURVE",
"80 210 OFFCURVE",
"316 -26 OFFCURVE",
"606 -26 CURVE",
"800 -26 OFFCURVE",
"942 78 OFFCURVE",
"1014 234 CURVE",
"1014 0 LINE",
"1074 0 LINE",
"1074 1500 LINE",
"1014 1500 LINE"
);
},
{
closed = 1;
nodes = (
"356 34 OFFCURVE",
"140 238 OFFCURVE",
"140 500 CURVE",
"140 758 OFFCURVE",
"350 968 OFFCURVE",
"606 968 CURVE",
"860 968 OFFCURVE",
"1010 762 OFFCURVE",
"1010 500 CURVE",
"1010 244 OFFCURVE",
"864 34 OFFCURVE",
"606 34 CURVE"
);
}
);
width = 1194;
}
);
leftKerningGroup = "2";
rightKerningGroup = l;
unicode = 0064;
},
{
glyphname = eth;
lastChange = "2020-01-27 03:55:58 +0000";
layers = (
{
components = (
{
name = partialdiff;
}
);
layerId = "10BC12B3-5274-42E3-B5BC-F74F362F0DF4";
paths = (
{
closed = 1;
nodes = (
"876 1450 LINE",
"736 1592 LINE",
"298 1160 LINE",
"440 1018 LINE"
);
}
);
width = 1126;
},
{
components = (
{
name = partialdiff;
}
);
layerId = "9AF1F7D9-E035-453E-B2A8-46DE370997D0";
paths = (
{
closed = 1;
nodes = (
"866 1500 LINE",
"824 1542 LINE",
"384 1114 LINE",
"428 1070 LINE"
);
}
);
width = 1200;
}
);
leftKerningGroup = "2";
rightKerningGroup = eth;
unicode = 00F0;
},
{
glyphname = e;
lastChange = "2020-01-28 07:07:11 +0000";
layers = (
{
layerId = "10BC12B3-5274-42E3-B5BC-F74F362F0DF4";
paths = (
{
closed = 1;
nodes = (
"760 -26 OFFCURVE",
"932 98 OFFCURVE",
"1013 276 CURVE",
"707 347 LINE",
"670 302 OFFCURVE",
"618 273 OFFCURVE",
"560 274 CURVE SMOOTH",
"467 276 OFFCURVE",
"412 330 OFFCURVE",
"384 401 CURVE",
"1051 401 LINE",
"1111 719 OFFCURVE",
"879 1028 OFFCURVE",
"560 1028 CURVE SMOOTH",
"284 1028 OFFCURVE",
"60 792 OFFCURVE",
"60 501 CURVE SMOOTH",
"60 210 OFFCURVE",
"284 -26 OFFCURVE",
"560 -26 CURVE SMOOTH"
);
},
{
closed = 1;
nodes = (
"402 707 OFFCURVE",
"475 768 OFFCURVE",
"560 768 CURVE SMOOTH",
"646 768 OFFCURVE",
"719 707 OFFCURVE",
"748 621 CURVE",
"373 621 LINE"
);
}
);
width = 1121;
},
{
layerId = "9AF1F7D9-E035-453E-B2A8-46DE370997D0";
paths = (
{
closed = 1;
nodes = (
"760 -26 OFFCURVE",
"932 98 OFFCURVE",
"1012 276 CURVE",
"952 290 LINE",
"872 130 OFFCURVE",
"730 34 OFFCURVE",
"560 34 CURVE SMOOTH",
"330 34 OFFCURVE",
"140 220 OFFCURVE",
"120 470 CURVE",
"1058 470 LINE",
"1052 804 OFFCURVE",
"846 1028 OFFCURVE",
"560 1028 CURVE SMOOTH",
"284 1028 OFFCURVE",
"60 792 OFFCURVE",
"60 500 CURVE SMOOTH",
"60 210 OFFCURVE",
"284 -26 OFFCURVE",
"560 -26 CURVE SMOOTH"
);
},
{
closed = 1;
nodes = (
"136 772 OFFCURVE",
"322 968 OFFCURVE",
"560 968 CURVE SMOOTH",
"796 968 OFFCURVE",
"990 764 OFFCURVE",
"998 530 CURVE",
"120 530 LINE"
);
}
);
width = 1118;
}
);
leftKerningGroup = "1";
rightKerningGroup = e;
unicode = 0065;
},
{
glyphname = f;
lastChange = "2020-01-28 10:26:49 +0000";
layers = (
{
layerId = "10BC12B3-5274-42E3-B5BC-F74F362F0DF4";
paths = (
{
closed = 1;
nodes = (
"454 1206 OFFCURVE",
"474 1224 OFFCURVE",
"498 1224 CURVE",
"514 1224 OFFCURVE",
"524 1216 OFFCURVE",
"528 1212 CURVE",
"742 1422 LINE",
"678 1488 OFFCURVE",
"590 1524 OFFCURVE",
"498 1524 CURVE",
"308 1524 OFFCURVE",
"154 1370 OFFCURVE",
"154 1182 CURVE",
"154 1000 LINE",
"60 1000 LINE",
"60 700 LINE",
"154 700 LINE",
"154 0 LINE",
"454 0 LINE",
"454 700 LINE",
"680 700 LINE",
"680 1000 LINE",
"454 1000 LINE",
"454 1182 LINE"
);
}
);
width = 802;
},
{
layerId = "9AF1F7D9-E035-453E-B2A8-46DE370997D0";
paths = (
{
closed = 1;
nodes = (
"258 1390 OFFCURVE",
"332 1464 OFFCURVE",
"422 1464 CURVE",
"466 1464 OFFCURVE",
"508 1446 OFFCURVE",
"538 1416 CURVE",
"580 1458 LINE",
"538 1500 OFFCURVE",
"482 1524 OFFCURVE",
"422 1524 CURVE",
"298 1524 OFFCURVE",
"198 1424 OFFCURVE",
"198 1300 CURVE",
"198 1000 LINE",
"40 1000 LINE",
"40 940 LINE",
"198 940 LINE",
"198 0 LINE",
"258 0 LINE",
"258 940 LINE",
"580 940 LINE",
"580 1000 LINE",
"258 1000 LINE",
"258 1300 LINE"
);
}
);
width = 660;
}
);
leftKerningGroup = f;
rightKerningGroup = f;
unicode = 0066;
},
{
glyphname = g;
lastChange = "2020-01-27 22:45:50 +0000";
layers = (
{
layerId = "10BC12B3-5274-42E3-B5BC-F74F362F0DF4";
paths = (
{
closed = 1;
nodes = (
"854 912 LINE",
"794 980 OFFCURVE",
"712 1026 OFFCURVE",
"606 1026 CURVE SMOOTH",
"316 1026 OFFCURVE",
"80 790 OFFCURVE",
"80 500 CURVE SMOOTH",
"80 210 OFFCURVE",
"316 -26 OFFCURVE",
"606 -26 CURVE SMOOTH",
"712 -26 OFFCURVE",
"794 20 OFFCURVE",
"854 88 CURVE",
"854 -10 LINE SMOOTH",
"854 -140 OFFCURVE",
"724 -198 OFFCURVE",
"586 -198 CURVE SMOOTH",
"492 -198 OFFCURVE",
"406 -146 OFFCURVE",
"364 -56 CURVE",
"90 -180 LINE",
"178 -370 OFFCURVE",
"374 -500 OFFCURVE",
"586 -500 CURVE SMOOTH",
"890 -500 OFFCURVE",
"1154 -314 OFFCURVE",
"1154 -10 CURVE SMOOTH",
"1154 1000 LINE",
"854 1000 LINE"
);
},
{
closed = 1;
nodes = (
"488 262 OFFCURVE",
"388 368 OFFCURVE",
"388 500 CURVE SMOOTH",
"388 632 OFFCURVE",
"488 738 OFFCURVE",
"610 738 CURVE SMOOTH",
"734 738 OFFCURVE",
"834 632 OFFCURVE",
"834 500 CURVE SMOOTH",
"834 368 OFFCURVE",
"734 262 OFFCURVE",
"610 262 CURVE SMOOTH"
);
}
);
width = 1274;
},
{
layerId = "9AF1F7D9-E035-453E-B2A8-46DE370997D0";
paths = (
{
closed = 1;
nodes = (
"976 770 LINE",
"902 924 OFFCURVE",
"762 1028 OFFCURVE",
"580 1028 CURVE",
"304 1028 OFFCURVE",
"80 792 OFFCURVE",
"80 500 CURVE",
"80 210 OFFCURVE",
"304 -26 OFFCURVE",
"580 -26 CURVE",
"762 -26 OFFCURVE",
"902 78 OFFCURVE",
"976 232 CURVE",
"976 -50 LINE",
"976 -250 OFFCURVE",
"774 -440 OFFCURVE",
"568 -440 CURVE",
"390 -440 OFFCURVE",
"200 -290 OFFCURVE",
"166 -110 CURVE",
"110 -136 LINE",
"156 -330 OFFCURVE",
"360 -500 OFFCURVE",
"568 -500 CURVE",
"804 -500 OFFCURVE",
"1036 -282 OFFCURVE",
"1036 -50 CURVE",
"1036 1000 LINE",
"976 1000 LINE"
);
},
{
closed = 1;
nodes = (
"340 34 OFFCURVE",
"140 240 OFFCURVE",
"140 500 CURVE",
"140 758 OFFCURVE",
"334 968 OFFCURVE",
"580 968 CURVE",
"824 968 OFFCURVE",
"974 754 OFFCURVE",
"974 500 CURVE",
"974 252 OFFCURVE",
"828 34 OFFCURVE",
"580 34 CURVE"
);
}
);
width = 1156;
}
);
leftKerningGroup = "1";
rightKerningGroup = g;
unicode = 0067;
},
{
glyphname = h;
lastChange = "2020-01-28 10:30:53 +0000";
layers = (
{
layerId = "10BC12B3-5274-42E3-B5BC-F74F362F0DF4";
paths = (
{
closed = 1;
nodes = (
"1094 792 OFFCURVE",
"920 1026 OFFCURVE",
"632 1026 CURVE",
"532 1026 OFFCURVE",
"460 1020 OFFCURVE",
"420 938 CURVE",
"420 1500 LINE",
"120 1500 LINE",
"120 0 LINE",
"422 0 LINE",
"422 500 LINE",
"422 632 OFFCURVE",
"468 738 OFFCURVE",
"600 738 CURVE",
"710 738 OFFCURVE",
"798 632 OFFCURVE",
"798 500 CURVE",
"798 0 LINE",
"1098 0 LINE",
"1098 504 LINE"
);
}
);
width = 1178;
},
{
layerId = "9AF1F7D9-E035-453E-B2A8-46DE370997D0";
paths = (
{
closed = 1;
nodes = (
"954 806 OFFCURVE",
"778 1028 OFFCURVE",
"538 1028 CURVE",
"390 1028 OFFCURVE",
"262 942 OFFCURVE",
"180 796 CURVE",
"180 1500 LINE",
"120 1500 LINE",
"120 0 LINE",
"180 0 LINE",
"180 550 LINE",
"180 780 OFFCURVE",
"342 968 OFFCURVE",
"538 968 CURVE",
"736 968 OFFCURVE",
"898 780 OFFCURVE",
"898 550 CURVE",
"898 0 LINE",
"958 0 LINE",
"958 554 LINE"
);
}
);
width = 1038;
}
);
leftKerningGroup = "3";
rightKerningGroup = n;
unicode = 0068;
},
{
glyphname = i;
lastChange = "2020-01-28 10:31:54 +0000";
layers = (
{
layerId = "10BC12B3-5274-42E3-B5BC-F74F362F0DF4";
paths = (
{
closed = 1;
nodes = (
"122 0 LINE",
"422 0 LINE",
"422 1000 LINE",
"122 1000 LINE"
);
},
{
closed = 1;
nodes = (
"354 1100 OFFCURVE",
"420 1166 OFFCURVE",
"420 1250 CURVE",
"420 1332 OFFCURVE",
"354 1400 OFFCURVE",
"270 1400 CURVE",
"188 1400 OFFCURVE",
"120 1332 OFFCURVE",
"120 1250 CURVE",
"120 1166 OFFCURVE",
"188 1100 OFFCURVE",
"270 1100 CURVE"
);
}
);
width = 542;
},
{
layerId = "9AF1F7D9-E035-453E-B2A8-46DE370997D0";
paths = (
{
closed = 1;
nodes = (
"126 0 LINE",
"186 0 LINE",
"186 1000 LINE",
"126 1000 LINE"
);
},
{
closed = 1;
nodes = (
"188 1200 OFFCURVE",
"210 1224 OFFCURVE",
"210 1244 CURVE",
"210 1268 OFFCURVE",
"188 1290 OFFCURVE",
"164 1290 CURVE",
"140 1290 OFFCURVE",
"120 1268 OFFCURVE",
"120 1244 CURVE",
"120 1224 OFFCURVE",
"140 1200 OFFCURVE",
"164 1200 CURVE"
);
}
);
width = 330;
}
);
leftKerningGroup = i;
rightKerningGroup = i;
unicode = 0069;
},
{
glyphname = idotless;
lastChange = "2020-01-27 22:49:58 +0000";
layers = (
{
layerId = "10BC12B3-5274-42E3-B5BC-F74F362F0DF4";
paths = (
{
closed = 1;
nodes = (
"120 0 LINE",
"420 0 LINE",
"420 1000 LINE",
"120 1000 LINE"
);
}
);
width = 540;
},
{
layerId = "9AF1F7D9-E035-453E-B2A8-46DE370997D0";
paths = (
{
closed = 1;
nodes = (
"120 0 LINE",
"180 0 LINE",
"180 1000 LINE",
"120 1000 LINE"
);
}
);
width = 300;
}
);
leftKerningGroup = i;
rightKerningGroup = idotless;
unicode = 0131;
},
{
glyphname = iacute;
lastChange = "2020-01-27 03:55:58 +0000";
layers = (
{
components = (
{
name = acutecomb;
transform = "{1, 0, 0, 1, -290, 0}";
}
);
layerId = "10BC12B3-5274-42E3-B5BC-F74F362F0DF4";
paths = (
{
closed = 1;
nodes = (
"120 0 LINE",
"420 0 LINE",
"420 1000 LINE",
"120 1000 LINE"
);
}
);
width = 540;
},
{
components = (
{
name = acutecomb;
transform = "{1, 0, 0, 1, -340, 0}";
}
);
layerId = "9AF1F7D9-E035-453E-B2A8-46DE370997D0";
paths = (
{
closed = 1;
nodes = (
"120 0 LINE",
"180 0 LINE",
"180 1000 LINE",
"120 1000 LINE"
);
}
);
width = 300;
}
);
leftKerningGroup = i;
rightKerningGroup = i;
unicode = 00ED;
},
{
glyphname = icircumflex;
lastChange = "2020-01-27 03:55:58 +0000";
layers = (
{
components = (
{
name = circumflexcomb;
transform = "{1, 0, 0, 1, -380, 0}";
}
);
layerId = "10BC12B3-5274-42E3-B5BC-F74F362F0DF4";
paths = (
{
closed = 1;
nodes = (
"120 0 LINE",
"420 0 LINE",
"420 1000 LINE",
"120 1000 LINE"
);
}
);
width = 540;
},
{
components = (
{
name = circumflexcomb;
transform = "{1, 0, 0, 1, -370, 0}";
}
);
layerId = "9AF1F7D9-E035-453E-B2A8-46DE370997D0";
paths = (
{
closed = 1;
nodes = (
"120 0 LINE",
"180 0 LINE",
"180 1000 LINE",
"120 1000 LINE"
);
}
);
width = 300;
}
);
leftKerningGroup = i;
rightKerningGroup = i;
unicode = 00EE;
},
{
glyphname = idieresis;
lastChange = "2020-01-27 03:55:58 +0000";
layers = (
{
components = (
{
name = dieresiscomb;
transform = "{1, 0, 0, 1, -500, 0}";
}
);
layerId = "10BC12B3-5274-42E3-B5BC-F74F362F0DF4";
paths = (
{
closed = 1;
nodes = (
"120 0 LINE",
"420 0 LINE",
"420 1000 LINE",
"120 1000 LINE"
);
}
);
width = 540;
},
{
components = (
{
name = dieresiscomb;
transform = "{1, 0, 0, 1, -422, 0}";
}
);
layerId = "9AF1F7D9-E035-453E-B2A8-46DE370997D0";
paths = (
{
closed = 1;
nodes = (
"120 0 LINE",
"180 0 LINE",
"180 1000 LINE",
"120 1000 LINE"
);
}
);
width = 300;
}
);
leftKerningGroup = i;
rightKerningGroup = i;
unicode = 00EF;
},
{
glyphname = igrave;
lastChange = "2020-01-27 03:55:58 +0000";
layers = (
{
components = (
{
name = grave;
transform = "{1, 0, 0, 1, -350, 0}";
}
);
layerId = "10BC12B3-5274-42E3-B5BC-F74F362F0DF4";
paths = (
{
closed = 1;
nodes = (
"120 0 LINE",
"420 0 LINE",
"420 1000 LINE",
"120 1000 LINE"
);
}
);
width = 540;
},
{
components = (
{
name = grave;
transform = "{1, 0, 0, 1, -300, 0}";
}
);
layerId = "9AF1F7D9-E035-453E-B2A8-46DE370997D0";
paths = (
{
closed = 1;
nodes = (
"120 0 LINE",
"180 0 LINE",
"180 1000 LINE",
"120 1000 LINE"
);
}
);
width = 300;
}
);
leftKerningGroup = i;
rightKerningGroup = i;
unicode = 00EC;
},
{
glyphname = j;
lastChange = "2020-01-27 22:42:55 +0000";
layers = (
{
layerId = "10BC12B3-5274-42E3-B5BC-F74F362F0DF4";
paths = (
{
closed = 1;
nodes = (
"322 -500 OFFCURVE",
"532 -288 OFFCURVE",
"532 -28 CURVE",
"532 1000 LINE",
"232 1000 LINE",
"232 -28 LINE",
"232 -124 OFFCURVE",
"154 -200 OFFCURVE",
"60 -200 CURVE",
"60 -200 OFFCURVE",
"60 -500 OFFCURVE",
"60 -500 CURVE"
);
},
{
closed = 1;
nodes = (
"464 1100 OFFCURVE",
"532 1168 OFFCURVE",
"532 1250 CURVE",
"532 1334 OFFCURVE",
"464 1400 OFFCURVE",
"382 1400 CURVE",
"298 1400 OFFCURVE",
"232 1334 OFFCURVE",
"232 1250 CURVE",
"232 1168 OFFCURVE",
"298 1100 OFFCURVE",
"382 1100 CURVE"
);
}
);
width = 652;
},
{
layerId = "9AF1F7D9-E035-453E-B2A8-46DE370997D0";
paths = (
{
closed = 1;
nodes = (
"272 -500 OFFCURVE",
"426 -344 OFFCURVE",
"426 -148 CURVE",
"426 1000 LINE",
"366 1000 LINE",
"366 -148 LINE",
"366 -314 OFFCURVE",
"236 -440 OFFCURVE",
"60 -440 CURVE",
"60 -440 OFFCURVE",
"60 -500 OFFCURVE",
"60 -500 CURVE SMOOTH"
);
},
{
closed = 1;
nodes = (
"420 1200 OFFCURVE",
"442 1220 OFFCURVE",
"442 1244 CURVE",
"442 1268 OFFCURVE",
"420 1290 OFFCURVE",
"396 1290 CURVE",
"372 1290 OFFCURVE",
"352 1268 OFFCURVE",
"352 1244 CURVE",
"352 1220 OFFCURVE",
"372 1200 OFFCURVE",
"396 1200 CURVE"
);
}
);
width = 582;
}
);
leftKerningGroup = j;
rightKerningGroup = j;
unicode = 006A;
},
{
glyphname = k;
lastChange = "2020-01-27 22:51:23 +0000";
layers = (
{
layerId = "10BC12B3-5274-42E3-B5BC-F74F362F0DF4";
paths = (
{
closed = 1;
nodes = (
"734 588 LINE",
"1078 1000 LINE",
"686 1000 LINE",
"420 682 LINE",
"420 1500 LINE",
"120 1500 LINE",
"120 0 LINE",
"420 0 LINE",
"420 216 LINE",
"528 344 LINE",
"728 0 LINE",
"1074 0 LINE"
);
}
);
width = 1158;
},
{
layerId = "9AF1F7D9-E035-453E-B2A8-46DE370997D0";
paths = (
{
closed = 1;
nodes = (
"466 602 LINE",
"802 1000 LINE",
"724 1000 LINE",
"180 352 LINE",
"180 1500 LINE",
"120 1500 LINE",
"120 0 LINE",
"180 0 LINE",
"180 258 LINE",
"426 552 LINE",
"746 0 LINE",
"814 0 LINE"
);
}
);
width = 894;
}
);
leftKerningGroup = h;
rightKerningGroup = k;
unicode = 006B;
},
{
glyphname = l;
lastChange = "2020-01-27 22:51:50 +0000";
layers = (
{
layerId = "10BC12B3-5274-42E3-B5BC-F74F362F0DF4";
paths = (
{
closed = 1;
nodes = (
"400 0 LINE",
"400 1500 LINE",
"100 1500 LINE",
"100 0 LINE"
);
}
);
width = 500;
},
{
layerId = "9AF1F7D9-E035-453E-B2A8-46DE370997D0";
paths = (
{
closed = 1;
nodes = (
"160 2 LINE",
"160 1500 LINE",
"100 1500 LINE",
"100 2 LINE"
);
}
);
width = 260;
}
);
leftKerningGroup = h;
rightKerningGroup = l;
unicode = 006C;
},
{
glyphname = m;
lastChange = "2020-01-28 10:27:10 +0000";
layers = (
{
layerId = "10BC12B3-5274-42E3-B5BC-F74F362F0DF4";
paths = (
{
closed = 1;
nodes = (
"380 0 LINE",
"380 532 LINE SMOOTH",
"380 627 OFFCURVE",
"457 703 OFFCURVE",
"552 703 CURVE SMOOTH",
"646 703 OFFCURVE",
"723 627 OFFCURVE",
"723 532 CURVE SMOOTH",
"723 0 LINE",
"1023 0 LINE",
"1023 532 LINE SMOOTH",
"1023 627 OFFCURVE",
"1100 703 OFFCURVE",
"1194 703 CURVE SMOOTH",
"1289 703 OFFCURVE",
"1366 627 OFFCURVE",
"1366 532 CURVE SMOOTH",
"1366 0 LINE",
"1666 0 LINE",
"1666 532 LINE SMOOTH",
"1666 792 OFFCURVE",
"1455 1003 OFFCURVE",
"1194 1003 CURVE SMOOTH",
"1074 1003 OFFCURVE",
"961 959 OFFCURVE",
"873 877 CURVE",
"786 959 OFFCURVE",
"672 1003 OFFCURVE",
"552 1003 CURVE SMOOTH",
"492 1003 OFFCURVE",
"434 992 OFFCURVE",
"380 951 CURVE",
"380 1000 LINE",
"80 1000 LINE",
"80 0 LINE"
);
}
);
width = 1746;
},
{
layerId = "9AF1F7D9-E035-453E-B2A8-46DE370997D0";
paths = (
{
closed = 1;
nodes = (
"140 0 LINE",
"140 530 LINE SMOOTH",
"140 760 OFFCURVE",
"268 968 OFFCURVE",
"458 968 CURVE SMOOTH",
"666 968 OFFCURVE",
"796 780 OFFCURVE",
"796 550 CURVE SMOOTH",
"796 0 LINE",
"856 0 LINE",
"856 550 LINE SMOOTH",
"856 780 OFFCURVE",
"986 968 OFFCURVE",
"1194 968 CURVE SMOOTH",
"1402 968 OFFCURVE",
"1512 780 OFFCURVE",
"1512 550 CURVE SMOOTH",
"1512 0 LINE",
"1572 0 LINE",
"1572 550 LINE SMOOTH",
"1572 806 OFFCURVE",
"1442 1028 OFFCURVE",
"1194 1028 CURVE SMOOTH",
"1010 1028 OFFCURVE",
"888 920 OFFCURVE",
"826 744 CURVE",
"764 916 OFFCURVE",
"648 1028 OFFCURVE",
"458 1028 CURVE SMOOTH",
"298 1028 OFFCURVE",
"216 934 OFFCURVE",
"140 792 CURVE",
"140 1000 LINE",
"80 1000 LINE",
"80 0 LINE"
);
}
);
width = 1652;
}
);
leftKerningGroup = "3";
rightKerningGroup = n;
unicode = 006D;
},
{
glyphname = n;
lastChange = "2020-01-28 10:29:42 +0000";
layers = (
{
layerId = "10BC12B3-5274-42E3-B5BC-F74F362F0DF4";
paths = (
{
closed = 1;
nodes = (
"1134 794 OFFCURVE",
"960 1028 OFFCURVE",
"672 1028 CURVE",
"564 1028 OFFCURVE",
"482 980 OFFCURVE",
"420 908 CURVE",
"420 1000 LINE",
"120 1000 LINE",
"120 0 LINE",
"420 0 LINE",
"420 502 LINE",
"420 632 OFFCURVE",
"488 740 OFFCURVE",
"618 740 CURVE",
"750 740 OFFCURVE",
"836 632 OFFCURVE",
"836 502 CURVE",
"836 0 LINE",
"1136 0 LINE",
"1136 506 LINE"
);
}
);
width = 1216;
},
{
layerId = "9AF1F7D9-E035-453E-B2A8-46DE370997D0";
paths = (
{
closed = 1;
nodes = (
"954 806 OFFCURVE",
"778 1028 OFFCURVE",
"538 1028 CURVE",
"390 1028 OFFCURVE",
"262 942 OFFCURVE",
"180 796 CURVE",
"180 1000 LINE",
"120 1000 LINE",
"120 0 LINE",
"180 0 LINE",
"180 550 LINE",
"180 780 OFFCURVE",
"342 968 OFFCURVE",
"538 968 CURVE",
"736 968 OFFCURVE",
"898 780 OFFCURVE",
"898 550 CURVE",
"898 0 LINE",
"958 0 LINE",
"958 554 LINE"
);
}
);
width = 1038;
}
);
leftKerningGroup = n;
rightKerningGroup = n;
unicode = 006E;
},
{
glyphname = o;
lastChange = "2020-01-28 10:27:03 +0000";
layers = (
{
layerId = "10BC12B3-5274-42E3-B5BC-F74F362F0DF4";
paths = (
{
closed = 1;
nodes = (
"836 -26 OFFCURVE",
"1060 210 OFFCURVE",
"1060 500 CURVE SMOOTH",
"1060 792 OFFCURVE",
"836 1028 OFFCURVE",
"560 1028 CURVE SMOOTH",
"284 1028 OFFCURVE",
"60 792 OFFCURVE",
"60 500 CURVE SMOOTH",
"60 210 OFFCURVE",
"284 -26 OFFCURVE",
"560 -26 CURVE SMOOTH"
);
},
{
closed = 1;
nodes = (
"452 274 OFFCURVE",
"360 372 OFFCURVE",
"360 500 CURVE SMOOTH",
"360 622 OFFCURVE",
"448 728 OFFCURVE",
"560 728 CURVE SMOOTH",
"668 728 OFFCURVE",
"760 626 OFFCURVE",
"760 500 CURVE SMOOTH",
"760 378 OFFCURVE",
"674 274 OFFCURVE",
"560 274 CURVE SMOOTH"
);
}
);
width = 1120;
},
{
layerId = "9AF1F7D9-E035-453E-B2A8-46DE370997D0";
paths = (
{
closed = 1;
nodes = (
"836 -26 OFFCURVE",
"1060 210 OFFCURVE",
"1060 500 CURVE SMOOTH",
"1060 792 OFFCURVE",
"836 1028 OFFCURVE",
"560 1028 CURVE SMOOTH",
"284 1028 OFFCURVE",
"60 792 OFFCURVE",
"60 500 CURVE SMOOTH",
"60 210 OFFCURVE",
"284 -26 OFFCURVE",
"560 -26 CURVE SMOOTH"
);
},
{
closed = 1;
nodes = (
"320 34 OFFCURVE",
"120 240 OFFCURVE",
"120 500 CURVE SMOOTH",
"120 752 OFFCURVE",
"310 968 OFFCURVE",
"560 968 CURVE SMOOTH",
"808 968 OFFCURVE",
"1000 752 OFFCURVE",
"1000 500 CURVE SMOOTH",
"1000 250 OFFCURVE",
"808 34 OFFCURVE",
"560 34 CURVE SMOOTH"
);
}
);
width = 1120;
}
);
leftKerningGroup = "1";
rightKerningGroup = o;
unicode = 006F;
},
{
glyphname = oslash;
lastChange = "2020-01-27 03:55:58 +0000";
layers = (
{
layerId = "10BC12B3-5274-42E3-B5BC-F74F362F0DF4";
paths = (
{
closed = 1;
nodes = (
"408 -2 LINE",
"456 -18 OFFCURVE",
"506 -26 OFFCURVE",
"560 -26 CURVE SMOOTH",
"836 -26 OFFCURVE",
"1060 210 OFFCURVE",
"1060 500 CURVE SMOOTH",
"1060 646 OFFCURVE",
"1004 778 OFFCURVE",
"914 874 CURVE",
"968 968 LINE",
"760 1088 LINE",
"710 1004 LINE",
"664 1020 OFFCURVE",
"612 1028 OFFCURVE",
"560 1028 CURVE SMOOTH",
"284 1028 OFFCURVE",
"60 792 OFFCURVE",
"60 500 CURVE SMOOTH",
"60 356 OFFCURVE",
"116 224 OFFCURVE",
"206 128 CURVE",
"152 34 LINE",
"360 -86 LINE"
);
},
{
closed = 1;
nodes = (
"342 412 OFFCURVE",
"336 444 OFFCURVE",
"336 482 CURVE SMOOTH",
"336 632 OFFCURVE",
"442 762 OFFCURVE",
"576 766 CURVE",
"354 380 LINE"
);
},
{
closed = 1;
nodes = (
"766 622 LINE",
"776 590 OFFCURVE",
"784 556 OFFCURVE",
"784 518 CURVE SMOOTH",
"784 368 OFFCURVE",
"682 240 OFFCURVE",
"544 236 CURVE"
);
}
);
width = 1120;
},
{
layerId = "9AF1F7D9-E035-453E-B2A8-46DE370997D0";
paths = (
{
closed = 1;
nodes = (
"326 36 LINE",
"396 -2 OFFCURVE",
"476 -26 OFFCURVE",
"560 -26 CURVE SMOOTH",
"836 -26 OFFCURVE",
"1060 210 OFFCURVE",
"1060 500 CURVE SMOOTH",
"1060 682 OFFCURVE",
"976 840 OFFCURVE",
"846 936 CURVE",
"892 1014 LINE",
"840 1044 LINE",
"794 968 LINE",
"726 1006 OFFCURVE",
"646 1028 OFFCURVE",
"560 1028 CURVE SMOOTH",
"284 1028 OFFCURVE",
"60 792 OFFCURVE",
"60 500 CURVE SMOOTH",
"60 322 OFFCURVE",
"146 164 OFFCURVE",
"276 68 CURVE",
"230 -10 LINE",
"282 -40 LINE"
);
},
{
closed = 1;
nodes = (
"194 206 OFFCURVE",
"120 344 OFFCURVE",
"120 500 CURVE SMOOTH",
"120 846 OFFCURVE",
"472 1080 OFFCURVE",
"764 916 CURVE",
"306 122 LINE"
);
},
{
closed = 1;
nodes = (
"816 882 LINE",
"928 796 OFFCURVE",
"1000 656 OFFCURVE",
"1000 500 CURVE SMOOTH",
"1000 162 OFFCURVE",
"660 -80 OFFCURVE",
"356 88 CURVE"
);
}
);
width = 1120;
}
);
leftKerningGroup = "1";
rightKerningGroup = o;
unicode = 00F8;
},
{
glyphname = oe;
lastChange = "2020-01-27 03:55:58 +0000";
layers = (
{
layerId = "10BC12B3-5274-42E3-B5BC-F74F362F0DF4";
paths = (
{
closed = 1;
nodes = (
"696 -26 OFFCURVE",
"820 32 OFFCURVE",
"910 124 CURVE",
"1000 32 OFFCURVE",
"1124 -26 OFFCURVE",
"1260 -26 CURVE SMOOTH",
"1460 -26 OFFCURVE",
"1632 98 OFFCURVE",
"1712 276 CURVE",
"1406 348 LINE",
"1370 302 OFFCURVE",
"1318 274 OFFCURVE",
"1260 274 CURVE SMOOTH",
"1166 276 OFFCURVE",
"1112 330 OFFCURVE",
"1084 402 CURVE",
"1750 402 LINE",
"1810 722 OFFCURVE",
"1578 1028 OFFCURVE",
"1260 1028 CURVE SMOOTH",
"1124 1028 OFFCURVE",
"1000 970 OFFCURVE",
"910 878 CURVE",
"820 970 OFFCURVE",
"696 1028 OFFCURVE",
"560 1028 CURVE SMOOTH",
"284 1028 OFFCURVE",
"60 792 OFFCURVE",
"60 500 CURVE SMOOTH",
"60 210 OFFCURVE",
"284 -26 OFFCURVE",
"560 -26 CURVE SMOOTH"
);
},
{
closed = 1;
nodes = (
"452 274 OFFCURVE",
"360 372 OFFCURVE",
"360 500 CURVE SMOOTH",
"360 622 OFFCURVE",
"448 728 OFFCURVE",
"560 728 CURVE SMOOTH",
"668 728 OFFCURVE",
"760 626 OFFCURVE",
"760 500 CURVE SMOOTH",
"760 378 OFFCURVE",
"674 274 OFFCURVE",
"560 274 CURVE SMOOTH"
);
},
{
closed = 1;
nodes = (
"1100 708 OFFCURVE",
"1174 768 OFFCURVE",
"1260 768 CURVE SMOOTH",
"1346 768 OFFCURVE",
"1418 708 OFFCURVE",
"1446 622 CURVE",
"1072 622 LINE"
);
}
);
width = 1820;
},
{
layerId = "9AF1F7D9-E035-453E-B2A8-46DE370997D0";
paths = (
{
closed = 1;
nodes = (
"776 -26 OFFCURVE",
"960 118 OFFCURVE",
"1030 320 CURVE",
"1100 118 OFFCURVE",
"1284 -26 OFFCURVE",
"1500 -26 CURVE SMOOTH",
"1700 -26 OFFCURVE",
"1872 98 OFFCURVE",
"1952 276 CURVE",
"1892 290 LINE",
"1812 130 OFFCURVE",
"1670 34 OFFCURVE",
"1500 34 CURVE SMOOTH",
"1270 34 OFFCURVE",
"1080 220 OFFCURVE",
"1060 470 CURVE",
"1998 470 LINE",
"1992 804 OFFCURVE",
"1786 1028 OFFCURVE",
"1500 1028 CURVE SMOOTH",
"1284 1028 OFFCURVE",
"1100 884 OFFCURVE",
"1030 680 CURVE",
"960 884 OFFCURVE",
"776 1028 OFFCURVE",
"560 1028 CURVE SMOOTH",
"284 1028 OFFCURVE",
"60 792 OFFCURVE",
"60 500 CURVE SMOOTH",
"60 210 OFFCURVE",
"284 -26 OFFCURVE",
"560 -26 CURVE SMOOTH"
);
},
{
closed = 1;
nodes = (
"320 34 OFFCURVE",
"120 240 OFFCURVE",
"120 500 CURVE SMOOTH",
"120 752 OFFCURVE",
"310 968 OFFCURVE",
"560 968 CURVE SMOOTH",
"808 968 OFFCURVE",
"1000 752 OFFCURVE",
"1000 500 CURVE SMOOTH",
"1000 250 OFFCURVE",
"808 34 OFFCURVE",
"560 34 CURVE SMOOTH"
);
},
{
closed = 1;
nodes = (
"1076 772 OFFCURVE",
"1262 968 OFFCURVE",
"1500 968 CURVE SMOOTH",
"1736 968 OFFCURVE",
"1930 764 OFFCURVE",
"1938 530 CURVE",
"1060 530 LINE"
);
}
);
width = 2058;
}
);
leftKerningGroup = "1";
rightKerningGroup = e;
unicode = 0153;
},
{
glyphname = p;
lastChange = "2020-01-28 06:47:01 +0000";
layers = (
{
layerId = "10BC12B3-5274-42E3-B5BC-F74F362F0DF4";
paths = (
{
closed = 1;
nodes = (
"420 92 LINE",
"482 22 OFFCURVE",
"564 -28 OFFCURVE",
"672 -28 CURVE",
"964 -28 OFFCURVE",
"1198 208 OFFCURVE",
"1198 500 CURVE",
"1198 790 OFFCURVE",
"964 1026 OFFCURVE",
"672 1026 CURVE",
"564 1026 OFFCURVE",
"482 976 OFFCURVE",
"420 906 CURVE",
"420 1000 LINE",
"120 1000 LINE",
"120 -500 LINE",
"420 -500 LINE"
);
},
{
closed = 1;
nodes = (
"792 738 OFFCURVE",
"892 630 OFFCURVE",
"892 500 CURVE",
"892 368 OFFCURVE",
"792 262 OFFCURVE",
"668 262 CURVE",
"546 262 OFFCURVE",
"446 368 OFFCURVE",
"446 500 CURVE",
"446 630 OFFCURVE",
"546 738 OFFCURVE",
"668 738 CURVE"
);
}
);
width = 1278;
},
{
layerId = "9AF1F7D9-E035-453E-B2A8-46DE370997D0";
paths = (
{
closed = 1;
nodes = (
"180 232 LINE",
"252 76 OFFCURVE",
"394 -28 OFFCURVE",
"588 -28 CURVE SMOOTH",
"878 -28 OFFCURVE",
"1114 208 OFFCURVE",
"1114 500 CURVE SMOOTH",
"1114 790 OFFCURVE",
"878 1026 OFFCURVE",
"588 1026 CURVE SMOOTH",
"394 1026 OFFCURVE",
"252 922 OFFCURVE",
"180 766 CURVE",
"180 1000 LINE",
"120 1000 LINE",
"120 -500 LINE",
"180 -500 LINE"
);
},
{
closed = 1;
nodes = (
"846 966 OFFCURVE",
"1054 756 OFFCURVE",
"1054 500 CURVE SMOOTH",
"1054 236 OFFCURVE",
"838 32 OFFCURVE",
"588 32 CURVE SMOOTH",
"330 32 OFFCURVE",
"184 244 OFFCURVE",
"184 500 CURVE SMOOTH",
"184 760 OFFCURVE",
"334 966 OFFCURVE",
"588 966 CURVE SMOOTH"
);
}
);
width = 1194;
}
);
leftKerningGroup = p;
rightKerningGroup = o;
unicode = 0070;
},
{
glyphname = thorn;
lastChange = "2020-01-27 03:55:58 +0000";
layers = (
{
layerId = "10BC12B3-5274-42E3-B5BC-F74F362F0DF4";
paths = (
{
closed = 1;
nodes = (
"420 -500 LINE",
"420 92 LINE",
"482 22 OFFCURVE",
"564 -28 OFFCURVE",
"672 -28 CURVE SMOOTH",
"964 -28 OFFCURVE",
"1198 208 OFFCURVE",
"1198 500 CURVE SMOOTH",
"1198 790 OFFCURVE",
"964 1026 OFFCURVE",
"672 1026 CURVE SMOOTH",
"564 1026 OFFCURVE",
"482 976 OFFCURVE",
"420 906 CURVE",
"420 1400 LINE",
"120 1400 LINE",
"120 -500 LINE"
);
},
{
closed = 1;
nodes = (
"546 262 OFFCURVE",
"446 368 OFFCURVE",
"446 500 CURVE SMOOTH",
"446 630 OFFCURVE",
"546 738 OFFCURVE",
"668 738 CURVE SMOOTH",
"792 738 OFFCURVE",
"892 630 OFFCURVE",
"892 500 CURVE SMOOTH",
"892 368 OFFCURVE",
"792 262 OFFCURVE",
"668 262 CURVE SMOOTH"
);
}
);
width = 1278;
},
{
layerId = "9AF1F7D9-E035-453E-B2A8-46DE370997D0";
paths = (
{
closed = 1;
nodes = (
"180 -500 LINE",
"180 232 LINE",
"252 76 OFFCURVE",
"394 -28 OFFCURVE",
"588 -28 CURVE SMOOTH",
"878 -28 OFFCURVE",
"1114 208 OFFCURVE",
"1114 500 CURVE SMOOTH",
"1114 790 OFFCURVE",
"878 1026 OFFCURVE",
"588 1026 CURVE SMOOTH",
"394 1026 OFFCURVE",
"252 922 OFFCURVE",
"180 766 CURVE",
"180 1400 LINE",
"120 1400 LINE",
"120 -500 LINE"
);
},
{
closed = 1;
nodes = (
"330 32 OFFCURVE",
"184 244 OFFCURVE",
"184 500 CURVE SMOOTH",
"184 760 OFFCURVE",
"334 966 OFFCURVE",
"588 966 CURVE SMOOTH",
"846 966 OFFCURVE",
"1054 756 OFFCURVE",
"1054 500 CURVE SMOOTH",
"1054 236 OFFCURVE",
"838 32 OFFCURVE",
"588 32 CURVE SMOOTH"
);
}
);
width = 1194;
}
);
leftKerningGroup = h;
rightKerningGroup = o;
unicode = 00FE;
},
{
glyphname = q;
lastChange = "2020-01-27 03:55:58 +0000";
layers = (
{
layerId = "10BC12B3-5274-42E3-B5BC-F74F362F0DF4";
paths = (
{
closed = 1;
nodes = (
"714 -28 OFFCURVE",
"796 22 OFFCURVE",
"858 92 CURVE",
"858 -500 LINE",
"1158 -500 LINE",
"1158 1000 LINE",
"858 1000 LINE",
"858 906 LINE",
"796 976 OFFCURVE",
"714 1026 OFFCURVE",
"606 1026 CURVE",
"316 1026 OFFCURVE",
"80 790 OFFCURVE",
"80 500 CURVE",
"80 208 OFFCURVE",
"316 -28 OFFCURVE",
"606 -28 CURVE"
);
},
{
closed = 1;
nodes = (
"734 738 OFFCURVE",
"832 630 OFFCURVE",
"832 500 CURVE",
"832 368 OFFCURVE",
"734 262 OFFCURVE",
"610 262 CURVE",
"486 262 OFFCURVE",
"388 368 OFFCURVE",
"388 500 CURVE",
"388 630 OFFCURVE",
"486 738 OFFCURVE",
"610 738 CURVE"
);
}
);
width = 1278;
},
{
layerId = "9AF1F7D9-E035-453E-B2A8-46DE370997D0";
paths = (
{
closed = 1;
nodes = (
"800 -28 OFFCURVE",
"942 76 OFFCURVE",
"1014 232 CURVE",
"1014 -500 LINE",
"1074 -500 LINE",
"1074 1000 LINE",
"1014 1000 LINE",
"1014 766 LINE",
"942 922 OFFCURVE",
"800 1026 OFFCURVE",
"606 1026 CURVE",
"316 1026 OFFCURVE",
"80 790 OFFCURVE",
"80 500 CURVE",
"80 208 OFFCURVE",
"316 -28 OFFCURVE",
"606 -28 CURVE"
);
},
{
closed = 1;
nodes = (
"860 966 OFFCURVE",
"1010 760 OFFCURVE",
"1010 500 CURVE",
"1010 244 OFFCURVE",
"864 32 OFFCURVE",
"606 32 CURVE",
"356 32 OFFCURVE",
"140 236 OFFCURVE",
"140 500 CURVE",
"140 756 OFFCURVE",
"348 966 OFFCURVE",
"606 966 CURVE"
);
}
);
width = 1194;
}
);
leftKerningGroup = "2";
rightKerningGroup = q;
unicode = 0071;
},
{
glyphname = r;
lastChange = "2020-01-28 10:31:49 +0000";
layers = (
{
layerId = "10BC12B3-5274-42E3-B5BC-F74F362F0DF4";
paths = (
{
closed = 1;
nodes = (
"802 1014 LINE",
"762 1026 OFFCURVE",
"718 1026 OFFCURVE",
"672 1026 CURVE SMOOTH",
"564 1026 OFFCURVE",
"482 978 OFFCURVE",
"420 908 CURVE",
"420 998 LINE",
"120 998 LINE",
"120 0 LINE",
"422 0 LINE",
"422 500 LINE SMOOTH",
"422 632 OFFCURVE",
"488 738 OFFCURVE",
"618 738 CURVE SMOOTH",
"672 738 OFFCURVE",
"718 720 OFFCURVE",
"754 692 CURVE"
);
}
);
width = 882;
},
{
layerId = "9AF1F7D9-E035-453E-B2A8-46DE370997D0";
paths = (
{
closed = 1;
nodes = (
"652 1010 LINE",
"618 1022 OFFCURVE",
"580 1028 OFFCURVE",
"540 1028 CURVE",
"392 1028 OFFCURVE",
"262 942 OFFCURVE",
"180 796 CURVE",
"180 1000 LINE",
"120 1000 LINE",
"120 0 LINE",
"180 0 LINE",
"180 550 LINE",
"180 780 OFFCURVE",
"342 968 OFFCURVE",
"540 968 CURVE",
"576 968 OFFCURVE",
"610 962 OFFCURVE",
"642 950 CURVE"
);
}
);
width = 732;
}
);
leftKerningGroup = n;
rightKerningGroup = r;
unicode = 0072;
},
{
glyphname = s;
lastChange = "2020-01-27 22:45:31 +0000";
layers = (
{
layerId = "10BC12B3-5274-42E3-B5BC-F74F362F0DF4";
paths = (
{
closed = 1;
nodes = (
"630 -38 OFFCURVE",
"834 102 OFFCURVE",
"834 302 CURVE SMOOTH",
"840 474 OFFCURVE",
"678 578 OFFCURVE",
"506 634 CURVE SMOOTH",
"462 648 OFFCURVE",
"358 650 OFFCURVE",
"358 708 CURVE SMOOTH",
"358 770 OFFCURVE",
"410 786 OFFCURVE",
"480 780 CURVE SMOOTH",
"532 774 OFFCURVE",
"574 738 OFFCURVE",
"598 708 CURVE",
"834 848 LINE",
"748 968 OFFCURVE",
"610 1034 OFFCURVE",
"454 1034 CURVE SMOOTH",
"256 1034 OFFCURVE",
"78 906 OFFCURVE",
"78 700 CURVE SMOOTH",
"78 516 OFFCURVE",
"256 400 OFFCURVE",
"434 372 CURVE SMOOTH",
"484 364 OFFCURVE",
"558 354 OFFCURVE",
"558 298 CURVE SMOOTH",
"558 248 OFFCURVE",
"504 234 OFFCURVE",
"452 234 CURVE SMOOTH",
"374 234 OFFCURVE",
"332 282 OFFCURVE",
"312 304 CURVE",
"60 196 LINE",
"124 66 OFFCURVE",
"266 -4 OFFCURVE",
"418 -18 CURVE SMOOTH"
);
}
);
width = 894;
},
{
layerId = "9AF1F7D9-E035-453E-B2A8-46DE370997D0";
paths = (
{
closed = 1;
nodes = (
"666 -20 OFFCURVE",
"838 88 OFFCURVE",
"838 258 CURVE",
"838 424 OFFCURVE",
"668 478 OFFCURVE",
"480 538 CURVE SMOOTH",
"290 598 OFFCURVE",
"180 618 OFFCURVE",
"180 756 CURVE",
"180 890 OFFCURVE",
"322 974 OFFCURVE",
"480 974 CURVE",
"606 974 OFFCURVE",
"748 912 OFFCURVE",
"790 806 CURVE",
"842 836 LINE",
"794 952 OFFCURVE",
"646 1034 OFFCURVE",
"480 1034 CURVE",
"292 1034 OFFCURVE",
"120 926 OFFCURVE",
"120 756 CURVE",
"120 590 OFFCURVE",
"250 550 OFFCURVE",
"480 478 CURVE SMOOTH",
"628 432 OFFCURVE",
"778 394 OFFCURVE",
"778 258 CURVE",
"778 128 OFFCURVE",
"636 40 OFFCURVE",
"480 40 CURVE",
"354 40 OFFCURVE",
"184 112 OFFCURVE",
"146 220 CURVE",
"90 196 LINE",
"132 76 OFFCURVE",
"308 -20 OFFCURVE",
"480 -20 CURVE"
);
}
);
width = 932;
}
);
leftKerningGroup = "1";
rightKerningGroup = s;
unicode = 0073;
},
{
glyphname = germandbls;
lastChange = "2020-01-27 03:55:58 +0000";
layers = (
{
layerId = "10BC12B3-5274-42E3-B5BC-F74F362F0DF4";
paths = (
{
closed = 1;
nodes = (
"420 0 LINE",
"420 950 LINE SMOOTH",
"420 1058 OFFCURVE",
"506 1144 OFFCURVE",
"614 1144 CURVE SMOOTH",
"694 1144 OFFCURVE",
"760 1076 OFFCURVE",
"760 994 CURVE SMOOTH",
"760 912 OFFCURVE",
"694 858 OFFCURVE",
"614 844 CURVE SMOOTH",
"590 840 LINE",
"590 598 LINE",
"672 594 LINE SMOOTH",
"776 588 OFFCURVE",
"860 516 OFFCURVE",
"860 424 CURVE SMOOTH",
"860 332 OFFCURVE",
"776 254 OFFCURVE",
"672 254 CURVE SMOOTH",
"590 254 LINE",
"630 0 LINE",
"704 0 LINE SMOOTH",
"936 0 OFFCURVE",
"1126 170 OFFCURVE",
"1126 402 CURVE SMOOTH",
"1126 526 OFFCURVE",
"1108 710 OFFCURVE",
"930 734 CURVE",
"1034 782 OFFCURVE",
"1060 906 OFFCURVE",
"1060 994 CURVE SMOOTH",
"1060 1228 OFFCURVE",
"880 1400 OFFCURVE",
"650 1400 CURVE SMOOTH",
"356 1400 OFFCURVE",
"120 1162 OFFCURVE",
"120 870 CURVE SMOOTH",
"120 0 LINE"
);
}
);
width = 1186;
},
{
layerId = "9AF1F7D9-E035-453E-B2A8-46DE370997D0";
paths = (
{
closed = 1;
nodes = (
"180 0 LINE",
"180 994 LINE SMOOTH",
"180 1184 OFFCURVE",
"334 1338 OFFCURVE",
"524 1338 CURVE SMOOTH",
"682 1338 OFFCURVE",
"812 1200 OFFCURVE",
"812 1030 CURVE SMOOTH",
"812 860 OFFCURVE",
"682 722 OFFCURVE",
"524 722 CURVE SMOOTH",
"496 722 LINE",
"496 662 LINE",
"590 662 LINE SMOOTH",
"756 662 OFFCURVE",
"890 528 OFFCURVE",
"890 362 CURVE SMOOTH",
"890 196 OFFCURVE",
"756 60 OFFCURVE",
"590 60 CURVE SMOOTH",
"496 60 LINE",
"516 0 LINE",
"590 0 LINE SMOOTH",
"788 0 OFFCURVE",
"950 162 OFFCURVE",
"950 362 CURVE SMOOTH",
"950 526 OFFCURVE",
"842 664 OFFCURVE",
"692 708 CURVE",
"798 770 OFFCURVE",
"872 892 OFFCURVE",
"872 1030 CURVE SMOOTH",
"872 1232 OFFCURVE",
"716 1398 OFFCURVE",
"524 1398 CURVE SMOOTH",
"300 1398 OFFCURVE",
"120 1216 OFFCURVE",
"120 994 CURVE SMOOTH",
"120 0 LINE"
);
}
);
width = 1010;
}
);
leftKerningGroup = h;
rightKerningGroup = germandbls;
unicode = 00DF;
},
{
glyphname = t;
lastChange = "2020-01-28 10:32:01 +0000";
layers = (
{
layerId = "10BC12B3-5274-42E3-B5BC-F74F362F0DF4";
paths = (
{
closed = 1;
nodes = (
"670 1000 LINE",
"500 1000 LINE",
"500 1314 LINE",
"200 1314 LINE",
"200 1000 LINE",
"70 1000 LINE",
"70 700 LINE",
"200 700 LINE",
"200 0 LINE",
"500 0 LINE",
"500 700 LINE",
"670 700 LINE"
);
}
);
width = 730;
},
{
layerId = "9AF1F7D9-E035-453E-B2A8-46DE370997D0";
paths = (
{
closed = 1;
nodes = (
"630 1000 LINE",
"356 1000 LINE",
"356 1314 LINE",
"296 1314 LINE",
"296 1000 LINE",
"90 1000 LINE",
"90 940 LINE",
"296 940 LINE",
"296 0 LINE",
"356 0 LINE",
"356 940 LINE",
"630 940 LINE"
);
}
);
width = 740;
}
);
leftKerningGroup = t;
rightKerningGroup = t;
unicode = 0074;
},
{
glyphname = u;
lastChange = "2020-01-28 06:44:46 +0000";
layers = (
{
layerId = "10BC12B3-5274-42E3-B5BC-F74F362F0DF4";
paths = (
{
closed = 1;
nodes = (
"92 206 OFFCURVE",
"266 -28 OFFCURVE",
"554 -28 CURVE",
"662 -28 OFFCURVE",
"744 22 OFFCURVE",
"806 92 CURVE",
"806 0 LINE",
"1106 0 LINE",
"1106 1000 LINE",
"806 1000 LINE",
"806 500 LINE",
"806 368 OFFCURVE",
"738 262 OFFCURVE",
"608 262 CURVE",
"476 262 OFFCURVE",
"390 368 OFFCURVE",
"390 500 CURVE",
"390 1000 LINE",
"90 1000 LINE",
"90 496 LINE"
);
}
);
width = 1226;
},
{
layerId = "9AF1F7D9-E035-453E-B2A8-46DE370997D0";
paths = (
{
closed = 1;
nodes = (
"94 196 OFFCURVE",
"270 -26 OFFCURVE",
"510 -26 CURVE",
"658 -26 OFFCURVE",
"786 60 OFFCURVE",
"868 206 CURVE",
"868 0 LINE",
"928 0 LINE",
"928 1000 LINE",
"868 1000 LINE",
"868 452 LINE",
"868 222 OFFCURVE",
"706 34 OFFCURVE",
"510 34 CURVE",
"312 34 OFFCURVE",
"150 222 OFFCURVE",
"150 452 CURVE",
"150 1000 LINE",
"90 1000 LINE",
"90 448 LINE"
);
}
);
width = 1048;
}
);
leftKerningGroup = u;
rightKerningGroup = u;
unicode = 0075;
},
{
glyphname = v;
lastChange = "2020-01-28 06:46:24 +0000";
layers = (
{
layerId = "10BC12B3-5274-42E3-B5BC-F74F362F0DF4";
paths = (
{
closed = 1;
nodes = (
"1176 1000 LINE",
"856 1000 LINE",
"618 344 LINE",
"380 1000 LINE",
"60 1000 LINE",
"424 0 LINE",
"812 0 LINE"
);
}
);
width = 1236;
},
{
layerId = "9AF1F7D9-E035-453E-B2A8-46DE370997D0";
paths = (
{
closed = 1;
nodes = (
"904 1004 LINE",
"840 1004 LINE",
"502 74 LINE",
"164 1004 LINE",
"100 1004 LINE",
"466 0 LINE",
"538 0 LINE"
);
}
);
width = 1004;
}
);
leftKerningGroup = v;
rightKerningGroup = v;
unicode = 0076;
},
{
glyphname = w;
lastChange = "2020-01-27 22:39:16 +0000";
layers = (
{
layerId = "10BC12B3-5274-42E3-B5BC-F74F362F0DF4";
paths = (
{
closed = 1;
nodes = (
"874 562 LINE",
"1060 0 LINE",
"1354 0 LINE",
"1688 1000 LINE",
"1394 1000 LINE",
"1206 438 LINE",
"1020 1000 LINE",
"728 1000 LINE",
"542 438 LINE",
"354 1000 LINE",
"60 1000 LINE",
"394 0 LINE",
"688 0 LINE"
);
}
);
width = 1748;
},
{
layerId = "9AF1F7D9-E035-453E-B2A8-46DE370997D0";
paths = (
{
closed = 1;
nodes = (
"780 940 LINE",
"1098 0 LINE",
"1168 0 LINE",
"1504 1002 LINE",
"1444 1002 LINE",
"1132 72 LINE",
"820 1002 LINE",
"744 1002 LINE",
"432 72 LINE",
"118 1002 LINE",
"60 1002 LINE",
"396 0 LINE",
"464 0 LINE"
);
}
);
width = 1564;
}
);
leftKerningGroup = "2";
rightKerningGroup = w;
unicode = 0077;
},
{
glyphname = x;
lastChange = "2020-01-27 03:55:58 +0000";
layers = (
{
layerId = "10BC12B3-5274-42E3-B5BC-F74F362F0DF4";
paths = (
{
closed = 1;
nodes = (
"410 0 LINE",
"590 248 LINE",
"772 0 LINE",
"1142 0 LINE",
"776 502 LINE",
"1138 1000 LINE",
"768 1000 LINE",
"590 758 LINE",
"414 1000 LINE",
"44 1000 LINE",
"406 502 LINE",
"40 0 LINE"
);
}
);
width = 1182;
},
{
layerId = "9AF1F7D9-E035-453E-B2A8-46DE370997D0";
paths = (
{
closed = 1;
nodes = (
"114 0 LINE",
"444 452 LINE",
"772 0 LINE",
"846 0 LINE",
"480 502 LINE",
"846 1004 LINE",
"772 1004 LINE",
"444 554 LINE",
"114 1004 LINE",
"40 1004 LINE",
"406 502 LINE",
"40 0 LINE"
);
}
);
width = 886;
}
);
leftKerningGroup = "2";
rightKerningGroup = x;
unicode = 0078;
},
{
glyphname = y;
lastChange = "2020-01-28 10:31:04 +0000";
layers = (
{
layerId = "10BC12B3-5274-42E3-B5BC-F74F362F0DF4";
paths = (
{
closed = 1;
nodes = (
"640 410 LINE",
"458 1000 LINE",
"130 1000 LINE",
"490 0 LINE",
"310 -500 LINE",
"628 -500 LINE",
"1176 1000 LINE",
"856 1000 LINE"
);
}
);
width = 1256;
},
{
layerId = "9AF1F7D9-E035-453E-B2A8-46DE370997D0";
paths = (
{
closed = 1;
nodes = (
"468 84 LINE",
"146 1000 LINE",
"80 1000 LINE",
"438 2 LINE",
"256 -500 LINE",
"320 -500 LINE",
"866 1000 LINE",
"804 1000 LINE"
);
}
);
width = 946;
}
);
leftKerningGroup = y;
rightKerningGroup = y;
unicode = 0079;
},
{
glyphname = z;
lastChange = "2020-01-27 03:55:58 +0000";
layers = (
{
background = {
paths = (
{
closed = 1;
nodes = (
"934 1000 LINE",
"80 1000 LINE",
"80 700 LINE",
"500 700 LINE",
"80 300 LINE",
"80 0 LINE",
"934 0 LINE",
"934 300 LINE",
"514 300 LINE",
"934 700 LINE"
);
}
);
};
layerId = "10BC12B3-5274-42E3-B5BC-F74F362F0DF4";
paths = (
{
closed = 1;
nodes = (
"934 1000 LINE",
"80 1000 LINE",
"80 700 LINE",
"500 700 LINE",
"80 300 LINE",
"80 0 LINE",
"934 0 LINE",
"934 300 LINE",
"514 300 LINE",
"934 700 LINE"
);
}
);
width = 1014;
},
{
layerId = "9AF1F7D9-E035-453E-B2A8-46DE370997D0";
paths = (
{
closed = 1;
nodes = (
"954 1000 LINE",
"100 1000 LINE",
"100 940 LINE",
"874 940 LINE",
"100 60 LINE",
"100 0 LINE",
"954 0 LINE",
"954 60 LINE",
"180 60 LINE",
"954 940 LINE"
);
}
);
width = 1054;
}
);
leftKerningGroup = z;
rightKerningGroup = z;
unicode = 007A;
},
{
glyphname = mu;
lastChange = "2020-01-27 22:49:58 +0000";
layers = (
{
layerId = "10BC12B3-5274-42E3-B5BC-F74F362F0DF4";
paths = (
{
closed = 1;
nodes = (
"380 -432 LINE",
"380 0 LINE",
"430 -18 OFFCURVE",
"484 -28 OFFCURVE",
"544 -28 CURVE SMOOTH",
"652 -28 OFFCURVE",
"734 22 OFFCURVE",
"796 92 CURVE",
"796 0 LINE",
"1096 0 LINE",
"1096 1000 LINE",
"796 1000 LINE",
"796 500 LINE SMOOTH",
"796 368 OFFCURVE",
"728 262 OFFCURVE",
"598 262 CURVE SMOOTH",
"466 262 OFFCURVE",
"380 368 OFFCURVE",
"380 500 CURVE SMOOTH",
"380 1000 LINE",
"80 1000 LINE",
"80 -432 LINE"
);
}
);
width = 1176;
},
{
layerId = "9AF1F7D9-E035-453E-B2A8-46DE370997D0";
paths = (
{
closed = 1;
nodes = (
"140 -432 LINE",
"140 208 LINE",
"212 70 OFFCURVE",
"342 -26 OFFCURVE",
"500 -26 CURVE SMOOTH",
"648 -26 OFFCURVE",
"776 60 OFFCURVE",
"858 206 CURVE",
"858 0 LINE",
"918 0 LINE",
"918 1000 LINE",
"858 1000 LINE",
"858 452 LINE SMOOTH",
"858 222 OFFCURVE",
"696 34 OFFCURVE",
"500 34 CURVE SMOOTH",
"302 34 OFFCURVE",
"140 222 OFFCURVE",
"140 452 CURVE SMOOTH",
"140 1000 LINE",
"80 1000 LINE",
"80 -432 LINE"
);
}
);
width = 998;
}
);
leftKerningGroup = p;
rightKerningGroup = u;
unicode = 03BC;
},
{
glyphname = zero;
lastChange = "2020-01-27 03:55:58 +0000";
layers = (
{
layerId = "10BC12B3-5274-42E3-B5BC-F74F362F0DF4";
paths = (
{
closed = 1;
nodes = (
"930 -26 OFFCURVE",
"1158 300 OFFCURVE",
"1158 700 CURVE SMOOTH",
"1158 1100 OFFCURVE",
"930 1426 OFFCURVE",
"610 1426 CURVE SMOOTH",
"290 1426 OFFCURVE",
"60 1100 OFFCURVE",
"60 700 CURVE SMOOTH",
"60 300 OFFCURVE",
"290 -26 OFFCURVE",
"610 -26 CURVE SMOOTH"
);
},
{
closed = 1;
nodes = (
"426 274 OFFCURVE",
"340 484 OFFCURVE",
"340 700 CURVE SMOOTH",
"340 918 OFFCURVE",
"424 1126 OFFCURVE",
"610 1126 CURVE SMOOTH",
"788 1126 OFFCURVE",
"878 930 OFFCURVE",
"878 700 CURVE SMOOTH",
"878 482 OFFCURVE",
"796 274 OFFCURVE",
"610 274 CURVE SMOOTH"
);
}
);
width = 1218;
},
{
layerId = "9AF1F7D9-E035-453E-B2A8-46DE370997D0";
paths = (
{
closed = 1;
nodes = (
"930 -26 OFFCURVE",
"1118 300 OFFCURVE",
"1118 700 CURVE SMOOTH",
"1118 1102 OFFCURVE",
"930 1426 OFFCURVE",
"590 1426 CURVE SMOOTH",
"248 1426 OFFCURVE",
"60 1102 OFFCURVE",
"60 700 CURVE SMOOTH",
"60 300 OFFCURVE",
"248 -26 OFFCURVE",
"590 -26 CURVE SMOOTH"
);
},
{
closed = 1;
nodes = (
"286 34 OFFCURVE",
"120 332 OFFCURVE",
"120 700 CURVE SMOOTH",
"120 1058 OFFCURVE",
"276 1366 OFFCURVE",
"590 1366 CURVE SMOOTH",
"888 1366 OFFCURVE",
"1058 1082 OFFCURVE",
"1058 700 CURVE SMOOTH",
"1058 336 OFFCURVE",
"894 34 OFFCURVE",
"590 34 CURVE SMOOTH"
);
}
);
width = 1178;
}
);
leftKerningGroup = zero;
rightKerningGroup = zero;
unicode = 0030;
},
{
glyphname = one;
lastChange = "2020-01-27 03:55:58 +0000";
layers = (
{
layerId = "10BC12B3-5274-42E3-B5BC-F74F362F0DF4";
paths = (
{
closed = 1;
nodes = (
"570 0 LINE",
"570 1400 LINE",
"160 1400 LINE",
"80 1100 LINE",
"270 1100 LINE",
"270 0 LINE"
);
}
);
width = 690;
},
{
layerId = "9AF1F7D9-E035-453E-B2A8-46DE370997D0";
paths = (
{
closed = 1;
nodes = (
"270 0 LINE",
"270 1400 LINE",
"100 1400 LINE",
"80 1340 LINE",
"210 1340 LINE",
"210 0 LINE"
);
}
);
width = 390;
}
);
leftKerningGroup = one;
rightKerningGroup = one;
unicode = 0031;
},
{
glyphname = two;
lastChange = "2020-01-27 22:42:11 +0000";
layers = (
{
hints = (
{
horizontal = 1;
origin = "{0, 22}";
target = "{0, 2}";
type = Stem;
},
{
horizontal = 1;
origin = "{0, 15}";
target = "{0, 8}";
type = Stem;
},
{
origin = "{0, 11}";
target = "{0, 12}";
type = Stem;
},
{
origin = "{0, 18}";
target = "{0, 0}";
type = Stem;
}
);
layerId = "10BC12B3-5274-42E3-B5BC-F74F362F0DF4";
paths = (
{
closed = 1;
nodes = (
"1052 0 LINE",
"1052 300 LINE",
"632 300 LINE",
"900 560 OFFCURVE",
"1052 718 OFFCURVE",
"1052 940 CURVE SMOOTH",
"1052 1210 OFFCURVE",
"834 1426 OFFCURVE",
"568 1426 CURVE SMOOTH",
"306 1426 OFFCURVE",
"82 1216 OFFCURVE",
"82 940 CURVE",
"382 940 LINE",
"382 1042 OFFCURVE",
"466 1126 OFFCURVE",
"568 1126 CURVE SMOOTH",
"670 1126 OFFCURVE",
"752 1042 OFFCURVE",
"752 940 CURVE SMOOTH",
"752 772 OFFCURVE",
"266 384 OFFCURVE",
"80 268 CURVE",
"80 0 LINE"
);
}
);
width = 1172;
},
{
hints = (
{
horizontal = 1;
origin = "{0, 22}";
target = "{0, 2}";
type = Stem;
},
{
horizontal = 1;
origin = "{0, 15}";
target = "{0, 8}";
type = Stem;
},
{
origin = "{0, 11}";
target = "{0, 12}";
type = Stem;
},
{
origin = "{0, 18}";
target = "{0, 5}";
type = Stem;
}
);
layerId = "9AF1F7D9-E035-453E-B2A8-46DE370997D0";
paths = (
{
closed = 1;
nodes = (
"928 0 LINE",
"928 60 LINE",
"178 60 LINE",
"454 314 OFFCURVE",
"896 780 OFFCURVE",
"896 1026 CURVE SMOOTH",
"896 1246 OFFCURVE",
"718 1426 OFFCURVE",
"500 1426 CURVE SMOOTH",
"280 1426 OFFCURVE",
"102 1246 OFFCURVE",
"102 1026 CURVE",
"162 1026 LINE",
"162 1212 OFFCURVE",
"314 1366 OFFCURVE",
"500 1366 CURVE SMOOTH",
"686 1366 OFFCURVE",
"836 1212 OFFCURVE",
"836 1026 CURVE SMOOTH",
"836 782 OFFCURVE",
"400 372 OFFCURVE",
"80 52 CURVE",
"80 0 LINE"
);
}
);
width = 1048;
}
);
leftKerningGroup = two;
rightKerningGroup = two;
unicode = 0032;
},
{
glyphname = three;
lastChange = "2020-01-27 03:55:58 +0000";
layers = (
{
hints = (
{
horizontal = 1;
origin = "{0, 38}";
target = "{0, 31}";
type = Stem;
},
{
horizontal = 1;
origin = "{0, 25}";
target = "{0, 24}";
type = Stem;
},
{
horizontal = 1;
origin = "{0, 18}";
target = "{0, 11}";
type = Stem;
},
{
origin = "{0, 35}";
target = "{0, 34}";
type = Stem;
},
{
origin = "{0, 28}";
target = "{0, 2}";
type = Stem;
},
{
origin = "{0, 14}";
target = "{0, 15}";
type = Stem;
},
{
origin = "{0, 21}";
target = "{0, 8}";
type = Stem;
}
);
layerId = "10BC12B3-5274-42E3-B5BC-F74F362F0DF4";
paths = (
{
closed = 1;
nodes = (
"776 -26 OFFCURVE",
"984 182 OFFCURVE",
"984 436 CURVE SMOOTH",
"984 556 OFFCURVE",
"930 704 OFFCURVE",
"826 744 CURVE",
"906 786 OFFCURVE",
"946 902 OFFCURVE",
"946 996 CURVE SMOOTH",
"946 1236 OFFCURVE",
"746 1428 OFFCURVE",
"512 1428 CURVE SMOOTH",
"274 1428 OFFCURVE",
"60 1234 OFFCURVE",
"60 996 CURVE",
"360 996 LINE",
"360 1068 OFFCURVE",
"442 1128 OFFCURVE",
"516 1128 CURVE SMOOTH",
"588 1128 OFFCURVE",
"646 1068 OFFCURVE",
"646 996 CURVE SMOOTH",
"646 896 OFFCURVE",
"556 846 OFFCURVE",
"410 846 CURVE",
"410 618 LINE",
"576 618 OFFCURVE",
"684 558 OFFCURVE",
"684 436 CURVE SMOOTH",
"684 348 OFFCURVE",
"610 274 OFFCURVE",
"522 274 CURVE SMOOTH",
"434 274 OFFCURVE",
"360 348 OFFCURVE",
"360 436 CURVE",
"60 436 LINE",
"60 180 OFFCURVE",
"270 -26 OFFCURVE",
"522 -26 CURVE SMOOTH"
);
}
);
width = 1044;
},
{
background = {
paths = (
{
closed = 1;
nodes = (
"908 708 OFFCURVE",
"822 746 CURVE",
"906 804 OFFCURVE",
"942 902 OFFCURVE",
"942 1000 CURVE",
"942 1248 OFFCURVE",
"742 1424 OFFCURVE",
"498 1424 CURVE",
"252 1424 OFFCURVE",
"54 1246 OFFCURVE",
"54 1000 CURVE",
"354 1000 LINE",
"354 1080 OFFCURVE",
"418 1144 OFFCURVE",
"498 1144 CURVE",
"576 1144 OFFCURVE",
"642 1080 OFFCURVE",
"642 1000 CURVE",
"642 936 OFFCURVE",
"568 830 OFFCURVE",
"390 830 CURVE",
"390 648 LINE",
"618 648 OFFCURVE",
"678 530 OFFCURVE",
"678 446 CURVE",
"678 352 OFFCURVE",
"600 274 OFFCURVE",
"504 274 CURVE",
"410 274 OFFCURVE",
"332 352 OFFCURVE",
"332 446 CURVE",
"32 446 LINE",
"32 184 OFFCURVE",
"244 -26 OFFCURVE",
"504 -26 CURVE",
"764 -26 OFFCURVE",
"978 186 OFFCURVE",
"978 446 CURVE",
"978 560 OFFCURVE"
);
}
);
};
layerId = "9AF1F7D9-E035-453E-B2A8-46DE370997D0";
paths = (
{
closed = 1;
nodes = (
"694 -26 OFFCURVE",
"892 152 OFFCURVE",
"892 370 CURVE SMOOTH",
"892 546 OFFCURVE",
"796 678 OFFCURVE",
"614 738 CURVE",
"754 784 OFFCURVE",
"848 906 OFFCURVE",
"848 1066 CURVE SMOOTH",
"848 1264 OFFCURVE",
"666 1426 OFFCURVE",
"468 1426 CURVE SMOOTH",
"268 1426 OFFCURVE",
"86 1264 OFFCURVE",
"86 1066 CURVE",
"146 1066 LINE",
"146 1230 OFFCURVE",
"302 1366 OFFCURVE",
"468 1366 CURVE SMOOTH",
"632 1366 OFFCURVE",
"788 1230 OFFCURVE",
"788 1066 CURVE SMOOTH",
"788 870 OFFCURVE",
"636 766 OFFCURVE",
"412 766 CURVE",
"412 706 LINE",
"652 706 OFFCURVE",
"832 594 OFFCURVE",
"832 370 CURVE SMOOTH",
"832 184 OFFCURVE",
"660 34 OFFCURVE",
"476 34 CURVE SMOOTH",
"250 34 OFFCURVE",
"120 184 OFFCURVE",
"120 370 CURVE",
"60 370 LINE",
"60 152 OFFCURVE",
"218 -26 OFFCURVE",
"476 -26 CURVE SMOOTH"
);
}
);
width = 952;
}
);
leftKerningGroup = three;
rightKerningGroup = three;
unicode = 0033;
},
{
glyphname = four;
lastChange = "2020-01-27 22:42:27 +0000";
layers = (
{
layerId = "10BC12B3-5274-42E3-B5BC-F74F362F0DF4";
paths = (
{
closed = 1;
nodes = (
"972 0 LINE",
"972 310 LINE",
"1074 310 LINE",
"1074 610 LINE",
"972 610 LINE",
"972 1400 LINE",
"604 1400 LINE",
"80 610 LINE",
"80 310 LINE",
"672 310 LINE",
"672 0 LINE"
);
},
{
closed = 1;
nodes = (
"672 996 LINE",
"672 610 LINE",
"426 610 LINE"
);
}
);
width = 1194;
},
{
layerId = "9AF1F7D9-E035-453E-B2A8-46DE370997D0";
paths = (
{
closed = 1;
nodes = (
"760 0 LINE",
"760 434 LINE",
"930 434 LINE",
"930 494 LINE",
"760 494 LINE",
"760 1400 LINE",
"680 1400 LINE",
"90 498 LINE",
"90 434 LINE",
"700 434 LINE",
"700 0 LINE"
);
},
{
closed = 1;
nodes = (
"696 1302 LINE",
"700 494 LINE",
"166 498 LINE"
);
}
);
width = 1050;
}
);
leftKerningGroup = four;
rightKerningGroup = four;
unicode = 0034;
},
{
glyphname = five;
lastChange = "2020-01-27 03:55:58 +0000";
layers = (
{
layerId = "10BC12B3-5274-42E3-B5BC-F74F362F0DF4";
paths = (
{
closed = 1;
nodes = (
"834 -26 OFFCURVE",
"1052 196 OFFCURVE",
"1052 464 CURVE SMOOTH",
"1052 732 OFFCURVE",
"852 946 OFFCURVE",
"568 958 CURVE",
"504 960 LINE",
"534 1100 LINE",
"996 1100 LINE",
"996 1400 LINE",
"290 1400 LINE",
"134 660 LINE",
"504 660 LINE SMOOTH",
"704 660 OFFCURVE",
"752 570 OFFCURVE",
"752 464 CURVE SMOOTH",
"752 358 OFFCURVE",
"666 274 OFFCURVE",
"562 274 CURVE SMOOTH",
"456 274 OFFCURVE",
"370 358 OFFCURVE",
"370 464 CURVE",
"70 464 LINE",
"70 200 OFFCURVE",
"284 -26 OFFCURVE",
"562 -26 CURVE SMOOTH"
);
}
);
width = 1172;
},
{
layerId = "9AF1F7D9-E035-453E-B2A8-46DE370997D0";
paths = (
{
closed = 1;
nodes = (
"754 -26 OFFCURVE",
"954 172 OFFCURVE",
"954 416 CURVE SMOOTH",
"954 682 OFFCURVE",
"758 858 OFFCURVE",
"472 858 CURVE SMOOTH",
"260 858 LINE",
"354 1340 LINE",
"936 1340 LINE",
"936 1400 LINE",
"306 1400 LINE",
"186 798 LINE",
"512 798 LINE SMOOTH",
"722 798 OFFCURVE",
"894 626 OFFCURVE",
"894 416 CURVE SMOOTH",
"894 206 OFFCURVE",
"722 34 OFFCURVE",
"512 34 CURVE SMOOTH",
"300 34 OFFCURVE",
"130 206 OFFCURVE",
"130 416 CURVE",
"70 416 LINE",
"70 172 OFFCURVE",
"266 -26 OFFCURVE",
"512 -26 CURVE SMOOTH"
);
}
);
width = 1074;
}
);
leftKerningGroup = five;
rightKerningGroup = five;
unicode = 0035;
},
{
glyphname = six;
lastChange = "2020-01-27 03:55:58 +0000";
layers = (
{
layerId = "10BC12B3-5274-42E3-B5BC-F74F362F0DF4";
paths = (
{
closed = 1;
nodes = (
"856 -26 OFFCURVE",
"1080 200 OFFCURVE",
"1080 474 CURVE SMOOTH",
"1080 730 OFFCURVE",
"890 942 OFFCURVE",
"636 972 CURVE",
"884 1400 LINE",
"536 1400 LINE",
"146 724 LINE SMOOTH",
"100 646 OFFCURVE",
"80 560 OFFCURVE",
"80 474 CURVE SMOOTH",
"80 198 OFFCURVE",
"306 -26 OFFCURVE",
"578 -26 CURVE SMOOTH"
);
},
{
closed = 1;
nodes = (
"476 274 OFFCURVE",
"380 358 OFFCURVE",
"380 472 CURVE SMOOTH",
"380 576 OFFCURVE",
"460 674 OFFCURVE",
"580 674 CURVE SMOOTH",
"694 674 OFFCURVE",
"780 582 OFFCURVE",
"780 472 CURVE SMOOTH",
"780 372 OFFCURVE",
"694 274 OFFCURVE",
"578 274 CURVE SMOOTH"
);
}
);
width = 1200;
},
{
layerId = "9AF1F7D9-E035-453E-B2A8-46DE370997D0";
paths = (
{
closed = 1;
nodes = (
"816 -26 OFFCURVE",
"1030 188 OFFCURVE",
"1030 450 CURVE SMOOTH",
"1030 820 OFFCURVE",
"624 1044 OFFCURVE",
"312 858 CURVE",
"624 1400 LINE",
"554 1400 LINE",
"154 704 LINE",
"106 610 OFFCURVE",
"80 560 OFFCURVE",
"80 450 CURVE SMOOTH",
"80 188 OFFCURVE",
"294 -26 OFFCURVE",
"554 -26 CURVE SMOOTH"
);
},
{
closed = 1;
nodes = (
"332 34 OFFCURVE",
"140 216 OFFCURVE",
"140 452 CURVE SMOOTH",
"140 672 OFFCURVE",
"320 864 OFFCURVE",
"556 864 CURVE SMOOTH",
"784 864 OFFCURVE",
"970 680 OFFCURVE",
"970 452 CURVE SMOOTH",
"970 232 OFFCURVE",
"796 34 OFFCURVE",
"554 34 CURVE SMOOTH"
);
}
);
width = 1150;
}
);
leftKerningGroup = six;
rightKerningGroup = six;
unicode = 0036;
},
{
glyphname = seven;
lastChange = "2020-01-27 03:55:58 +0000";
layers = (
{
layerId = "10BC12B3-5274-42E3-B5BC-F74F362F0DF4";
paths = (
{
closed = 1;
nodes = (
"500 0 LINE",
"1136 1100 LINE",
"1136 1400 LINE",
"100 1400 LINE",
"100 1100 LINE",
"788 1100 LINE",
"154 0 LINE"
);
}
);
width = 1196;
},
{
layerId = "9AF1F7D9-E035-453E-B2A8-46DE370997D0";
paths = (
{
closed = 1;
nodes = (
"292 0 LINE",
"1066 1340 LINE",
"1066 1400 LINE",
"100 1400 LINE",
"100 1340 LINE",
"996 1340 LINE",
"224 0 LINE"
);
}
);
width = 1126;
}
);
leftKerningGroup = seven;
rightKerningGroup = seven;
unicode = 0037;
},
{
glyphname = eight;
lastChange = "2020-01-27 03:55:58 +0000";
layers = (
{
layerId = "10BC12B3-5274-42E3-B5BC-F74F362F0DF4";
paths = (
{
closed = 1;
nodes = (
"818 -26 OFFCURVE",
"1030 176 OFFCURVE",
"1030 426 CURVE SMOOTH",
"1030 542 OFFCURVE",
"984 652 OFFCURVE",
"900 736 CURVE",
"962 810 OFFCURVE",
"1000 902 OFFCURVE",
"1000 1002 CURVE SMOOTH",
"1000 1236 OFFCURVE",
"800 1426 OFFCURVE",
"554 1426 CURVE SMOOTH",
"308 1426 OFFCURVE",
"108 1236 OFFCURVE",
"108 1002 CURVE SMOOTH",
"108 902 OFFCURVE",
"146 810 OFFCURVE",
"208 736 CURVE",
"126 652 OFFCURVE",
"80 542 OFFCURVE",
"80 426 CURVE SMOOTH",
"80 174 OFFCURVE",
"290 -26 OFFCURVE",
"554 -26 CURVE SMOOTH"
);
},
{
closed = 1;
nodes = (
"466 274 OFFCURVE",
"394 342 OFFCURVE",
"394 426 CURVE SMOOTH",
"394 510 OFFCURVE",
"466 578 OFFCURVE",
"554 578 CURVE SMOOTH",
"642 578 OFFCURVE",
"714 510 OFFCURVE",
"714 426 CURVE SMOOTH",
"714 342 OFFCURVE",
"642 274 OFFCURVE",
"554 274 CURVE SMOOTH"
);
},
{
closed = 1;
nodes = (
"482 878 OFFCURVE",
"424 934 OFFCURVE",
"424 1002 CURVE SMOOTH",
"424 1070 OFFCURVE",
"482 1126 OFFCURVE",
"554 1126 CURVE SMOOTH",
"626 1126 OFFCURVE",
"684 1070 OFFCURVE",
"684 1002 CURVE SMOOTH",
"684 934 OFFCURVE",
"626 878 OFFCURVE",
"554 878 CURVE SMOOTH"
);
}
);
width = 1110;
},
{
layerId = "9AF1F7D9-E035-453E-B2A8-46DE370997D0";
paths = (
{
closed = 1;
nodes = (
"750 -26 OFFCURVE",
"944 152 OFFCURVE",
"944 370 CURVE SMOOTH",
"944 536 OFFCURVE",
"832 678 OFFCURVE",
"674 738 CURVE",
"808 794 OFFCURVE",
"906 920 OFFCURVE",
"906 1066 CURVE SMOOTH",
"906 1264 OFFCURVE",
"728 1426 OFFCURVE",
"512 1426 CURVE SMOOTH",
"296 1426 OFFCURVE",
"118 1264 OFFCURVE",
"118 1066 CURVE SMOOTH",
"118 920 OFFCURVE",
"216 794 OFFCURVE",
"350 738 CURVE",
"194 678 OFFCURVE",
"80 536 OFFCURVE",
"80 370 CURVE SMOOTH",
"80 152 OFFCURVE",
"274 -26 OFFCURVE",
"512 -26 CURVE SMOOTH"
);
},
{
closed = 1;
nodes = (
"312 34 OFFCURVE",
"146 184 OFFCURVE",
"146 370 CURVE SMOOTH",
"146 556 OFFCURVE",
"312 706 OFFCURVE",
"512 706 CURVE SMOOTH",
"716 706 OFFCURVE",
"878 556 OFFCURVE",
"878 370 CURVE SMOOTH",
"878 184 OFFCURVE",
"716 34 OFFCURVE",
"512 34 CURVE SMOOTH"
);
},
{
closed = 1;
nodes = (
"330 766 OFFCURVE",
"184 900 OFFCURVE",
"184 1066 CURVE SMOOTH",
"184 1232 OFFCURVE",
"330 1366 OFFCURVE",
"512 1366 CURVE SMOOTH",
"694 1366 OFFCURVE",
"840 1232 OFFCURVE",
"840 1066 CURVE SMOOTH",
"840 900 OFFCURVE",
"694 766 OFFCURVE",
"512 766 CURVE SMOOTH"
);
}
);
width = 1024;
}
);
leftKerningGroup = eight;
rightKerningGroup = eight;
unicode = 0038;
},
{
glyphname = nine;
lastChange = "2020-01-27 22:43:12 +0000";
layers = (
{
layerId = "10BC12B3-5274-42E3-B5BC-F74F362F0DF4";
paths = (
{
closed = 1;
nodes = (
"604 0 LINE",
"994 676 LINE SMOOTH",
"1040 754 OFFCURVE",
"1060 840 OFFCURVE",
"1060 926 CURVE SMOOTH",
"1060 1202 OFFCURVE",
"834 1426 OFFCURVE",
"562 1426 CURVE SMOOTH",
"284 1426 OFFCURVE",
"60 1200 OFFCURVE",
"60 926 CURVE SMOOTH",
"60 670 OFFCURVE",
"250 458 OFFCURVE",
"504 428 CURVE",
"256 0 LINE"
);
},
{
closed = 1;
nodes = (
"446 726 OFFCURVE",
"360 818 OFFCURVE",
"360 928 CURVE SMOOTH",
"360 1028 OFFCURVE",
"446 1126 OFFCURVE",
"562 1126 CURVE SMOOTH",
"664 1126 OFFCURVE",
"760 1042 OFFCURVE",
"760 928 CURVE SMOOTH",
"760 824 OFFCURVE",
"680 726 OFFCURVE",
"560 726 CURVE SMOOTH"
);
}
);
width = 1160;
},
{
layerId = "9AF1F7D9-E035-453E-B2A8-46DE370997D0";
paths = (
{
closed = 1;
nodes = (
"468 0 LINE",
"888 734 LINE",
"934 824 OFFCURVE",
"960 870 OFFCURVE",
"960 974 CURVE SMOOTH",
"960 1222 OFFCURVE",
"756 1426 OFFCURVE",
"510 1426 CURVE SMOOTH",
"262 1426 OFFCURVE",
"60 1222 OFFCURVE",
"60 974 CURVE SMOOTH",
"60 624 OFFCURVE",
"444 412 OFFCURVE",
"740 588 CURVE",
"400 0 LINE"
);
},
{
closed = 1;
nodes = (
"292 582 OFFCURVE",
"116 756 OFFCURVE",
"116 972 CURVE SMOOTH",
"116 1182 OFFCURVE",
"280 1368 OFFCURVE",
"510 1368 CURVE SMOOTH",
"720 1368 OFFCURVE",
"902 1196 OFFCURVE",
"902 972 CURVE SMOOTH",
"902 764 OFFCURVE",
"732 582 OFFCURVE",
"508 582 CURVE SMOOTH"
);
}
);
width = 1060;
}
);
leftKerningGroup = nine;
rightKerningGroup = nine;
unicode = 0039;
},
{
glyphname = zero.dnom;
lastChange = "2020-01-27 03:55:58 +0000";
layers = (
{
layerId = "10BC12B3-5274-42E3-B5BC-F74F362F0DF4";
paths = (
{
closed = 1;
nodes = (
"386 -26 OFFCURVE",
"480 104 OFFCURVE",
"480 264 CURVE",
"480 422 OFFCURVE",
"386 552 OFFCURVE",
"270 552 CURVE",
"154 552 OFFCURVE",
"60 422 OFFCURVE",
"60 264 CURVE",
"60 104 OFFCURVE",
"154 -26 OFFCURVE",
"270 -26 CURVE"
);
},
{
closed = 1;
nodes = (
"224 114 OFFCURVE",
"200 198 OFFCURVE",
"200 264 CURVE",
"200 322 OFFCURVE",
"220 412 OFFCURVE",
"270 412 CURVE",
"314 412 OFFCURVE",
"340 326 OFFCURVE",
"340 264 CURVE",
"340 210 OFFCURVE",
"316 114 OFFCURVE",
"270 114 CURVE"
);
}
);
width = 540;
},
{
layerId = "9AF1F7D9-E035-453E-B2A8-46DE370997D0";
paths = (
{
closed = 1;
nodes = (
"386 -26 OFFCURVE",
"480 92 OFFCURVE",
"480 252 CURVE",
"480 412 OFFCURVE",
"386 532 OFFCURVE",
"270 532 CURVE",
"154 532 OFFCURVE",
"60 412 OFFCURVE",
"60 252 CURVE",
"60 92 OFFCURVE",
"154 -26 OFFCURVE",
"270 -26 CURVE"
);
},
{
closed = 1;
nodes = (
"182 34 OFFCURVE",
"120 140 OFFCURVE",
"120 252 CURVE",
"120 360 OFFCURVE",
"178 472 OFFCURVE",
"270 472 CURVE",
"358 472 OFFCURVE",
"420 366 OFFCURVE",
"420 252 CURVE",
"420 146 OFFCURVE",
"362 34 OFFCURVE",
"270 34 CURVE"
);
}
);
width = 540;
}
);
leftKerningGroup = zero.dnom;
rightKerningGroup = zero.dnom;
},
{
glyphname = one.dnom;
lastChange = "2020-01-27 03:55:58 +0000";
layers = (
{
layerId = "10BC12B3-5274-42E3-B5BC-F74F362F0DF4";
paths = (
{
closed = 1;
nodes = (
"268 0 LINE",
"268 526 LINE",
"100 526 LINE",
"80 386 LINE",
"128 386 LINE",
"128 0 LINE"
);
}
);
width = 388;
},
{
layerId = "9AF1F7D9-E035-453E-B2A8-46DE370997D0";
paths = (
{
closed = 1;
nodes = (
"214 0 LINE",
"214 526 LINE",
"88 526 LINE",
"80 466 LINE",
"154 466 LINE",
"154 0 LINE"
);
}
);
width = 334;
}
);
leftKerningGroup = one.dnom;
rightKerningGroup = one.dnom;
},
{
glyphname = two.dnom;
lastChange = "2020-01-27 03:55:58 +0000";
layers = (
{
layerId = "10BC12B3-5274-42E3-B5BC-F74F362F0DF4";
paths = (
{
closed = 1;
nodes = (
"476 0 LINE",
"476 140 LINE",
"336 140 LINE",
"408 204 OFFCURVE",
"486 262 OFFCURVE",
"486 348 CURVE",
"486 460 OFFCURVE",
"396 552 OFFCURVE",
"284 552 CURVE",
"172 552 OFFCURVE",
"80 460 OFFCURVE",
"80 348 CURVE",
"220 348 LINE",
"220 384 OFFCURVE",
"248 412 OFFCURVE",
"284 412 CURVE",
"318 412 OFFCURVE",
"346 384 OFFCURVE",
"346 348 CURVE",
"286 234 OFFCURVE",
"176 188 OFFCURVE",
"80 122 CURVE",
"80 0 LINE"
);
}
);
width = 606;
},
{
layerId = "9AF1F7D9-E035-453E-B2A8-46DE370997D0";
paths = (
{
closed = 1;
nodes = (
"438 0 LINE",
"438 60 LINE",
"182 60 LINE",
"284 130 OFFCURVE",
"438 272 OFFCURVE",
"438 372 CURVE SMOOTH",
"438 470 OFFCURVE",
"358 542 OFFCURVE",
"260 542 CURVE SMOOTH",
"160 542 OFFCURVE",
"80 470 OFFCURVE",
"80 372 CURVE",
"140 372 LINE",
"140 438 OFFCURVE",
"194 482 OFFCURVE",
"260 482 CURVE SMOOTH",
"326 482 OFFCURVE",
"378 438 OFFCURVE",
"378 372 CURVE SMOOTH",
"378 276 OFFCURVE",
"162 116 OFFCURVE",
"80 62 CURVE",
"80 0 LINE"
);
}
);
width = 558;
}
);
leftKerningGroup = two.dnom;
rightKerningGroup = two.dnom;
},
{
glyphname = three.dnom;
lastChange = "2020-01-27 03:55:58 +0000";
layers = (
{
layerId = "10BC12B3-5274-42E3-B5BC-F74F362F0DF4";
paths = (
{
closed = 1;
nodes = (
"346 -26 OFFCURVE",
"430 58 OFFCURVE",
"430 160 CURVE SMOOTH",
"430 202 OFFCURVE",
"416 246 OFFCURVE",
"386 278 CURVE",
"406 308 OFFCURVE",
"416 342 OFFCURVE",
"416 378 CURVE SMOOTH",
"416 474 OFFCURVE",
"338 552 OFFCURVE",
"242 552 CURVE SMOOTH",
"146 552 OFFCURVE",
"68 474 OFFCURVE",
"68 378 CURVE",
"208 378 LINE",
"208 396 OFFCURVE",
"224 412 OFFCURVE",
"242 412 CURVE SMOOTH",
"260 412 OFFCURVE",
"276 396 OFFCURVE",
"276 378 CURVE SMOOTH",
"276 354 OFFCURVE",
"262 318 OFFCURVE",
"198 318 CURVE",
"198 230 LINE",
"260 230 OFFCURVE",
"290 192 OFFCURVE",
"290 160 CURVE SMOOTH",
"290 134 OFFCURVE",
"270 114 OFFCURVE",
"246 114 CURVE SMOOTH",
"220 114 OFFCURVE",
"200 134 OFFCURVE",
"200 160 CURVE",
"60 160 LINE",
"60 58 OFFCURVE",
"144 -26 OFFCURVE",
"246 -26 CURVE SMOOTH"
);
}
);
width = 490;
},
{
layerId = "9AF1F7D9-E035-453E-B2A8-46DE370997D0";
paths = (
{
closed = 1;
nodes = (
"316 -26 OFFCURVE",
"390 38 OFFCURVE",
"390 130 CURVE SMOOTH",
"390 198 OFFCURVE",
"364 230 OFFCURVE",
"314 268 CURVE",
"346 284 OFFCURVE",
"374 336 OFFCURVE",
"374 388 CURVE SMOOTH",
"374 472 OFFCURVE",
"306 530 OFFCURVE",
"222 530 CURVE SMOOTH",
"138 530 OFFCURVE",
"70 472 OFFCURVE",
"70 388 CURVE",
"130 388 LINE",
"130 438 OFFCURVE",
"172 470 OFFCURVE",
"222 470 CURVE SMOOTH",
"272 470 OFFCURVE",
"314 438 OFFCURVE",
"314 388 CURVE SMOOTH",
"314 328 OFFCURVE",
"270 296 OFFCURVE",
"194 296 CURVE",
"194 236 LINE",
"280 236 OFFCURVE",
"330 196 OFFCURVE",
"330 130 CURVE SMOOTH",
"330 72 OFFCURVE",
"284 34 OFFCURVE",
"226 34 CURVE SMOOTH",
"166 34 OFFCURVE",
"120 72 OFFCURVE",
"120 130 CURVE",
"60 130 LINE",
"60 38 OFFCURVE",
"134 -26 OFFCURVE",
"226 -26 CURVE SMOOTH"
);
}
);
width = 450;
}
);
leftKerningGroup = three.dnom;
rightKerningGroup = three.dnom;
},
{
glyphname = four.dnom;
lastChange = "2020-01-27 03:55:58 +0000";
layers = (
{
layerId = "10BC12B3-5274-42E3-B5BC-F74F362F0DF4";
paths = (
{
closed = 1;
nodes = (
"416 0 LINE",
"416 72 LINE",
"460 72 LINE",
"460 212 LINE",
"416 212 LINE",
"416 526 LINE",
"262 526 LINE",
"80 240 LINE",
"80 72 LINE",
"276 72 LINE",
"276 0 LINE"
);
},
{
closed = 1;
nodes = (
"290 330 LINE",
"290 212 LINE",
"216 212 LINE"
);
}
);
width = 580;
},
{
layerId = "9AF1F7D9-E035-453E-B2A8-46DE370997D0";
paths = (
{
closed = 1;
nodes = (
"376 0 LINE",
"376 116 LINE",
"442 116 LINE",
"442 176 LINE",
"376 176 LINE",
"376 526 LINE",
"294 526 LINE",
"80 188 LINE",
"80 116 LINE",
"316 116 LINE",
"316 0 LINE"
);
},
{
closed = 1;
nodes = (
"316 446 LINE",
"316 176 LINE",
"144 176 LINE"
);
}
);
width = 562;
}
);
leftKerningGroup = four.dnom;
rightKerningGroup = four.dnom;
},
{
glyphname = five.dnom;
lastChange = "2020-01-27 03:55:58 +0000";
layers = (
{
layerId = "10BC12B3-5274-42E3-B5BC-F74F362F0DF4";
paths = (
{
closed = 1;
nodes = (
"378 -26 OFFCURVE",
"468 62 OFFCURVE",
"468 172 CURVE",
"468 284 OFFCURVE",
"402 370 OFFCURVE",
"272 370 CURVE",
"252 370 LINE",
"252 404 LINE",
"408 404 LINE",
"408 526 LINE",
"124 526 LINE",
"94 230 LINE",
"268 230 LINE",
"302 230 OFFCURVE",
"328 204 OFFCURVE",
"328 172 CURVE",
"328 140 OFFCURVE",
"302 114 OFFCURVE",
"268 114 CURVE",
"236 114 OFFCURVE",
"210 140 OFFCURVE",
"210 172 CURVE",
"70 172 LINE",
"70 62 OFFCURVE",
"160 -26 OFFCURVE",
"268 -26 CURVE"
);
}
);
width = 588;
},
{
layerId = "9AF1F7D9-E035-453E-B2A8-46DE370997D0";
paths = (
{
closed = 1;
nodes = (
"356 -26 OFFCURVE",
"438 46 OFFCURVE",
"438 148 CURVE",
"438 248 OFFCURVE",
"356 330 OFFCURVE",
"254 330 CURVE",
"174 324 LINE",
"184 454 LINE",
"420 454 LINE",
"420 514 LINE",
"130 514 LINE",
"106 242 LINE",
"254 270 LINE",
"322 270 OFFCURVE",
"378 216 OFFCURVE",
"378 148 CURVE",
"378 80 OFFCURVE",
"322 34 OFFCURVE",
"254 34 CURVE",
"186 34 OFFCURVE",
"130 80 OFFCURVE",
"130 148 CURVE SMOOTH",
"70 148 LINE SMOOTH",
"70 46 OFFCURVE",
"152 -26 OFFCURVE",
"254 -26 CURVE"
);
}
);
width = 558;
}
);
leftKerningGroup = five.dnom;
rightKerningGroup = five.dnom;
},
{
glyphname = six.dnom;
lastChange = "2020-01-27 03:55:58 +0000";
layers = (
{
layerId = "10BC12B3-5274-42E3-B5BC-F74F362F0DF4";
paths = (
{
closed = 1;
nodes = (
"380 -26 OFFCURVE",
"468 58 OFFCURVE",
"468 166 CURVE SMOOTH",
"468 254 OFFCURVE",
"418 324 OFFCURVE",
"320 356 CURVE",
"418 524 LINE",
"256 524 LINE",
"94 244 OFFCURVE",
"80 228 OFFCURVE",
"80 168 CURVE SMOOTH",
"80 58 OFFCURVE",
"166 -26 OFFCURVE",
"274 -26 CURVE SMOOTH"
);
},
{
closed = 1;
nodes = (
"254 114 OFFCURVE",
"228 122 OFFCURVE",
"222 154 CURVE SMOOTH",
"216 182 OFFCURVE",
"232 220 OFFCURVE",
"274 220 CURVE SMOOTH",
"300 220 OFFCURVE",
"320 204 OFFCURVE",
"326 180 CURVE SMOOTH",
"334 146 OFFCURVE",
"308 114 OFFCURVE",
"274 114 CURVE SMOOTH"
);
}
);
width = 568;
},
{
layerId = "9AF1F7D9-E035-453E-B2A8-46DE370997D0";
paths = (
{
closed = 1;
nodes = (
"376 -26 OFFCURVE",
"468 44 OFFCURVE",
"468 158 CURVE",
"468 276 OFFCURVE",
"354 378 OFFCURVE",
"228 346 CURVE SMOOTH",
"326 516 LINE",
"256 516 LINE SMOOTH",
"112 272 OFFCURVE",
"80 224 OFFCURVE",
"80 158 CURVE",
"80 56 OFFCURVE",
"160 -26 OFFCURVE",
"274 -26 CURVE"
);
},
{
closed = 1;
nodes = (
"200 34 OFFCURVE",
"140 84 OFFCURVE",
"140 156 CURVE",
"140 232 OFFCURVE",
"200 292 OFFCURVE",
"274 292 CURVE",
"340 292 OFFCURVE",
"408 240 OFFCURVE",
"408 158 CURVE",
"408 84 OFFCURVE",
"348 34 OFFCURVE",
"274 34 CURVE"
);
}
);
width = 568;
}
);
leftKerningGroup = six.dnom;
rightKerningGroup = six.dnom;
},
{
glyphname = seven.dnom;
lastChange = "2020-01-27 03:55:58 +0000";
layers = (
{
layerId = "10BC12B3-5274-42E3-B5BC-F74F362F0DF4";
paths = (
{
closed = 1;
nodes = (
"290 0 LINE",
"512 386 LINE",
"512 522 LINE",
"100 522 LINE",
"100 382 LINE",
"350 382 LINE",
"130 0 LINE"
);
}
);
width = 572;
},
{
layerId = "9AF1F7D9-E035-453E-B2A8-46DE370997D0";
paths = (
{
closed = 1;
nodes = (
"206 0 LINE",
"450 424 LINE",
"450 484 LINE",
"100 484 LINE",
"100 424 LINE",
"380 424 LINE",
"136 0 LINE"
);
}
);
width = 510;
}
);
leftKerningGroup = seven.dnom;
rightKerningGroup = seven.dnom;
},
{
glyphname = eight.dnom;
lastChange = "2020-01-27 03:55:58 +0000";
layers = (
{
layerId = "10BC12B3-5274-42E3-B5BC-F74F362F0DF4";
paths = (
{
closed = 1;
nodes = (
"368 -26 OFFCURVE",
"450 54 OFFCURVE",
"450 156 CURVE SMOOTH",
"450 202 OFFCURVE",
"434 244 OFFCURVE",
"408 276 CURVE",
"428 304 OFFCURVE",
"440 340 OFFCURVE",
"440 376 CURVE SMOOTH",
"440 474 OFFCURVE",
"360 552 OFFCURVE",
"264 552 CURVE SMOOTH",
"168 552 OFFCURVE",
"90 474 OFFCURVE",
"90 376 CURVE SMOOTH",
"90 340 OFFCURVE",
"102 304 OFFCURVE",
"122 276 CURVE",
"96 244 OFFCURVE",
"80 202 OFFCURVE",
"80 156 CURVE SMOOTH",
"80 54 OFFCURVE",
"162 -26 OFFCURVE",
"264 -26 CURVE SMOOTH"
);
},
{
closed = 1;
nodes = (
"240 112 OFFCURVE",
"220 132 OFFCURVE",
"220 156 CURVE SMOOTH",
"220 182 OFFCURVE",
"240 202 OFFCURVE",
"264 202 CURVE SMOOTH",
"290 202 OFFCURVE",
"310 182 OFFCURVE",
"310 156 CURVE SMOOTH",
"310 132 OFFCURVE",
"290 112 OFFCURVE",
"264 112 CURVE SMOOTH"
);
},
{
closed = 1;
nodes = (
"246 342 OFFCURVE",
"230 358 OFFCURVE",
"230 376 CURVE SMOOTH",
"230 396 OFFCURVE",
"246 412 OFFCURVE",
"264 412 CURVE SMOOTH",
"284 412 OFFCURVE",
"300 396 OFFCURVE",
"300 376 CURVE SMOOTH",
"300 358 OFFCURVE",
"284 342 OFFCURVE",
"264 342 CURVE SMOOTH"
);
}
);
width = 530;
},
{
layerId = "9AF1F7D9-E035-453E-B2A8-46DE370997D0";
paths = (
{
closed = 1;
nodes = (
"338 -26 OFFCURVE",
"414 38 OFFCURVE",
"414 130 CURVE SMOOTH",
"414 188 OFFCURVE",
"384 238 OFFCURVE",
"340 268 CURVE",
"376 296 OFFCURVE",
"400 340 OFFCURVE",
"400 388 CURVE SMOOTH",
"400 474 OFFCURVE",
"332 532 OFFCURVE",
"246 532 CURVE SMOOTH",
"162 532 OFFCURVE",
"94 474 OFFCURVE",
"94 388 CURVE SMOOTH",
"94 340 OFFCURVE",
"118 296 OFFCURVE",
"154 268 CURVE",
"110 238 OFFCURVE",
"80 188 OFFCURVE",
"80 130 CURVE SMOOTH",
"80 38 OFFCURVE",
"156 -26 OFFCURVE",
"246 -26 CURVE SMOOTH"
);
},
{
closed = 1;
nodes = (
"188 34 OFFCURVE",
"140 72 OFFCURVE",
"140 130 CURVE SMOOTH",
"140 188 OFFCURVE",
"188 236 OFFCURVE",
"246 236 CURVE SMOOTH",
"306 236 OFFCURVE",
"354 188 OFFCURVE",
"354 130 CURVE SMOOTH",
"354 72 OFFCURVE",
"306 34 OFFCURVE",
"246 34 CURVE SMOOTH"
);
},
{
closed = 1;
nodes = (
"196 296 OFFCURVE",
"154 338 OFFCURVE",
"154 388 CURVE SMOOTH",
"154 440 OFFCURVE",
"196 472 OFFCURVE",
"246 472 CURVE SMOOTH",
"298 472 OFFCURVE",
"340 440 OFFCURVE",
"340 388 CURVE SMOOTH",
"340 338 OFFCURVE",
"298 296 OFFCURVE",
"246 296 CURVE SMOOTH"
);
}
);
width = 494;
}
);
leftKerningGroup = eight.dnom;
rightKerningGroup = eight.dnom;
},
{
glyphname = nine.dnom;
lastChange = "2020-01-27 03:55:58 +0000";
layers = (
{
layerId = "10BC12B3-5274-42E3-B5BC-F74F362F0DF4";
paths = (
{
closed = 1;
nodes = (
"270 0 LINE",
"422 262 LINE",
"440 294 OFFCURVE",
"448 326 OFFCURVE",
"448 358 CURVE SMOOTH",
"448 460 OFFCURVE",
"366 552 OFFCURVE",
"254 552 CURVE SMOOTH",
"146 552 OFFCURVE",
"60 464 OFFCURVE",
"60 358 CURVE SMOOTH",
"60 274 OFFCURVE",
"114 192 OFFCURVE",
"206 170 CURVE",
"108 0 LINE"
);
},
{
closed = 1;
nodes = (
"234 304 OFFCURVE",
"200 316 OFFCURVE",
"200 356 CURVE SMOOTH",
"200 382 OFFCURVE",
"218 412 OFFCURVE",
"254 412 CURVE SMOOTH",
"280 412 OFFCURVE",
"308 386 OFFCURVE",
"308 360 CURVE SMOOTH",
"308 330 OFFCURVE",
"284 304 OFFCURVE",
"254 304 CURVE SMOOTH"
);
}
);
width = 548;
},
{
layerId = "9AF1F7D9-E035-453E-B2A8-46DE370997D0";
paths = (
{
closed = 1;
nodes = (
"270 0 LINE",
"418 254 LINE",
"418 256 OFFCURVE",
"420 258 OFFCURVE",
"422 262 CURVE SMOOTH",
"498 390 OFFCURVE",
"402 542 OFFCURVE",
"254 542 CURVE SMOOTH",
"188 542 OFFCURVE",
"122 518 OFFCURVE",
"86 454 CURVE SMOOTH",
"0 308 OFFCURVE",
"134 128 OFFCURVE",
"300 170 CURVE",
"202 0 LINE"
);
},
{
closed = 1;
nodes = (
"200 224 OFFCURVE",
"142 260 OFFCURVE",
"124 324 CURVE SMOOTH",
"104 410 OFFCURVE",
"168 482 OFFCURVE",
"254 482 CURVE SMOOTH",
"308 482 OFFCURVE",
"366 456 OFFCURVE",
"384 392 CURVE SMOOTH",
"404 304 OFFCURVE",
"340 224 OFFCURVE",
"254 224 CURVE SMOOTH"
);
}
);
width = 548;
}
);
leftKerningGroup = nine.dnom;
rightKerningGroup = nine.dnom;
},
{
glyphname = zero.numr;
lastChange = "2020-01-27 03:55:58 +0000";
layers = (
{
layerId = "10BC12B3-5274-42E3-B5BC-F74F362F0DF4";
paths = (
{
closed = 1;
nodes = (
"386 832 OFFCURVE",
"480 952 OFFCURVE",
"480 1112 CURVE",
"480 1270 OFFCURVE",
"386 1390 OFFCURVE",
"270 1390 CURVE",
"154 1390 OFFCURVE",
"60 1270 OFFCURVE",
"60 1112 CURVE",
"60 952 OFFCURVE",
"154 832 OFFCURVE",
"270 832 CURVE"
);
},
{
closed = 1;
nodes = (
"224 962 OFFCURVE",
"200 1046 OFFCURVE",
"200 1112 CURVE",
"200 1170 OFFCURVE",
"220 1260 OFFCURVE",
"270 1260 CURVE",
"314 1260 OFFCURVE",
"340 1174 OFFCURVE",
"340 1112 CURVE",
"340 1058 OFFCURVE",
"316 962 OFFCURVE",
"270 962 CURVE"
);
}
);
width = 540;
},
{
layerId = "9AF1F7D9-E035-453E-B2A8-46DE370997D0";
paths = (
{
closed = 1;
nodes = (
"386 832 OFFCURVE",
"480 950 OFFCURVE",
"480 1110 CURVE SMOOTH",
"480 1270 OFFCURVE",
"386 1390 OFFCURVE",
"270 1390 CURVE SMOOTH",
"154 1390 OFFCURVE",
"60 1270 OFFCURVE",
"60 1110 CURVE SMOOTH",
"60 950 OFFCURVE",
"154 832 OFFCURVE",
"270 832 CURVE SMOOTH"
);
},
{
closed = 1;
nodes = (
"182 892 OFFCURVE",
"120 998 OFFCURVE",
"120 1110 CURVE SMOOTH",
"120 1218 OFFCURVE",
"178 1330 OFFCURVE",
"270 1330 CURVE SMOOTH",
"358 1330 OFFCURVE",
"420 1224 OFFCURVE",
"420 1110 CURVE SMOOTH",
"420 1004 OFFCURVE",
"362 892 OFFCURVE",
"270 892 CURVE SMOOTH"
);
}
);
width = 540;
}
);
leftKerningGroup = zero.numr;
rightKerningGroup = zero.numr;
},
{
glyphname = one.numr;
lastChange = "2020-01-27 21:38:54 +0000";
layers = (
{
layerId = "10BC12B3-5274-42E3-B5BC-F74F362F0DF4";
paths = (
{
closed = 1;
nodes = (
"268 848 LINE",
"268 1374 LINE",
"100 1374 LINE",
"80 1234 LINE",
"128 1234 LINE",
"128 848 LINE"
);
}
);
width = 388;
},
{
layerId = "9AF1F7D9-E035-453E-B2A8-46DE370997D0";
paths = (
{
closed = 1;
nodes = (
"214 848 LINE",
"214 1374 LINE",
"88 1374 LINE",
"80 1314 LINE",
"154 1314 LINE",
"154 848 LINE"
);
}
);
width = 334;
}
);
leftKerningGroup = one.numr;
rightKerningGroup = one.numr;
},
{
glyphname = two.numr;
lastChange = "2020-01-27 03:55:58 +0000";
layers = (
{
layerId = "10BC12B3-5274-42E3-B5BC-F74F362F0DF4";
paths = (
{
closed = 1;
nodes = (
"476 848 LINE",
"476 988 LINE",
"336 988 LINE",
"408 1052 OFFCURVE",
"486 1110 OFFCURVE",
"486 1196 CURVE",
"486 1308 OFFCURVE",
"396 1390 OFFCURVE",
"284 1390 CURVE",
"172 1390 OFFCURVE",
"80 1308 OFFCURVE",
"80 1196 CURVE",
"220 1196 LINE",
"220 1232 OFFCURVE",
"248 1260 OFFCURVE",
"284 1260 CURVE",
"318 1260 OFFCURVE",
"346 1232 OFFCURVE",
"346 1196 CURVE",
"286 1082 OFFCURVE",
"176 1036 OFFCURVE",
"80 970 CURVE",
"80 848 LINE"
);
}
);
width = 606;
},
{
layerId = "9AF1F7D9-E035-453E-B2A8-46DE370997D0";
paths = (
{
closed = 1;
nodes = (
"438 848 LINE",
"438 908 LINE",
"182 908 LINE",
"284 978 OFFCURVE",
"438 1120 OFFCURVE",
"438 1220 CURVE SMOOTH",
"438 1318 OFFCURVE",
"358 1390 OFFCURVE",
"260 1390 CURVE SMOOTH",
"160 1390 OFFCURVE",
"80 1318 OFFCURVE",
"80 1220 CURVE",
"140 1220 LINE",
"140 1286 OFFCURVE",
"194 1330 OFFCURVE",
"260 1330 CURVE SMOOTH",
"326 1330 OFFCURVE",
"378 1286 OFFCURVE",
"378 1220 CURVE SMOOTH",
"378 1124 OFFCURVE",
"162 964 OFFCURVE",
"80 910 CURVE",
"80 848 LINE"
);
}
);
width = 558;
}
);
leftKerningGroup = two.numr;
rightKerningGroup = two.numr;
},
{
glyphname = three.numr;
lastChange = "2020-01-27 03:55:58 +0000";
layers = (
{
layerId = "10BC12B3-5274-42E3-B5BC-F74F362F0DF4";
paths = (
{
closed = 1;
nodes = (
"346 832 OFFCURVE",
"430 906 OFFCURVE",
"430 1008 CURVE SMOOTH",
"430 1050 OFFCURVE",
"416 1094 OFFCURVE",
"386 1126 CURVE",
"406 1156 OFFCURVE",
"416 1190 OFFCURVE",
"416 1226 CURVE SMOOTH",
"416 1322 OFFCURVE",
"338 1390 OFFCURVE",
"242 1390 CURVE SMOOTH",
"146 1390 OFFCURVE",
"68 1322 OFFCURVE",
"68 1226 CURVE",
"208 1226 LINE",
"208 1244 OFFCURVE",
"224 1260 OFFCURVE",
"242 1260 CURVE SMOOTH",
"260 1260 OFFCURVE",
"276 1244 OFFCURVE",
"276 1226 CURVE SMOOTH",
"276 1202 OFFCURVE",
"262 1166 OFFCURVE",
"198 1166 CURVE",
"198 1078 LINE",
"260 1078 OFFCURVE",
"290 1040 OFFCURVE",
"290 1008 CURVE SMOOTH",
"290 982 OFFCURVE",
"270 962 OFFCURVE",
"246 962 CURVE SMOOTH",
"220 962 OFFCURVE",
"200 982 OFFCURVE",
"200 1008 CURVE",
"60 1008 LINE",
"60 906 OFFCURVE",
"144 832 OFFCURVE",
"246 832 CURVE SMOOTH"
);
}
);
width = 490;
},
{
layerId = "9AF1F7D9-E035-453E-B2A8-46DE370997D0";
paths = (
{
closed = 1;
nodes = (
"316 832 OFFCURVE",
"390 896 OFFCURVE",
"390 988 CURVE",
"390 1056 OFFCURVE",
"364 1088 OFFCURVE",
"314 1126 CURVE",
"346 1142 OFFCURVE",
"374 1194 OFFCURVE",
"374 1246 CURVE",
"374 1330 OFFCURVE",
"306 1388 OFFCURVE",
"222 1388 CURVE",
"138 1388 OFFCURVE",
"70 1330 OFFCURVE",
"70 1246 CURVE",
"130 1246 LINE",
"130 1296 OFFCURVE",
"172 1328 OFFCURVE",
"222 1328 CURVE",
"272 1328 OFFCURVE",
"314 1296 OFFCURVE",
"314 1246 CURVE",
"314 1186 OFFCURVE",
"270 1154 OFFCURVE",
"194 1154 CURVE",
"194 1094 LINE",
"280 1094 OFFCURVE",
"330 1054 OFFCURVE",
"330 988 CURVE",
"330 930 OFFCURVE",
"284 892 OFFCURVE",
"226 892 CURVE",
"166 892 OFFCURVE",
"120 930 OFFCURVE",
"120 988 CURVE",
"60 988 LINE",
"60 896 OFFCURVE",
"134 832 OFFCURVE",
"226 832 CURVE"
);
}
);
width = 450;
}
);
leftKerningGroup = three.numr;
rightKerningGroup = three.numr;
},
{
glyphname = four.numr;
lastChange = "2020-01-27 03:55:58 +0000";
layers = (
{
layerId = "10BC12B3-5274-42E3-B5BC-F74F362F0DF4";
paths = (
{
closed = 1;
nodes = (
"416 848 LINE",
"416 920 LINE",
"460 920 LINE",
"460 1060 LINE",
"416 1060 LINE",
"416 1374 LINE",
"262 1374 LINE",
"80 1088 LINE",
"80 920 LINE",
"276 920 LINE",
"276 848 LINE"
);
},
{
closed = 1;
nodes = (
"290 1178 LINE",
"290 1060 LINE",
"216 1060 LINE"
);
}
);
width = 580;
},
{
layerId = "9AF1F7D9-E035-453E-B2A8-46DE370997D0";
paths = (
{
closed = 1;
nodes = (
"376 848 LINE",
"376 964 LINE",
"442 964 LINE",
"442 1024 LINE",
"376 1024 LINE",
"376 1374 LINE",
"294 1374 LINE",
"80 1036 LINE",
"80 964 LINE",
"316 964 LINE",
"316 848 LINE"
);
},
{
closed = 1;
nodes = (
"316 1294 LINE",
"316 1024 LINE",
"144 1024 LINE"
);
}
);
width = 562;
}
);
leftKerningGroup = four.numr;
rightKerningGroup = four.numr;
},
{
glyphname = five.numr;
lastChange = "2020-01-28 09:25:11 +0000";
layers = (
{
layerId = "10BC12B3-5274-42E3-B5BC-F74F362F0DF4";
paths = (
{
closed = 1;
nodes = (
"378 832 OFFCURVE",
"468 910 OFFCURVE",
"468 1020 CURVE SMOOTH",
"468 1135 OFFCURVE",
"386 1218 OFFCURVE",
"252 1218 CURVE",
"252 1254 LINE",
"408 1254 LINE",
"408 1374 LINE",
"124 1374 LINE",
"96 1072 LINE",
"150 1078 OFFCURVE",
"240 1082 OFFCURVE",
"268 1078 CURVE SMOOTH",
"302 1074 OFFCURVE",
"328 1052 OFFCURVE",
"328 1020 CURVE SMOOTH",
"328 988 OFFCURVE",
"302 962 OFFCURVE",
"268 962 CURVE SMOOTH",
"236 962 OFFCURVE",
"210 988 OFFCURVE",
"210 1020 CURVE",
"70 1020 LINE",
"70 910 OFFCURVE",
"160 832 OFFCURVE",
"268 832 CURVE SMOOTH"
);
}
);
width = 588;
},
{
layerId = "9AF1F7D9-E035-453E-B2A8-46DE370997D0";
paths = (
{
closed = 1;
nodes = (
"356 832 OFFCURVE",
"438 904 OFFCURVE",
"438 1006 CURVE SMOOTH",
"438 1141 OFFCURVE",
"323 1205 OFFCURVE",
"174 1182 CURVE",
"184 1314 LINE",
"420 1314 LINE",
"420 1374 LINE",
"130 1374 LINE",
"106 1100 LINE",
"174 1122 OFFCURVE",
"194 1128 OFFCURVE",
"254 1128 CURVE SMOOTH",
"322 1128 OFFCURVE",
"378 1074 OFFCURVE",
"378 1006 CURVE SMOOTH",
"378 938 OFFCURVE",
"322 892 OFFCURVE",
"254 892 CURVE SMOOTH",
"186 892 OFFCURVE",
"130 938 OFFCURVE",
"130 1006 CURVE",
"70 1006 LINE",
"70 904 OFFCURVE",
"152 832 OFFCURVE",
"254 832 CURVE SMOOTH"
);
}
);
width = 558;
}
);
leftKerningGroup = five.numr;
rightKerningGroup = five.numr;
},
{
glyphname = six.numr;
lastChange = "2020-01-27 21:33:34 +0000";
layers = (
{
layerId = "10BC12B3-5274-42E3-B5BC-F74F362F0DF4";
paths = (
{
closed = 1;
nodes = (
"380 832 OFFCURVE",
"468 906 OFFCURVE",
"468 1014 CURVE SMOOTH",
"468 1102 OFFCURVE",
"418 1172 OFFCURVE",
"320 1204 CURVE",
"418 1372 LINE",
"256 1372 LINE",
"94 1092 OFFCURVE",
"80 1076 OFFCURVE",
"80 1016 CURVE SMOOTH",
"80 906 OFFCURVE",
"166 832 OFFCURVE",
"274 832 CURVE SMOOTH"
);
},
{
closed = 1;
nodes = (
"254 962 OFFCURVE",
"228 970 OFFCURVE",
"222 1002 CURVE SMOOTH",
"214 1030 OFFCURVE",
"232 1068 OFFCURVE",
"274 1068 CURVE SMOOTH",
"300 1068 OFFCURVE",
"320 1052 OFFCURVE",
"326 1028 CURVE SMOOTH",
"334 994 OFFCURVE",
"308 962 OFFCURVE",
"274 962 CURVE SMOOTH"
);
}
);
width = 588;
},
{
layerId = "9AF1F7D9-E035-453E-B2A8-46DE370997D0";
paths = (
{
closed = 1;
nodes = (
"376 832 OFFCURVE",
"468 902 OFFCURVE",
"468 1016 CURVE SMOOTH",
"468 1134 OFFCURVE",
"354 1236 OFFCURVE",
"228 1204 CURVE",
"325 1372 LINE",
"255 1372 LINE",
"111 1128 OFFCURVE",
"80 1082 OFFCURVE",
"80 1016 CURVE SMOOTH",
"80 914 OFFCURVE",
"160 832 OFFCURVE",
"274 832 CURVE SMOOTH"
);
},
{
closed = 1;
nodes = (
"200 892 OFFCURVE",
"140 942 OFFCURVE",
"140 1014 CURVE SMOOTH",
"140 1090 OFFCURVE",
"200 1150 OFFCURVE",
"274 1150 CURVE SMOOTH",
"340 1150 OFFCURVE",
"408 1098 OFFCURVE",
"408 1016 CURVE SMOOTH",
"408 942 OFFCURVE",
"348 892 OFFCURVE",
"274 892 CURVE SMOOTH"
);
}
);
width = 588;
}
);
leftKerningGroup = six.numr;
rightKerningGroup = six.numr;
},
{
glyphname = seven.numr;
lastChange = "2020-01-27 21:34:18 +0000";
layers = (
{
layerId = "10BC12B3-5274-42E3-B5BC-F74F362F0DF4";
paths = (
{
closed = 1;
nodes = (
"290 848 LINE",
"512 1236 LINE",
"512 1372 LINE",
"100 1372 LINE",
"100 1232 LINE",
"350 1232 LINE",
"130 848 LINE"
);
}
);
width = 572;
},
{
layerId = "9AF1F7D9-E035-453E-B2A8-46DE370997D0";
paths = (
{
closed = 1;
nodes = (
"183 848 LINE",
"450 1314 LINE",
"450 1374 LINE",
"100 1374 LINE",
"100 1314 LINE",
"380 1314 LINE",
"113 848 LINE"
);
}
);
width = 510;
}
);
leftKerningGroup = seven.numr;
rightKerningGroup = seven.numr;
},
{
glyphname = eight.numr;
lastChange = "2020-01-27 03:55:58 +0000";
layers = (
{
layerId = "10BC12B3-5274-42E3-B5BC-F74F362F0DF4";
paths = (
{
closed = 1;
nodes = (
"368 832 OFFCURVE",
"450 902 OFFCURVE",
"450 1004 CURVE SMOOTH",
"450 1050 OFFCURVE",
"434 1092 OFFCURVE",
"408 1124 CURVE",
"428 1152 OFFCURVE",
"440 1188 OFFCURVE",
"440 1224 CURVE SMOOTH",
"440 1322 OFFCURVE",
"360 1392 OFFCURVE",
"264 1392 CURVE SMOOTH",
"168 1392 OFFCURVE",
"90 1322 OFFCURVE",
"90 1224 CURVE SMOOTH",
"90 1188 OFFCURVE",
"102 1152 OFFCURVE",
"122 1124 CURVE",
"96 1092 OFFCURVE",
"80 1050 OFFCURVE",
"80 1004 CURVE SMOOTH",
"80 902 OFFCURVE",
"162 832 OFFCURVE",
"264 832 CURVE SMOOTH"
);
},
{
closed = 1;
nodes = (
"240 960 OFFCURVE",
"220 980 OFFCURVE",
"220 1004 CURVE SMOOTH",
"220 1030 OFFCURVE",
"240 1050 OFFCURVE",
"264 1050 CURVE SMOOTH",
"290 1050 OFFCURVE",
"310 1030 OFFCURVE",
"310 1004 CURVE SMOOTH",
"310 980 OFFCURVE",
"290 960 OFFCURVE",
"264 960 CURVE SMOOTH"
);
},
{
closed = 1;
nodes = (
"246 1190 OFFCURVE",
"230 1206 OFFCURVE",
"230 1224 CURVE SMOOTH",
"230 1244 OFFCURVE",
"246 1260 OFFCURVE",
"264 1260 CURVE SMOOTH",
"284 1260 OFFCURVE",
"300 1244 OFFCURVE",
"300 1224 CURVE SMOOTH",
"300 1206 OFFCURVE",
"284 1190 OFFCURVE",
"264 1190 CURVE SMOOTH"
);
}
);
width = 530;
},
{
layerId = "9AF1F7D9-E035-453E-B2A8-46DE370997D0";
paths = (
{
closed = 1;
nodes = (
"338 832 OFFCURVE",
"414 896 OFFCURVE",
"414 988 CURVE SMOOTH",
"414 1046 OFFCURVE",
"384 1096 OFFCURVE",
"340 1126 CURVE",
"376 1154 OFFCURVE",
"400 1198 OFFCURVE",
"400 1246 CURVE SMOOTH",
"400 1332 OFFCURVE",
"332 1390 OFFCURVE",
"246 1390 CURVE SMOOTH",
"162 1390 OFFCURVE",
"94 1332 OFFCURVE",
"94 1246 CURVE SMOOTH",
"94 1198 OFFCURVE",
"118 1154 OFFCURVE",
"154 1126 CURVE",
"110 1096 OFFCURVE",
"80 1046 OFFCURVE",
"80 988 CURVE SMOOTH",
"80 896 OFFCURVE",
"156 832 OFFCURVE",
"246 832 CURVE SMOOTH"
);
},
{
closed = 1;
nodes = (
"188 892 OFFCURVE",
"140 930 OFFCURVE",
"140 988 CURVE SMOOTH",
"140 1046 OFFCURVE",
"188 1094 OFFCURVE",
"246 1094 CURVE SMOOTH",
"306 1094 OFFCURVE",
"354 1046 OFFCURVE",
"354 988 CURVE SMOOTH",
"354 930 OFFCURVE",
"306 892 OFFCURVE",
"246 892 CURVE SMOOTH"
);
},
{
closed = 1;
nodes = (
"196 1154 OFFCURVE",
"154 1196 OFFCURVE",
"154 1246 CURVE SMOOTH",
"154 1298 OFFCURVE",
"196 1330 OFFCURVE",
"246 1330 CURVE SMOOTH",
"298 1330 OFFCURVE",
"340 1298 OFFCURVE",
"340 1246 CURVE SMOOTH",
"340 1196 OFFCURVE",
"298 1154 OFFCURVE",
"246 1154 CURVE SMOOTH"
);
}
);
width = 494;
}
);
leftKerningGroup = eight.numr;
rightKerningGroup = eight.numr;
},
{
glyphname = nine.numr;
lastChange = "2020-01-27 03:55:58 +0000";
layers = (
{
layerId = "10BC12B3-5274-42E3-B5BC-F74F362F0DF4";
paths = (
{
closed = 1;
nodes = (
"270 848 LINE",
"422 1110 LINE",
"440 1142 OFFCURVE",
"448 1174 OFFCURVE",
"448 1206 CURVE SMOOTH",
"448 1308 OFFCURVE",
"366 1390 OFFCURVE",
"254 1390 CURVE SMOOTH",
"146 1390 OFFCURVE",
"60 1312 OFFCURVE",
"60 1206 CURVE SMOOTH",
"60 1122 OFFCURVE",
"114 1040 OFFCURVE",
"206 1018 CURVE",
"108 848 LINE"
);
},
{
closed = 1;
nodes = (
"234 1152 OFFCURVE",
"200 1164 OFFCURVE",
"200 1204 CURVE SMOOTH",
"200 1230 OFFCURVE",
"218 1260 OFFCURVE",
"254 1260 CURVE SMOOTH",
"280 1260 OFFCURVE",
"308 1234 OFFCURVE",
"308 1208 CURVE SMOOTH",
"308 1178 OFFCURVE",
"284 1152 OFFCURVE",
"254 1152 CURVE SMOOTH"
);
}
);
width = 548;
},
{
layerId = "9AF1F7D9-E035-453E-B2A8-46DE370997D0";
paths = (
{
closed = 1;
nodes = (
"270 848 LINE",
"418 1102 LINE",
"418 1104 OFFCURVE",
"420 1106 OFFCURVE",
"422 1110 CURVE SMOOTH",
"498 1238 OFFCURVE",
"402 1390 OFFCURVE",
"254 1390 CURVE SMOOTH",
"188 1390 OFFCURVE",
"122 1366 OFFCURVE",
"86 1302 CURVE SMOOTH",
"0 1156 OFFCURVE",
"134 976 OFFCURVE",
"300 1018 CURVE",
"202 848 LINE"
);
},
{
closed = 1;
nodes = (
"200 1072 OFFCURVE",
"142 1108 OFFCURVE",
"124 1172 CURVE SMOOTH",
"104 1258 OFFCURVE",
"168 1330 OFFCURVE",
"254 1330 CURVE SMOOTH",
"308 1330 OFFCURVE",
"366 1304 OFFCURVE",
"384 1240 CURVE SMOOTH",
"404 1152 OFFCURVE",
"340 1072 OFFCURVE",
"254 1072 CURVE SMOOTH"
);
}
);
width = 548;
}
);
leftKerningGroup = nine.numr;
rightKerningGroup = nine.numr;
},
{
glyphname = fraction;
lastChange = "2020-01-27 03:55:58 +0000";
layers = (
{
layerId = "10BC12B3-5274-42E3-B5BC-F74F362F0DF4";
paths = (
{
closed = 1;
nodes = (
"242 0 LINE",
"1050 1400 LINE",
"808 1400 LINE",
"0 0 LINE"
);
}
);
width = 1050;
},
{
layerId = "9AF1F7D9-E035-453E-B2A8-46DE370997D0";
paths = (
{
closed = 1;
nodes = (
"130 0 LINE",
"938 1400 LINE",
"868 1400 LINE",
"60 0 LINE"
);
}
);
width = 998;
}
);
leftKerningGroup = frac_digits;
rightKerningGroup = fraction;
unicode = "2044,2215";
},
{
glyphname = period;
lastChange = "2020-01-28 07:08:51 +0000";
layers = (
{
layerId = "10BC12B3-5274-42E3-B5BC-F74F362F0DF4";
paths = (
{
closed = 1;
nodes = (
"312 -26 OFFCURVE",
"380 40 OFFCURVE",
"380 124 CURVE SMOOTH",
"380 206 OFFCURVE",
"312 274 OFFCURVE",
"230 274 CURVE SMOOTH",
"146 274 OFFCURVE",
"80 206 OFFCURVE",
"80 124 CURVE SMOOTH",
"80 40 OFFCURVE",
"146 -26 OFFCURVE",
"230 -26 CURVE SMOOTH"
);
}
);
width = 460;
},
{
layerId = "9AF1F7D9-E035-453E-B2A8-46DE370997D0";
paths = (
{
closed = 1;
nodes = (
"150 -26 OFFCURVE",
"170 -6 OFFCURVE",
"170 20 CURVE SMOOTH",
"170 44 OFFCURVE",
"150 64 OFFCURVE",
"124 64 CURVE SMOOTH",
"100 64 OFFCURVE",
"80 44 OFFCURVE",
"80 20 CURVE SMOOTH",
"80 -6 OFFCURVE",
"100 -26 OFFCURVE",
"124 -26 CURVE SMOOTH"
);
}
);
width = 250;
}
);
leftKerningGroup = "1";
rightKerningGroup = period;
unicode = 002E;
},
{
glyphname = comma;
lastChange = "2020-01-28 07:08:53 +0000";
layers = (
{
layerId = "10BC12B3-5274-42E3-B5BC-F74F362F0DF4";
paths = (
{
closed = 1;
nodes = (
"280 -112 LINE",
"442 226 LINE",
"142 226 LINE",
"80 -112 LINE"
);
}
);
width = 522;
},
{
layerId = "9AF1F7D9-E035-453E-B2A8-46DE370997D0";
paths = (
{
closed = 1;
nodes = (
"160 -112 LINE",
"242 226 LINE",
"182 226 LINE",
"120 -112 LINE"
);
}
);
width = 362;
}
);
leftKerningGroup = period;
rightKerningGroup = period;
unicode = 002C;
},
{
glyphname = colon;
lastChange = "2020-01-28 07:08:55 +0000";
layers = (
{
layerId = "10BC12B3-5274-42E3-B5BC-F74F362F0DF4";
paths = (
{
closed = 1;
nodes = (
"312 700 OFFCURVE",
"380 766 OFFCURVE",
"380 850 CURVE SMOOTH",
"380 932 OFFCURVE",
"312 1000 OFFCURVE",
"230 1000 CURVE SMOOTH",
"146 1000 OFFCURVE",
"80 932 OFFCURVE",
"80 850 CURVE SMOOTH",
"80 766 OFFCURVE",
"146 700 OFFCURVE",
"230 700 CURVE SMOOTH"
);
},
{
closed = 1;
nodes = (
"312 -26 OFFCURVE",
"380 40 OFFCURVE",
"380 124 CURVE SMOOTH",
"380 206 OFFCURVE",
"312 274 OFFCURVE",
"230 274 CURVE SMOOTH",
"146 274 OFFCURVE",
"80 206 OFFCURVE",
"80 124 CURVE SMOOTH",
"80 40 OFFCURVE",
"146 -26 OFFCURVE",
"230 -26 CURVE SMOOTH"
);
}
);
width = 460;
},
{
layerId = "9AF1F7D9-E035-453E-B2A8-46DE370997D0";
paths = (
{
closed = 1;
nodes = (
"190 910 OFFCURVE",
"210 930 OFFCURVE",
"210 956 CURVE SMOOTH",
"210 980 OFFCURVE",
"190 1000 OFFCURVE",
"164 1000 CURVE SMOOTH",
"140 1000 OFFCURVE",
"120 980 OFFCURVE",
"120 956 CURVE SMOOTH",
"120 930 OFFCURVE",
"140 910 OFFCURVE",
"164 910 CURVE SMOOTH"
);
},
{
closed = 1;
nodes = (
"190 -26 OFFCURVE",
"210 -6 OFFCURVE",
"210 20 CURVE SMOOTH",
"210 44 OFFCURVE",
"190 64 OFFCURVE",
"164 64 CURVE SMOOTH",
"140 64 OFFCURVE",
"120 44 OFFCURVE",
"120 20 CURVE SMOOTH",
"120 -6 OFFCURVE",
"140 -26 OFFCURVE",
"164 -26 CURVE SMOOTH"
);
}
);
width = 330;
}
);
leftKerningGroup = colon;
rightKerningGroup = colon;
unicode = 003A;
},
{
glyphname = semicolon;
lastChange = "2020-01-28 07:08:57 +0000";
layers = (
{
layerId = "10BC12B3-5274-42E3-B5BC-F74F362F0DF4";
paths = (
{
closed = 1;
nodes = (
"280 -112 LINE",
"442 226 LINE",
"142 226 LINE",
"80 -112 LINE"
);
},
{
closed = 1;
nodes = (
"374 700 OFFCURVE",
"442 766 OFFCURVE",
"442 850 CURVE SMOOTH",
"442 932 OFFCURVE",
"374 1000 OFFCURVE",
"292 1000 CURVE SMOOTH",
"208 1000 OFFCURVE",
"142 932 OFFCURVE",
"142 850 CURVE SMOOTH",
"142 766 OFFCURVE",
"208 700 OFFCURVE",
"292 700 CURVE SMOOTH"
);
}
);
width = 522;
},
{
layerId = "9AF1F7D9-E035-453E-B2A8-46DE370997D0";
paths = (
{
closed = 1;
nodes = (
"132 -112 LINE",
"214 226 LINE",
"154 226 LINE",
"92 -112 LINE"
);
},
{
closed = 1;
nodes = (
"206 910 OFFCURVE",
"226 930 OFFCURVE",
"226 954 CURVE SMOOTH",
"226 980 OFFCURVE",
"206 1000 OFFCURVE",
"182 1000 CURVE SMOOTH",
"156 1000 OFFCURVE",
"136 980 OFFCURVE",
"136 954 CURVE SMOOTH",
"136 930 OFFCURVE",
"156 910 OFFCURVE",
"182 910 CURVE SMOOTH"
);
}
);
width = 362;
}
);
leftKerningGroup = colon;
rightKerningGroup = colon;
unicode = 003B;
},
{
glyphname = exclam;
lastChange = "2020-01-28 07:06:34 +0000";
layers = (
{
layerId = "10BC12B3-5274-42E3-B5BC-F74F362F0DF4";
paths = (
{
closed = 1;
nodes = (
"354 420 LINE",
"354 1400 LINE",
"104 1400 LINE",
"104 420 LINE"
);
},
{
closed = 1;
nodes = (
"312 -26 OFFCURVE",
"378 40 OFFCURVE",
"378 126 CURVE SMOOTH",
"378 208 OFFCURVE",
"312 274 OFFCURVE",
"230 274 CURVE SMOOTH",
"146 274 OFFCURVE",
"80 208 OFFCURVE",
"80 126 CURVE SMOOTH",
"80 40 OFFCURVE",
"146 -26 OFFCURVE",
"230 -26 CURVE SMOOTH"
);
}
);
width = 458;
},
{
layerId = "9AF1F7D9-E035-453E-B2A8-46DE370997D0";
paths = (
{
closed = 1;
nodes = (
"156 420 LINE",
"156 1400 LINE",
"96 1400 LINE",
"96 420 LINE"
);
},
{
closed = 1;
nodes = (
"150 -26 OFFCURVE",
"170 -6 OFFCURVE",
"170 20 CURVE SMOOTH",
"170 44 OFFCURVE",
"150 64 OFFCURVE",
"126 64 CURVE SMOOTH",
"100 64 OFFCURVE",
"80 44 OFFCURVE",
"80 20 CURVE SMOOTH",
"80 -6 OFFCURVE",
"100 -26 OFFCURVE",
"126 -26 CURVE SMOOTH"
);
}
);
width = 250;
}
);
leftKerningGroup = exclam;
rightKerningGroup = exclam;
unicode = 0021;
},
{
glyphname = exclamdown;
lastChange = "2020-01-28 07:09:11 +0000";
layers = (
{
layerId = "10BC12B3-5274-42E3-B5BC-F74F362F0DF4";
paths = (
{
closed = 1;
nodes = (
"146 1026 OFFCURVE",
"80 960 OFFCURVE",
"80 874 CURVE",
"80 792 OFFCURVE",
"146 726 OFFCURVE",
"228 726 CURVE",
"312 726 OFFCURVE",
"378 792 OFFCURVE",
"378 874 CURVE",
"378 960 OFFCURVE",
"312 1026 OFFCURVE",
"228 1026 CURVE"
);
},
{
closed = 1;
nodes = (
"104 580 LINE",
"104 -400 LINE",
"354 -400 LINE",
"354 580 LINE"
);
}
);
width = 458;
},
{
layerId = "9AF1F7D9-E035-453E-B2A8-46DE370997D0";
paths = (
{
closed = 1;
nodes = (
"140 1026 OFFCURVE",
"120 1006 OFFCURVE",
"120 980 CURVE",
"120 956 OFFCURVE",
"140 936 OFFCURVE",
"164 936 CURVE",
"190 936 OFFCURVE",
"210 956 OFFCURVE",
"210 980 CURVE",
"210 1006 OFFCURVE",
"190 1026 OFFCURVE",
"164 1026 CURVE"
);
},
{
closed = 1;
nodes = (
"134 580 LINE",
"134 -400 LINE",
"194 -400 LINE",
"194 580 LINE"
);
}
);
width = 330;
}
);
leftKerningGroup = exclamdown;
rightKerningGroup = exclamdown;
unicode = 00A1;
},
{
glyphname = question;
lastChange = "2020-01-28 08:45:34 +0000";
layers = (
{
layerId = "10BC12B3-5274-42E3-B5BC-F74F362F0DF4";
paths = (
{
closed = 1;
nodes = (
"726 400 LINE",
"726 451 OFFCURVE",
"752 495 OFFCURVE",
"796 518 CURVE SMOOTH",
"950 600 OFFCURVE",
"1044 764 OFFCURVE",
"1044 946 CURVE SMOOTH",
"1044 1210 OFFCURVE",
"828 1426 OFFCURVE",
"562 1426 CURVE SMOOTH",
"296 1426 OFFCURVE",
"80 1210 OFFCURVE",
"80 946 CURVE",
"380 946 LINE",
"380 1046 OFFCURVE",
"462 1126 OFFCURVE",
"562 1126 CURVE SMOOTH",
"662 1126 OFFCURVE",
"744 1046 OFFCURVE",
"744 946 CURVE SMOOTH",
"744 874 OFFCURVE",
"710 812 OFFCURVE",
"654 782 CURVE SMOOTH",
"512 705 OFFCURVE",
"426 561 OFFCURVE",
"426 400 CURVE"
);
},
{
closed = 1;
nodes = (
"674 -26 OFFCURVE",
"740 40 OFFCURVE",
"740 126 CURVE SMOOTH",
"740 208 OFFCURVE",
"674 274 OFFCURVE",
"592 274 CURVE SMOOTH",
"508 274 OFFCURVE",
"442 208 OFFCURVE",
"442 126 CURVE SMOOTH",
"442 40 OFFCURVE",
"508 -26 OFFCURVE",
"592 -26 CURVE SMOOTH"
);
}
);
width = 1124;
},
{
layerId = "9AF1F7D9-E035-453E-B2A8-46DE370997D0";
paths = (
{
closed = 1;
nodes = (
"484 522 LINE",
"484 617 OFFCURVE",
"534 701 OFFCURVE",
"618 746 CURVE SMOOTH",
"732 808 OFFCURVE",
"802 930 OFFCURVE",
"802 1066 CURVE SMOOTH",
"802 1266 OFFCURVE",
"640 1428 OFFCURVE",
"440 1428 CURVE SMOOTH",
"242 1428 OFFCURVE",
"80 1266 OFFCURVE",
"80 1066 CURVE",
"140 1066 LINE",
"140 1234 OFFCURVE",
"274 1368 OFFCURVE",
"440 1368 CURVE SMOOTH",
"606 1368 OFFCURVE",
"742 1234 OFFCURVE",
"742 1066 CURVE SMOOTH",
"742 952 OFFCURVE",
"684 850 OFFCURVE",
"590 800 CURVE SMOOTH",
"486 743 OFFCURVE",
"424 639 OFFCURVE",
"424 522 CURVE"
);
},
{
closed = 1;
nodes = (
"466 -26 OFFCURVE",
"486 -4 OFFCURVE",
"486 20 CURVE SMOOTH",
"486 44 OFFCURVE",
"466 64 OFFCURVE",
"440 64 CURVE SMOOTH",
"416 64 OFFCURVE",
"396 44 OFFCURVE",
"396 20 CURVE SMOOTH",
"396 -4 OFFCURVE",
"416 -26 OFFCURVE",
"440 -26 CURVE SMOOTH"
);
}
);
width = 882;
}
);
leftKerningGroup = question;
rightKerningGroup = question;
unicode = 003F;
},
{
glyphname = questiondown;
lastChange = "2020-01-28 08:46:13 +0000";
layers = (
{
layerId = "10BC12B3-5274-42E3-B5BC-F74F362F0DF4";
paths = (
{
closed = 1;
nodes = (
"828 -426 OFFCURVE",
"1044 -210 OFFCURVE",
"1044 54 CURVE",
"744 54 LINE",
"744 -46 OFFCURVE",
"662 -126 OFFCURVE",
"562 -126 CURVE SMOOTH",
"462 -126 OFFCURVE",
"380 -46 OFFCURVE",
"380 54 CURVE SMOOTH",
"380 126 OFFCURVE",
"414 188 OFFCURVE",
"470 218 CURVE SMOOTH",
"612 295 OFFCURVE",
"698 439 OFFCURVE",
"698 600 CURVE",
"398 600 LINE",
"398 549 OFFCURVE",
"372 505 OFFCURVE",
"328 482 CURVE SMOOTH",
"174 400 OFFCURVE",
"80 236 OFFCURVE",
"80 54 CURVE SMOOTH",
"80 -210 OFFCURVE",
"296 -426 OFFCURVE",
"562 -426 CURVE SMOOTH"
);
},
{
closed = 1;
nodes = (
"616 726 OFFCURVE",
"682 792 OFFCURVE",
"682 874 CURVE SMOOTH",
"682 960 OFFCURVE",
"616 1026 OFFCURVE",
"532 1026 CURVE SMOOTH",
"450 1026 OFFCURVE",
"384 960 OFFCURVE",
"384 874 CURVE SMOOTH",
"384 792 OFFCURVE",
"450 726 OFFCURVE",
"532 726 CURVE SMOOTH"
);
}
);
width = 1124;
},
{
layerId = "9AF1F7D9-E035-453E-B2A8-46DE370997D0";
paths = (
{
closed = 1;
nodes = (
"682 -428 OFFCURVE",
"844 -266 OFFCURVE",
"844 -66 CURVE",
"784 -66 LINE",
"784 -232 OFFCURVE",
"648 -368 OFFCURVE",
"482 -368 CURVE SMOOTH",
"316 -368 OFFCURVE",
"180 -232 OFFCURVE",
"180 -66 CURVE SMOOTH",
"180 48 OFFCURVE",
"238 150 OFFCURVE",
"332 202 CURVE SMOOTH",
"436 260 OFFCURVE",
"498 365 OFFCURVE",
"498 480 CURVE",
"438 480 LINE",
"438 384 OFFCURVE",
"387 299 OFFCURVE",
"304 254 CURVE SMOOTH",
"190 194 OFFCURVE",
"120 70 OFFCURVE",
"120 -66 CURVE SMOOTH",
"120 -266 OFFCURVE",
"282 -428 OFFCURVE",
"482 -428 CURVE SMOOTH"
);
},
{
closed = 1;
nodes = (
"506 936 OFFCURVE",
"526 956 OFFCURVE",
"526 980 CURVE SMOOTH",
"526 1006 OFFCURVE",
"506 1026 OFFCURVE",
"482 1026 CURVE SMOOTH",
"456 1026 OFFCURVE",
"436 1006 OFFCURVE",
"436 980 CURVE SMOOTH",
"436 956 OFFCURVE",
"456 936 OFFCURVE",
"482 936 CURVE SMOOTH"
);
}
);
width = 924;
}
);
leftKerningGroup = questiondown;
rightKerningGroup = questiondown;
unicode = 00BF;
},
{
glyphname = periodcentered;
lastChange = "2020-01-28 07:09:32 +0000";
layers = (
{
layerId = "10BC12B3-5274-42E3-B5BC-F74F362F0DF4";
paths = (
{
closed = 1;
nodes = (
"312 350 OFFCURVE",
"380 416 OFFCURVE",
"380 500 CURVE SMOOTH",
"380 582 OFFCURVE",
"312 650 OFFCURVE",
"230 650 CURVE SMOOTH",
"146 650 OFFCURVE",
"80 582 OFFCURVE",
"80 500 CURVE SMOOTH",
"80 416 OFFCURVE",
"146 350 OFFCURVE",
"230 350 CURVE SMOOTH"
);
}
);
width = 460;
},
{
layerId = "9AF1F7D9-E035-453E-B2A8-46DE370997D0";
paths = (
{
closed = 1;
nodes = (
"190 454 OFFCURVE",
"210 474 OFFCURVE",
"210 500 CURVE SMOOTH",
"210 524 OFFCURVE",
"190 544 OFFCURVE",
"164 544 CURVE SMOOTH",
"140 544 OFFCURVE",
"120 524 OFFCURVE",
"120 500 CURVE SMOOTH",
"120 474 OFFCURVE",
"140 454 OFFCURVE",
"164 454 CURVE SMOOTH"
);
}
);
width = 330;
}
);
rightKerningGroup = anoteleia;
unicode = 00B7;
},
{
glyphname = bullet;
lastChange = "2020-01-28 07:09:34 +0000";
layers = (
{
layerId = "10BC12B3-5274-42E3-B5BC-F74F362F0DF4";
paths = (
{
closed = 1;
nodes = (
"390 300 OFFCURVE",
"480 388 OFFCURVE",
"480 500 CURVE SMOOTH",
"480 610 OFFCURVE",
"390 700 OFFCURVE",
"280 700 CURVE SMOOTH",
"168 700 OFFCURVE",
"80 610 OFFCURVE",
"80 500 CURVE SMOOTH",
"80 388 OFFCURVE",
"168 300 OFFCURVE",
"280 300 CURVE SMOOTH"
);
}
);
width = 560;
},
{
layerId = "9AF1F7D9-E035-453E-B2A8-46DE370997D0";
paths = (
{
closed = 1;
nodes = (
"254 440 OFFCURVE",
"280 466 OFFCURVE",
"280 502 CURVE SMOOTH",
"280 534 OFFCURVE",
"254 560 OFFCURVE",
"218 560 CURVE SMOOTH",
"186 560 OFFCURVE",
"160 534 OFFCURVE",
"160 502 CURVE SMOOTH",
"160 466 OFFCURVE",
"186 440 OFFCURVE",
"218 440 CURVE SMOOTH"
);
}
);
width = 440;
}
);
rightKerningGroup = bullet;
unicode = 2022;
},
{
glyphname = asterisk;
lastChange = "2020-01-28 07:09:27 +0000";
layers = (
{
layerId = "10BC12B3-5274-42E3-B5BC-F74F362F0DF4";
paths = (
{
closed = 1;
nodes = (
"382 946 LINE",
"468 826 LINE",
"630 944 LINE",
"542 1064 LINE",
"684 1108 LINE",
"622 1300 LINE",
"482 1254 LINE",
"482 1400 LINE",
"282 1400 LINE",
"282 1254 LINE",
"140 1300 LINE",
"80 1108 LINE",
"220 1064 LINE",
"132 944 LINE",
"294 826 LINE"
);
}
);
width = 764;
},
{
layerId = "9AF1F7D9-E035-453E-B2A8-46DE370997D0";
paths = (
{
closed = 1;
nodes = (
"360 1064 LINE",
"502 866 LINE",
"552 902 LINE",
"408 1098 LINE",
"640 1174 LINE",
"622 1230 LINE",
"390 1156 LINE",
"390 1400 LINE",
"330 1400 LINE",
"330 1156 LINE",
"98 1230 LINE",
"80 1174 LINE",
"310 1098 LINE",
"168 902 LINE",
"216 866 LINE"
);
}
);
width = 720;
}
);
rightKerningGroup = asterisk;
unicode = 002A;
},
{
glyphname = numbersign;
lastChange = "2020-01-28 07:09:27 +0000";
layers = (
{
layerId = "10BC12B3-5274-42E3-B5BC-F74F362F0DF4";
paths = (
{
closed = 1;
nodes = (
"1526 1140 LINE",
"1378 1140 LINE",
"1446 1400 LINE",
"1146 1400 LINE",
"1078 1140 LINE",
"764 1140 LINE",
"834 1400 LINE",
"534 1400 LINE",
"464 1140 LINE",
"316 1140 LINE",
"238 850 LINE",
"388 850 LINE",
"306 550 LINE",
"158 550 LINE",
"80 260 LINE",
"228 260 LINE",
"160 0 LINE",
"460 0 LINE",
"528 260 LINE",
"842 260 LINE",
"772 0 LINE",
"1072 0 LINE",
"1142 260 LINE",
"1290 260 LINE",
"1368 550 LINE",
"1218 550 LINE",
"1300 850 LINE",
"1448 850 LINE"
);
},
{
closed = 1;
nodes = (
"606 550 LINE",
"688 850 LINE",
"1000 850 LINE",
"918 550 LINE"
);
}
);
width = 1606;
},
{
layerId = "9AF1F7D9-E035-453E-B2A8-46DE370997D0";
paths = (
{
closed = 1;
nodes = (
"1384 1026 LINE",
"1156 1026 LINE",
"1256 1400 LINE",
"1196 1400 LINE",
"1096 1026 LINE",
"544 1026 LINE",
"644 1400 LINE",
"584 1400 LINE",
"484 1026 LINE",
"254 1026 LINE",
"238 968 LINE",
"468 968 LINE",
"324 434 LINE",
"96 434 LINE",
"80 376 LINE",
"310 376 LINE",
"208 0 LINE",
"268 0 LINE",
"370 376 LINE",
"922 376 LINE",
"820 0 LINE",
"880 0 LINE",
"982 376 LINE",
"1210 376 LINE",
"1226 434 LINE",
"996 434 LINE",
"1140 968 LINE",
"1368 968 LINE"
);
},
{
closed = 1;
nodes = (
"384 434 LINE",
"528 968 LINE",
"1080 968 LINE",
"936 434 LINE"
);
}
);
width = 1464;
}
);
rightKerningGroup = numbersign;
unicode = 0023;
},
{
glyphname = slash;
lastChange = "2020-01-28 07:09:40 +0000";
layers = (
{
layerId = "10BC12B3-5274-42E3-B5BC-F74F362F0DF4";
paths = (
{
closed = 1;
nodes = (
"486 1400 LINE",
"80 -112 LINE",
"380 -112 LINE",
"786 1400 LINE"
);
}
);
width = 866;
},
{
layerId = "9AF1F7D9-E035-453E-B2A8-46DE370997D0";
paths = (
{
closed = 1;
nodes = (
"524 1400 LINE",
"120 -112 LINE",
"180 -112 LINE",
"584 1400 LINE"
);
}
);
width = 704;
}
);
rightKerningGroup = slash;
unicode = 002F;
},
{
glyphname = backslash;
lastChange = "2020-01-28 07:09:42 +0000";
layers = (
{
layerId = "10BC12B3-5274-42E3-B5BC-F74F362F0DF4";
paths = (
{
closed = 1;
nodes = (
"784 -112 LINE",
"380 1400 LINE",
"80 1400 LINE",
"484 -112 LINE"
);
}
);
width = 864;
},
{
layerId = "9AF1F7D9-E035-453E-B2A8-46DE370997D0";
paths = (
{
closed = 1;
nodes = (
"586 -112 LINE",
"180 1400 LINE",
"120 1400 LINE",
"526 -112 LINE"
);
}
);
width = 646;
}
);
rightKerningGroup = backslash;
unicode = 005C;
},
{
glyphname = parenleft;
lastChange = "2020-01-28 07:09:46 +0000";
layers = (
{
layerId = "10BC12B3-5274-42E3-B5BC-F74F362F0DF4";
paths = (
{
closed = 1;
nodes = (
"680 -112 LINE",
"548 40 OFFCURVE",
"380 332 OFFCURVE",
"380 644 CURVE SMOOTH",
"380 882 OFFCURVE",
"558 1338 OFFCURVE",
"680 1400 CURVE",
"380 1400 LINE",
"216 1340 OFFCURVE",
"80 872 OFFCURVE",
"80 644 CURVE SMOOTH",
"80 326 OFFCURVE",
"170 98 OFFCURVE",
"380 -112 CURVE"
);
}
);
width = 760;
},
{
layerId = "9AF1F7D9-E035-453E-B2A8-46DE370997D0";
paths = (
{
closed = 1;
nodes = (
"454 -112 LINE",
"268 86 OFFCURVE",
"192 328 OFFCURVE",
"180 644 CURVE",
"192 954 OFFCURVE",
"262 1188 OFFCURVE",
"454 1400 CURVE",
"394 1400 LINE",
"198 1226 OFFCURVE",
"120 932 OFFCURVE",
"120 644 CURVE SMOOTH",
"120 364 OFFCURVE",
"196 66 OFFCURVE",
"394 -112 CURVE"
);
}
);
width = 496;
}
);
rightKerningGroup = parenleft;
unicode = 0028;
},
{
glyphname = parenright;
lastChange = "2020-01-28 07:09:48 +0000";
layers = (
{
layerId = "10BC12B3-5274-42E3-B5BC-F74F362F0DF4";
paths = (
{
closed = 1;
nodes = (
"380 -112 LINE",
"590 98 OFFCURVE",
"680 326 OFFCURVE",
"680 644 CURVE SMOOTH",
"680 872 OFFCURVE",
"544 1340 OFFCURVE",
"380 1400 CURVE",
"80 1400 LINE",
"202 1338 OFFCURVE",
"380 882 OFFCURVE",
"380 644 CURVE SMOOTH",
"380 332 OFFCURVE",
"212 40 OFFCURVE",
"80 -112 CURVE"
);
}
);
width = 760;
},
{
layerId = "9AF1F7D9-E035-453E-B2A8-46DE370997D0";
paths = (
{
closed = 1;
nodes = (
"102 -112 LINE",
"300 66 OFFCURVE",
"376 364 OFFCURVE",
"376 644 CURVE SMOOTH",
"376 932 OFFCURVE",
"298 1226 OFFCURVE",
"102 1400 CURVE",
"42 1400 LINE",
"234 1188 OFFCURVE",
"304 954 OFFCURVE",
"316 644 CURVE",
"304 328 OFFCURVE",
"228 86 OFFCURVE",
"42 -112 CURVE"
);
}
);
width = 496;
}
);
rightKerningGroup = parenright;
unicode = 0029;
},
{
glyphname = braceleft;
lastChange = "2020-01-28 07:09:27 +0000";
layers = (
{
layerId = "10BC12B3-5274-42E3-B5BC-F74F362F0DF4";
paths = (
{
closed = 1;
nodes = (
"730 -112 LINE",
"730 188 LINE",
"604 188 LINE SMOOTH",
"576 188 OFFCURVE",
"554 210 OFFCURVE",
"554 238 CURVE SMOOTH",
"554 494 LINE SMOOTH",
"550 558 OFFCURVE",
"472 584 OFFCURVE",
"472 644 CURVE SMOOTH",
"472 698 OFFCURVE",
"550 732 OFFCURVE",
"554 794 CURVE SMOOTH",
"554 1050 LINE SMOOTH",
"554 1078 OFFCURVE",
"576 1100 OFFCURVE",
"604 1100 CURVE SMOOTH",
"730 1100 LINE",
"730 1400 LINE",
"604 1400 LINE SMOOTH",
"410 1400 OFFCURVE",
"254 1242 OFFCURVE",
"254 1050 CURVE SMOOTH",
"254 804 LINE SMOOTH",
"254 750 OFFCURVE",
"120 720 OFFCURVE",
"120 644 CURVE SMOOTH",
"120 560 OFFCURVE",
"254 546 OFFCURVE",
"254 482 CURVE SMOOTH",
"254 238 LINE SMOOTH",
"254 44 OFFCURVE",
"410 -112 OFFCURVE",
"604 -112 CURVE SMOOTH"
);
}
);
width = 830;
},
{
layerId = "9AF1F7D9-E035-453E-B2A8-46DE370997D0";
paths = (
{
closed = 1;
nodes = (
"690 -114 LINE",
"690 -54 LINE",
"642 -54 LINE",
"482 -54 OFFCURVE",
"352 76 OFFCURVE",
"352 236 CURVE",
"352 484 LINE",
"348 570 OFFCURVE",
"328 574 OFFCURVE",
"212 642 CURVE",
"324 708 OFFCURVE",
"348 716 OFFCURVE",
"352 802 CURVE",
"352 1050 LINE",
"352 1210 OFFCURVE",
"484 1340 OFFCURVE",
"642 1340 CURVE",
"690 1340 LINE",
"690 1400 LINE",
"642 1400 LINE",
"448 1400 OFFCURVE",
"292 1242 OFFCURVE",
"292 1050 CURVE",
"292 804 LINE",
"286 704 OFFCURVE",
"120 734 OFFCURVE",
"120 642 CURVE",
"120 558 OFFCURVE",
"286 582 OFFCURVE",
"292 482 CURVE",
"292 236 LINE",
"292 44 OFFCURVE",
"448 -114 OFFCURVE",
"642 -114 CURVE"
);
}
);
width = 790;
}
);
rightKerningGroup = braceleft;
unicode = 007B;
},
{
glyphname = braceright;
lastChange = "2020-01-28 07:09:27 +0000";
layers = (
{
layerId = "10BC12B3-5274-42E3-B5BC-F74F362F0DF4";
paths = (
{
closed = 1;
nodes = (
"226 -112 LINE SMOOTH",
"420 -112 OFFCURVE",
"576 44 OFFCURVE",
"576 238 CURVE SMOOTH",
"576 482 LINE SMOOTH",
"576 546 OFFCURVE",
"710 560 OFFCURVE",
"710 644 CURVE SMOOTH",
"710 720 OFFCURVE",
"576 750 OFFCURVE",
"576 804 CURVE SMOOTH",
"576 1050 LINE SMOOTH",
"576 1242 OFFCURVE",
"420 1400 OFFCURVE",
"226 1400 CURVE SMOOTH",
"100 1400 LINE",
"100 1100 LINE",
"226 1100 LINE SMOOTH",
"254 1100 OFFCURVE",
"276 1078 OFFCURVE",
"276 1050 CURVE SMOOTH",
"276 794 LINE",
"280 732 OFFCURVE",
"358 698 OFFCURVE",
"358 644 CURVE SMOOTH",
"358 584 OFFCURVE",
"280 558 OFFCURVE",
"276 494 CURVE",
"276 238 LINE SMOOTH",
"276 210 OFFCURVE",
"254 188 OFFCURVE",
"226 188 CURVE SMOOTH",
"100 188 LINE",
"100 -112 LINE"
);
}
);
width = 830;
},
{
layerId = "9AF1F7D9-E035-453E-B2A8-46DE370997D0";
paths = (
{
closed = 1;
nodes = (
"148 -114 LINE SMOOTH",
"342 -114 OFFCURVE",
"498 44 OFFCURVE",
"498 236 CURVE SMOOTH",
"498 482 LINE",
"504 582 OFFCURVE",
"670 558 OFFCURVE",
"670 642 CURVE SMOOTH",
"670 734 OFFCURVE",
"504 704 OFFCURVE",
"498 804 CURVE",
"498 1050 LINE SMOOTH",
"498 1242 OFFCURVE",
"342 1400 OFFCURVE",
"148 1400 CURVE SMOOTH",
"100 1400 LINE",
"100 1340 LINE",
"148 1340 LINE SMOOTH",
"306 1340 OFFCURVE",
"438 1210 OFFCURVE",
"438 1050 CURVE SMOOTH",
"438 802 LINE SMOOTH",
"442 716 OFFCURVE",
"466 708 OFFCURVE",
"578 642 CURVE",
"462 574 OFFCURVE",
"442 570 OFFCURVE",
"438 484 CURVE SMOOTH",
"438 236 LINE SMOOTH",
"438 76 OFFCURVE",
"308 -54 OFFCURVE",
"148 -54 CURVE SMOOTH",
"100 -54 LINE",
"100 -114 LINE"
);
}
);
width = 790;
}
);
rightKerningGroup = braceright;
unicode = 007D;
},
{
glyphname = bracketleft;
lastChange = "2020-01-28 07:09:27 +0000";
layers = (
{
layerId = "10BC12B3-5274-42E3-B5BC-F74F362F0DF4";
paths = (
{
closed = 1;
nodes = (
"400 188 LINE",
"400 1100 LINE",
"576 1100 LINE",
"576 1400 LINE",
"100 1400 LINE",
"100 -112 LINE",
"576 -112 LINE",
"576 188 LINE"
);
}
);
width = 656;
},
{
layerId = "9AF1F7D9-E035-453E-B2A8-46DE370997D0";
paths = (
{
closed = 1;
nodes = (
"160 -52 LINE",
"160 1340 LINE",
"340 1340 LINE",
"340 1400 LINE",
"100 1400 LINE",
"100 -112 LINE",
"340 -112 LINE",
"340 -52 LINE"
);
}
);
width = 420;
}
);
rightKerningGroup = bracketleft;
unicode = 005B;
},
{
glyphname = bracketright;
lastChange = "2020-01-28 07:09:27 +0000";
layers = (
{
layerId = "10BC12B3-5274-42E3-B5BC-F74F362F0DF4";
paths = (
{
closed = 1;
nodes = (
"558 -112 LINE",
"558 1400 LINE",
"80 1400 LINE",
"80 1100 LINE",
"258 1100 LINE",
"258 188 LINE",
"80 188 LINE",
"80 -112 LINE"
);
}
);
width = 658;
},
{
layerId = "9AF1F7D9-E035-453E-B2A8-46DE370997D0";
paths = (
{
closed = 1;
nodes = (
"320 -112 LINE",
"320 1400 LINE",
"80 1400 LINE",
"80 1340 LINE",
"260 1340 LINE",
"260 -52 LINE",
"80 -52 LINE",
"80 -112 LINE"
);
}
);
width = 420;
}
);
rightKerningGroup = bracketright;
unicode = 005D;
},
{
glyphname = hyphen;
lastChange = "2020-01-28 07:09:27 +0000";
layers = (
{
layerId = "10BC12B3-5274-42E3-B5BC-F74F362F0DF4";
paths = (
{
closed = 1;
nodes = (
"120 350 LINE",
"760 350 LINE",
"760 650 LINE",
"120 650 LINE"
);
}
);
width = 880;
},
{
layerId = "9AF1F7D9-E035-453E-B2A8-46DE370997D0";
paths = (
{
closed = 1;
nodes = (
"80 470 LINE",
"720 470 LINE",
"720 530 LINE",
"80 530 LINE"
);
}
);
width = 800;
}
);
rightKerningGroup = hyphen;
unicode = 002D;
},
{
glyphname = endash;
lastChange = "2020-01-28 07:09:27 +0000";
layers = (
{
layerId = "10BC12B3-5274-42E3-B5BC-F74F362F0DF4";
paths = (
{
closed = 1;
nodes = (
"120 350 LINE",
"1120 350 LINE",
"1120 650 LINE",
"120 650 LINE"
);
}
);
width = 1240;
},
{
layerId = "9AF1F7D9-E035-453E-B2A8-46DE370997D0";
paths = (
{
closed = 1;
nodes = (
"120 470 LINE",
"1120 470 LINE",
"1120 530 LINE",
"120 530 LINE"
);
}
);
width = 1240;
}
);
rightKerningGroup = hyphen;
unicode = 2013;
},
{
glyphname = emdash;
lastChange = "2020-01-28 07:09:27 +0000";
layers = (
{
layerId = "10BC12B3-5274-42E3-B5BC-F74F362F0DF4";
paths = (
{
closed = 1;
nodes = (
"120 350 LINE",
"1920 350 LINE",
"1920 650 LINE",
"120 650 LINE"
);
}
);
width = 2040;
},
{
layerId = "9AF1F7D9-E035-453E-B2A8-46DE370997D0";
paths = (
{
closed = 1;
nodes = (
"120 470 LINE",
"1920 470 LINE",
"1920 530 LINE",
"120 530 LINE"
);
}
);
width = 2040;
}
);
rightKerningGroup = hyphen;
unicode = 2014;
},
{
glyphname = underscore;
lastChange = "2020-01-28 07:09:27 +0000";
layers = (
{
layerId = "10BC12B3-5274-42E3-B5BC-F74F362F0DF4";
paths = (
{
closed = 1;
nodes = (
"120 -112 LINE",
"1120 -112 LINE",
"1120 188 LINE",
"120 188 LINE"
);
}
);
width = 1240;
},
{
layerId = "9AF1F7D9-E035-453E-B2A8-46DE370997D0";
paths = (
{
closed = 1;
nodes = (
"120 -112 LINE",
"1120 -112 LINE",
"1120 -52 LINE",
"120 -52 LINE"
);
}
);
width = 1200;
}
);
rightKerningGroup = underscore;
unicode = 005F;
},
{
glyphname = quoteleft;
lastChange = "2020-01-28 07:09:27 +0000";
layers = (
{
layerId = "10BC12B3-5274-42E3-B5BC-F74F362F0DF4";
paths = (
{
closed = 1;
nodes = (
"420 878 LINE",
"482 1400 LINE",
"282 1400 LINE",
"120 878 LINE"
);
}
);
width = 602;
},
{
layerId = "9AF1F7D9-E035-453E-B2A8-46DE370997D0";
paths = (
{
closed = 1;
nodes = (
"180 878 LINE",
"242 1400 LINE",
"202 1400 LINE",
"120 878 LINE"
);
}
);
width = 362;
}
);
rightKerningGroup = quotedblleft;
unicode = "2018,02BB";
},
{
glyphname = quoteright;
lastChange = "2020-01-28 07:09:27 +0000";
layers = (
{
layerId = "10BC12B3-5274-42E3-B5BC-F74F362F0DF4";
paths = (
{
closed = 1;
nodes = (
"320 878 LINE",
"482 1400 LINE",
"182 1400 LINE",
"120 878 LINE"
);
}
);
width = 602;
},
{
layerId = "9AF1F7D9-E035-453E-B2A8-46DE370997D0";
paths = (
{
closed = 1;
nodes = (
"160 878 LINE",
"242 1400 LINE",
"182 1400 LINE",
"120 878 LINE"
);
}
);
width = 362;
}
);
rightKerningGroup = quotedblleft;
unicode = "2019,2032";
},
{
glyphname = guilsinglleft;
lastChange = "2020-01-28 07:09:27 +0000";
layers = (
{
layerId = "10BC12B3-5274-42E3-B5BC-F74F362F0DF4";
paths = (
{
closed = 1;
nodes = (
"720 162 LINE",
"422 502 LINE",
"720 840 LINE",
"420 840 LINE",
"120 502 LINE",
"420 162 LINE"
);
}
);
width = 840;
},
{
layerId = "9AF1F7D9-E035-453E-B2A8-46DE370997D0";
paths = (
{
closed = 1;
nodes = (
"500 162 LINE",
"200 502 LINE",
"500 840 LINE",
"420 840 LINE",
"120 502 LINE",
"420 162 LINE"
);
}
);
width = 620;
}
);
rightKerningGroup = guillemotleft;
unicode = 2039;
},
{
glyphname = guilsinglright;
lastChange = "2020-01-28 07:09:27 +0000";
layers = (
{
layerId = "10BC12B3-5274-42E3-B5BC-F74F362F0DF4";
paths = (
{
closed = 1;
nodes = (
"420 162 LINE",
"720 502 LINE",
"420 840 LINE",
"120 840 LINE",
"418 502 LINE",
"120 162 LINE"
);
}
);
width = 840;
},
{
layerId = "9AF1F7D9-E035-453E-B2A8-46DE370997D0";
paths = (
{
closed = 1;
nodes = (
"200 162 LINE",
"500 502 LINE",
"200 840 LINE",
"120 840 LINE",
"420 502 LINE",
"120 162 LINE"
);
}
);
width = 620;
}
);
rightKerningGroup = guillemotright;
unicode = 203A;
},
{
glyphname = primeReversed;
lastChange = "2020-01-28 07:09:27 +0000";
layers = (
{
layerId = "10BC12B3-5274-42E3-B5BC-F74F362F0DF4";
paths = (
{
closed = 1;
nodes = (
"482 878 LINE",
"420 1400 LINE",
"120 1400 LINE",
"282 878 LINE"
);
}
);
width = 602;
},
{
layerId = "9AF1F7D9-E035-453E-B2A8-46DE370997D0";
paths = (
{
closed = 1;
nodes = (
"242 878 LINE",
"180 1400 LINE",
"120 1400 LINE",
"202 878 LINE"
);
}
);
width = 362;
}
);
rightKerningGroup = primeReversed;
unicode = 2035;
},
{
glyphname = quotesingle;
lastChange = "2020-01-28 07:10:37 +0000";
layers = (
{
layerId = "10BC12B3-5274-42E3-B5BC-F74F362F0DF4";
paths = (
{
closed = 1;
nodes = (
"320 878 LINE",
"320 1400 LINE",
"120 1400 LINE",
"120 878 LINE"
);
}
);
width = 440;
},
{
layerId = "9AF1F7D9-E035-453E-B2A8-46DE370997D0";
paths = (
{
closed = 1;
nodes = (
"180 878 LINE",
"180 1400 LINE",
"120 1400 LINE",
"120 878 LINE"
);
}
);
width = 300;
}
);
rightKerningGroup = quotesingle;
unicode = 0027;
},
{
glyphname = cent;
lastChange = "2020-01-28 07:05:35 +0000";
layers = (
{
layerId = "10BC12B3-5274-42E3-B5BC-F74F362F0DF4";
paths = (
{
closed = 1;
nodes = (
"682 0 LINE",
"682 208 LINE",
"822 236 OFFCURVE",
"940 322 OFFCURVE",
"1012 440 CURVE",
"752 590 LINE",
"714 534 OFFCURVE",
"650 498 OFFCURVE",
"582 498 CURVE SMOOTH",
"472 498 OFFCURVE",
"380 590 OFFCURVE",
"380 702 CURVE SMOOTH",
"380 812 OFFCURVE",
"472 904 OFFCURVE",
"582 904 CURVE SMOOTH",
"650 904 OFFCURVE",
"714 868 OFFCURVE",
"752 812 CURVE",
"1012 962 LINE",
"940 1080 OFFCURVE",
"822 1166 OFFCURVE",
"682 1194 CURVE",
"682 1400 LINE",
"482 1400 LINE",
"482 1194 LINE",
"254 1148 OFFCURVE",
"80 944 OFFCURVE",
"80 702 CURVE SMOOTH",
"80 458 OFFCURVE",
"254 256 OFFCURVE",
"482 208 CURVE",
"482 0 LINE"
);
}
);
width = 1092;
},
{
layerId = "9AF1F7D9-E035-453E-B2A8-46DE370997D0";
paths = (
{
closed = 1;
nodes = (
"608 0 LINE",
"608 200 LINE",
"778 208 OFFCURVE",
"928 302 OFFCURVE",
"1012 440 CURVE",
"960 470 LINE",
"882 342 OFFCURVE",
"732 258 OFFCURVE",
"582 258 CURVE SMOOTH",
"344 258 OFFCURVE",
"140 452 OFFCURVE",
"140 702 CURVE SMOOTH",
"140 946 OFFCURVE",
"340 1144 OFFCURVE",
"582 1144 CURVE SMOOTH",
"732 1144 OFFCURVE",
"882 1060 OFFCURVE",
"960 932 CURVE",
"1012 962 LINE",
"928 1100 OFFCURVE",
"778 1194 OFFCURVE",
"608 1202 CURVE",
"608 1400 LINE",
"548 1400 LINE",
"548 1202 LINE",
"286 1184 OFFCURVE",
"80 968 OFFCURVE",
"80 702 CURVE SMOOTH",
"80 436 OFFCURVE",
"286 218 OFFCURVE",
"548 200 CURVE",
"548 0 LINE"
);
}
);
width = 1092;
}
);
leftKerningGroup = o;
rightKerningGroup = c;
unicode = 00A2;
},
{
glyphname = currency;
lastChange = "2020-01-28 07:05:38 +0000";
layers = (
{
layerId = "10BC12B3-5274-42E3-B5BC-F74F362F0DF4";
paths = (
{
closed = 1;
nodes = (
"352 385 LINE",
"462 323 OFFCURVE",
"590 325 OFFCURVE",
"702 383 CURVE",
"830 255 LINE",
"970 397 LINE",
"842 525 LINE",
"902 633 OFFCURVE",
"902 767 OFFCURVE",
"840 875 CURVE",
"970 1005 LINE",
"830 1145 LINE",
"698 1015 LINE",
"592 1071 OFFCURVE",
"458 1071 OFFCURVE",
"354 1013 CURVE",
"222 1145 LINE",
"80 1005 LINE",
"214 871 LINE",
"154 765 OFFCURVE",
"154 635 OFFCURVE",
"212 529 CURVE",
"80 397 LINE",
"222 255 LINE"
);
},
{
closed = 1;
nodes = (
"440 537 OFFCURVE",
"368 611 OFFCURVE",
"368 699 CURVE SMOOTH",
"368 779 OFFCURVE",
"434 859 OFFCURVE",
"528 857 CURVE SMOOTH",
"610 855 OFFCURVE",
"686 795 OFFCURVE",
"686 699 CURVE SMOOTH",
"686 609 OFFCURVE",
"616 541 OFFCURVE",
"528 539 CURVE SMOOTH"
);
}
);
width = 1050;
},
{
layerId = "9AF1F7D9-E035-453E-B2A8-46DE370997D0";
paths = (
{
closed = 1;
nodes = (
"242 426 LINE SMOOTH",
"378 310 OFFCURVE",
"572 308 OFFCURVE",
"708 424 CURVE SMOOTH",
"828 304 LINE",
"870 346 LINE",
"752 466 LINE SMOOTH",
"864 600 OFFCURVE",
"864 798 OFFCURVE",
"750 932 CURVE SMOOTH",
"870 1054 LINE",
"828 1096 LINE",
"706 974 LINE SMOOTH",
"576 1084 OFFCURVE",
"376 1082 OFFCURVE",
"246 972 CURVE SMOOTH",
"122 1096 LINE",
"80 1054 LINE",
"202 930 LINE SMOOTH",
"90 796 OFFCURVE",
"90 602 OFFCURVE",
"200 468 CURVE SMOOTH",
"80 346 LINE",
"122 304 LINE"
);
},
{
closed = 1;
nodes = (
"318 398 OFFCURVE",
"178 528 OFFCURVE",
"178 698 CURVE",
"178 864 OFFCURVE",
"310 996 OFFCURVE",
"476 996 CURVE",
"644 996 OFFCURVE",
"776 864 OFFCURVE",
"776 698 CURVE",
"776 532 OFFCURVE",
"640 398 OFFCURVE",
"476 398 CURVE"
);
}
);
width = 950;
}
);
leftKerningGroup = currency;
rightKerningGroup = currency;
unicode = 00A4;
},
{
glyphname = dollar;
lastChange = "2020-01-28 07:05:40 +0000";
layers = (
{
layerId = "10BC12B3-5274-42E3-B5BC-F74F362F0DF4";
paths = (
{
closed = 1;
nodes = (
"742 1124 OFFCURVE",
"842 1066 OFFCURVE",
"862 1008 CURVE",
"1144 1110 LINE",
"1084 1280 OFFCURVE",
"908 1392 OFFCURVE",
"712 1420 CURVE",
"712 1624 LINE",
"512 1624 LINE",
"512 1420 LINE",
"272 1384 OFFCURVE",
"80 1220 OFFCURVE",
"80 988 CURVE",
"80 714 OFFCURVE",
"308 594 OFFCURVE",
"612 550 CURVE",
"724 534 OFFCURVE",
"844 496 OFFCURVE",
"844 412 CURVE",
"844 330 OFFCURVE",
"732 274 OFFCURVE",
"612 274 CURVE",
"482 274 OFFCURVE",
"382 334 OFFCURVE",
"362 392 CURVE",
"80 288 LINE",
"142 120 OFFCURVE",
"314 10 OFFCURVE",
"512 -18 CURVE",
"512 -224 LINE",
"712 -224 LINE",
"712 -18 LINE",
"952 18 OFFCURVE",
"1144 182 OFFCURVE",
"1144 412 CURVE",
"1144 670 OFFCURVE",
"900 808 OFFCURVE",
"612 850 CURVE",
"486 868 OFFCURVE",
"380 880 OFFCURVE",
"380 988 CURVE",
"380 1066 OFFCURVE",
"496 1126 OFFCURVE",
"612 1124 CURVE"
);
}
);
width = 1224;
},
{
layerId = "9AF1F7D9-E035-453E-B2A8-46DE370997D0";
paths = (
{
closed = 1;
nodes = (
"760 1358 OFFCURVE",
"964 1276 OFFCURVE",
"1020 1118 CURVE",
"1078 1138 LINE",
"1012 1310 OFFCURVE",
"808 1408 OFFCURVE",
"610 1416 CURVE",
"610 1624 LINE",
"550 1624 LINE",
"550 1416 LINE",
"304 1406 OFFCURVE",
"90 1262 OFFCURVE",
"90 1042 CURVE",
"90 790 OFFCURVE",
"300 718 OFFCURVE",
"578 666 CURVE",
"794 626 OFFCURVE",
"1008 546 OFFCURVE",
"1008 350 CURVE",
"1008 158 OFFCURVE",
"804 34 OFFCURVE",
"578 34 CURVE",
"396 34 OFFCURVE",
"192 116 OFFCURVE",
"136 274 CURVE",
"80 252 LINE",
"138 86 OFFCURVE",
"340 -18 OFFCURVE",
"550 -26 CURVE",
"550 -224 LINE",
"610 -224 LINE",
"610 -26 LINE",
"856 -14 OFFCURVE",
"1068 128 OFFCURVE",
"1068 350 CURVE",
"1068 576 OFFCURVE",
"836 682 OFFCURVE",
"578 730 CURVE",
"332 776 OFFCURVE",
"150 826 OFFCURVE",
"150 1042 CURVE",
"150 1232 OFFCURVE",
"350 1358 OFFCURVE",
"578 1358 CURVE"
);
}
);
width = 1158;
}
);
leftKerningGroup = dollar;
rightKerningGroup = dollar;
unicode = 0024;
},
{
glyphname = euro;
lastChange = "2020-01-28 07:05:42 +0000";
layers = (
{
layerId = "10BC12B3-5274-42E3-B5BC-F74F362F0DF4";
paths = (
{
closed = 1;
nodes = (
"1016 294 LINE",
"838 238 OFFCURVE",
"668 308 OFFCURVE",
"572 466 CURVE",
"808 466 LINE",
"808 666 LINE",
"510 666 LINE",
"508 730 LINE",
"808 730 LINE",
"808 930 LINE",
"570 930 LINE",
"660 1084 OFFCURVE",
"830 1164 OFFCURVE",
"1016 1106 CURVE",
"1016 1416 LINE",
"662 1472 OFFCURVE",
"348 1266 OFFCURVE",
"244 930 CURVE",
"80 930 LINE",
"80 730 LINE",
"208 730 LINE",
"208 666 LINE",
"80 666 LINE",
"80 466 LINE",
"244 466 LINE",
"352 136 OFFCURVE",
"660 -72 OFFCURVE",
"1016 -16 CURVE"
);
}
);
width = 1096;
},
{
layerId = "9AF1F7D9-E035-453E-B2A8-46DE370997D0";
paths = (
{
closed = 1;
nodes = (
"1122 46 LINE",
"786 -22 OFFCURVE",
"472 200 OFFCURVE",
"390 538 CURVE",
"768 538 LINE",
"768 598 LINE",
"380 598 LINE",
"380 802 LINE",
"768 802 LINE",
"768 862 LINE",
"390 862 LINE",
"472 1194 OFFCURVE",
"780 1424 OFFCURVE",
"1122 1356 CURVE",
"1122 1416 LINE",
"764 1488 OFFCURVE",
"412 1238 OFFCURVE",
"328 862 CURVE",
"80 862 LINE",
"80 802 LINE",
"318 802 LINE",
"318 598 LINE",
"80 598 LINE",
"80 538 LINE",
"328 538 LINE",
"408 168 OFFCURVE",
"756 -88 OFFCURVE",
"1122 -14 CURVE"
);
}
);
width = 1202;
}
);
leftKerningGroup = euro;
rightKerningGroup = euro;
unicode = 20AC;
},
{
glyphname = sterling;
lastChange = "2020-01-28 07:05:44 +0000";
layers = (
{
layerId = "10BC12B3-5274-42E3-B5BC-F74F362F0DF4";
paths = (
{
closed = 1;
nodes = (
"1108 0 LINE",
"1108 300 LINE",
"648 300 LINE",
"650 312 OFFCURVE",
"658 346 OFFCURVE",
"658 376 CURVE SMOOTH",
"658 400 OFFCURVE",
"656 424 OFFCURVE",
"656 444 CURVE",
"884 444 LINE",
"884 644 LINE",
"606 644 LINE",
"498 688 OFFCURVE",
"508 680 OFFCURVE",
"464 724 CURVE SMOOTH",
"412 776 OFFCURVE",
"380 816 OFFCURVE",
"380 900 CURVE SMOOTH",
"380 1024 OFFCURVE",
"482 1126 OFFCURVE",
"606 1126 CURVE SMOOTH",
"732 1126 OFFCURVE",
"834 1024 OFFCURVE",
"834 900 CURVE",
"1134 900 LINE",
"1134 1190 OFFCURVE",
"896 1426 OFFCURVE",
"606 1426 CURVE SMOOTH",
"318 1426 OFFCURVE",
"80 1188 OFFCURVE",
"80 900 CURVE SMOOTH",
"80 784 OFFCURVE",
"118 734 OFFCURVE",
"186 644 CURVE",
"104 644 LINE",
"104 444 LINE",
"356 444 LINE",
"356 434 OFFCURVE",
"356 404 OFFCURVE",
"344 376 CURVE SMOOTH",
"322 310 OFFCURVE",
"192 300 OFFCURVE",
"104 300 CURVE",
"104 0 LINE"
);
}
);
width = 1214;
},
{
layerId = "9AF1F7D9-E035-453E-B2A8-46DE370997D0";
paths = (
{
closed = 1;
nodes = (
"1054 0 LINE",
"1054 60 LINE",
"294 60 LINE",
"382 96 OFFCURVE",
"474 192 OFFCURVE",
"474 300 CURVE SMOOTH",
"474 364 OFFCURVE",
"464 414 OFFCURVE",
"448 452 CURVE",
"840 452 LINE",
"840 512 LINE",
"414 512 LINE",
"384 552 OFFCURVE",
"346 578 OFFCURVE",
"312 600 CURVE SMOOTH",
"194 676 OFFCURVE",
"140 794 OFFCURVE",
"140 940 CURVE SMOOTH",
"140 1174 OFFCURVE",
"332 1366 OFFCURVE",
"566 1366 CURVE SMOOTH",
"802 1366 OFFCURVE",
"994 1174 OFFCURVE",
"994 940 CURVE",
"1054 940 LINE",
"1054 1208 OFFCURVE",
"836 1426 OFFCURVE",
"566 1426 CURVE SMOOTH",
"298 1426 OFFCURVE",
"80 1208 OFFCURVE",
"80 940 CURVE SMOOTH",
"80 730 OFFCURVE",
"154 666 OFFCURVE",
"330 512 CURVE",
"104 512 LINE",
"104 452 LINE",
"382 452 LINE",
"402 418 OFFCURVE",
"414 370 OFFCURVE",
"414 300 CURVE SMOOTH",
"414 156 OFFCURVE",
"272 60 OFFCURVE",
"104 60 CURVE",
"104 0 LINE"
);
}
);
width = 1134;
}
);
leftKerningGroup = sterling;
rightKerningGroup = sterling;
unicode = 00A3;
},
{
glyphname = yen;
lastChange = "2020-01-28 07:05:46 +0000";
layers = (
{
layerId = "10BC12B3-5274-42E3-B5BC-F74F362F0DF4";
paths = (
{
closed = 1;
nodes = (
"866 0 LINE",
"866 124 LINE",
"1080 124 LINE",
"1080 324 LINE",
"866 324 LINE",
"866 390 LINE",
"1080 390 LINE",
"1080 590 LINE",
"866 590 LINE",
"866 630 LINE",
"1352 1400 LINE",
"998 1400 LINE",
"716 956 LINE",
"434 1400 LINE",
"80 1400 LINE",
"566 630 LINE",
"566 590 LINE",
"352 590 LINE",
"352 390 LINE",
"566 390 LINE",
"566 324 LINE",
"352 324 LINE",
"352 124 LINE",
"566 124 LINE",
"566 0 LINE"
);
}
);
width = 1432;
},
{
layerId = "9AF1F7D9-E035-453E-B2A8-46DE370997D0";
paths = (
{
closed = 1;
nodes = (
"604 0 LINE",
"604 227 LINE",
"938 227 LINE",
"938 287 LINE",
"604 287 LINE",
"604 493 LINE",
"938 493 LINE",
"938 553 LINE",
"604 553 LINE",
"604 636 LINE",
"1068 1400 LINE",
"998 1400 LINE",
"574 702 LINE",
"150 1400 LINE",
"80 1400 LINE",
"544 636 LINE",
"544 553 LINE",
"210 553 LINE",
"210 493 LINE",
"544 493 LINE",
"544 287 LINE",
"210 287 LINE",
"210 227 LINE",
"544 227 LINE",
"544 0 LINE"
);
}
);
width = 1148;
}
);
leftKerningGroup = yen;
rightKerningGroup = yen;
unicode = 00A5;
},
{
glyphname = plus;
lastChange = "2020-01-28 07:05:50 +0000";
layers = (
{
layerId = "10BC12B3-5274-42E3-B5BC-F74F362F0DF4";
paths = (
{
closed = 1;
nodes = (
"730 250 LINE",
"730 600 LINE",
"1080 600 LINE",
"1080 900 LINE",
"730 900 LINE",
"730 1250 LINE",
"430 1250 LINE",
"430 900 LINE",
"80 900 LINE",
"80 600 LINE",
"430 600 LINE",
"430 250 LINE"
);
}
);
width = 1160;
},
{
layerId = "9AF1F7D9-E035-453E-B2A8-46DE370997D0";
paths = (
{
closed = 1;
nodes = (
"610 250 LINE",
"610 720 LINE",
"1080 720 LINE",
"1080 780 LINE",
"610 780 LINE",
"610 1250 LINE",
"550 1250 LINE",
"550 780 LINE",
"80 780 LINE",
"80 720 LINE",
"550 720 LINE",
"550 250 LINE"
);
}
);
width = 1160;
}
);
leftKerningGroup = plus;
rightKerningGroup = plus;
unicode = 002B;
},
{
glyphname = minus;
lastChange = "2020-01-28 07:05:52 +0000";
layers = (
{
layerId = "10BC12B3-5274-42E3-B5BC-F74F362F0DF4";
paths = (
{
closed = 1;
nodes = (
"1080 600 LINE",
"1080 900 LINE",
"80 900 LINE",
"80 600 LINE"
);
}
);
width = 1160;
},
{
layerId = "9AF1F7D9-E035-453E-B2A8-46DE370997D0";
paths = (
{
closed = 1;
nodes = (
"1080 720 LINE",
"1080 780 LINE",
"80 780 LINE",
"80 720 LINE"
);
}
);
width = 1160;
}
);
leftKerningGroup = minus;
rightKerningGroup = minus;
unicode = 2212;
},
{
glyphname = multiply;
lastChange = "2020-01-28 07:05:55 +0000";
layers = (
{
layerId = "10BC12B3-5274-42E3-B5BC-F74F362F0DF4";
paths = (
{
closed = 1;
nodes = (
"538 538 LINE",
"786 290 LINE",
"998 502 LINE",
"750 750 LINE",
"998 998 LINE",
"786 1210 LINE",
"538 962 LINE",
"292 1210 LINE",
"80 998 LINE",
"326 750 LINE",
"80 502 LINE",
"292 290 LINE"
);
}
);
width = 1078;
},
{
layerId = "9AF1F7D9-E035-453E-B2A8-46DE370997D0";
paths = (
{
closed = 1;
nodes = (
"454 708 LINE",
"786 376 LINE",
"830 418 LINE",
"496 750 LINE",
"830 1082 LINE",
"786 1124 LINE",
"454 792 LINE",
"122 1124 LINE",
"80 1082 LINE",
"412 750 LINE",
"80 418 LINE",
"122 376 LINE"
);
}
);
width = 910;
}
);
leftKerningGroup = multiply;
rightKerningGroup = multiply;
unicode = 00D7;
},
{
glyphname = divide;
lastChange = "2020-01-28 07:05:57 +0000";
layers = (
{
layerId = "10BC12B3-5274-42E3-B5BC-F74F362F0DF4";
paths = (
{
closed = 1;
nodes = (
"1080 600 LINE",
"1080 900 LINE",
"80 900 LINE",
"80 600 LINE"
);
},
{
closed = 1;
nodes = (
"496 1260 OFFCURVE",
"430 1192 OFFCURVE",
"430 1110 CURVE",
"430 1028 OFFCURVE",
"496 960 OFFCURVE",
"580 960 CURVE",
"662 960 OFFCURVE",
"730 1028 OFFCURVE",
"730 1110 CURVE",
"730 1192 OFFCURVE",
"662 1260 OFFCURVE",
"580 1260 CURVE"
);
},
{
closed = 1;
nodes = (
"496 540 OFFCURVE",
"430 472 OFFCURVE",
"430 390 CURVE",
"430 308 OFFCURVE",
"496 240 OFFCURVE",
"580 240 CURVE",
"662 240 OFFCURVE",
"730 308 OFFCURVE",
"730 390 CURVE",
"730 472 OFFCURVE",
"662 540 OFFCURVE",
"580 540 CURVE"
);
}
);
width = 1160;
},
{
layerId = "9AF1F7D9-E035-453E-B2A8-46DE370997D0";
paths = (
{
closed = 1;
nodes = (
"1080 720 LINE",
"1080 780 LINE",
"80 780 LINE",
"80 720 LINE"
);
},
{
closed = 1;
nodes = (
"532 1194 OFFCURVE",
"500 1152 OFFCURVE",
"500 1112 CURVE",
"500 1068 OFFCURVE",
"532 1032 OFFCURVE",
"580 1032 CURVE",
"622 1032 OFFCURVE",
"658 1068 OFFCURVE",
"658 1112 CURVE",
"658 1152 OFFCURVE",
"622 1194 OFFCURVE",
"580 1194 CURVE"
);
},
{
closed = 1;
nodes = (
"532 466 OFFCURVE",
"500 426 OFFCURVE",
"500 384 CURVE",
"500 340 OFFCURVE",
"532 306 OFFCURVE",
"580 306 CURVE",
"622 306 OFFCURVE",
"662 340 OFFCURVE",
"662 384 CURVE",
"662 426 OFFCURVE",
"622 466 OFFCURVE",
"580 466 CURVE"
);
}
);
width = 1160;
}
);
leftKerningGroup = divide;
rightKerningGroup = divide;
unicode = 00F7;
},
{
glyphname = equal;
lastChange = "2020-01-28 07:05:59 +0000";
layers = (
{
layerId = "10BC12B3-5274-42E3-B5BC-F74F362F0DF4";
paths = (
{
closed = 1;
nodes = (
"1080 378 LINE",
"1080 678 LINE",
"80 678 LINE",
"80 378 LINE"
);
},
{
closed = 1;
nodes = (
"1080 822 LINE",
"1080 1122 LINE",
"80 1122 LINE",
"80 822 LINE"
);
}
);
width = 1160;
},
{
layerId = "9AF1F7D9-E035-453E-B2A8-46DE370997D0";
paths = (
{
closed = 1;
nodes = (
"1080 528 LINE",
"1080 588 LINE",
"80 588 LINE",
"80 528 LINE"
);
},
{
closed = 1;
nodes = (
"1080 912 LINE",
"1080 972 LINE",
"80 972 LINE",
"80 912 LINE"
);
}
);
width = 1160;
}
);
leftKerningGroup = equal;
rightKerningGroup = equal;
unicode = 003D;
},
{
glyphname = notequal;
lastChange = "2020-01-28 07:06:01 +0000";
layers = (
{
layerId = "10BC12B3-5274-42E3-B5BC-F74F362F0DF4";
paths = (
{
closed = 1;
nodes = (
"594 1332 LINE",
"532 1122 LINE",
"80 1122 LINE",
"80 822 LINE",
"444 822 LINE",
"402 678 LINE",
"80 678 LINE",
"80 378 LINE",
"314 378 LINE",
"252 168 LINE",
"564 168 LINE",
"626 378 LINE",
"1080 378 LINE",
"1080 678 LINE",
"714 678 LINE",
"756 822 LINE",
"1080 822 LINE",
"1080 1122 LINE",
"844 1122 LINE",
"906 1332 LINE"
);
}
);
width = 1160;
},
{
layerId = "9AF1F7D9-E035-453E-B2A8-46DE370997D0";
paths = (
{
closed = 1;
nodes = (
"718 1332 LINE",
"614 972 LINE",
"80 972 LINE",
"80 912 LINE",
"596 912 LINE",
"500 588 LINE",
"80 588 LINE",
"80 528 LINE",
"484 528 LINE",
"378 168 LINE",
"440 168 LINE",
"546 528 LINE",
"1080 528 LINE",
"1080 588 LINE",
"564 588 LINE",
"658 912 LINE",
"1080 912 LINE",
"1080 972 LINE",
"676 972 LINE",
"780 1332 LINE"
);
}
);
width = 1160;
}
);
leftKerningGroup = notequal;
rightKerningGroup = notequal;
unicode = 2260;
},
{
glyphname = greater;
lastChange = "2020-01-28 07:06:03 +0000";
layers = (
{
layerId = "10BC12B3-5274-42E3-B5BC-F74F362F0DF4";
paths = (
{
closed = 1;
nodes = (
"1080 498 LINE",
"1080 1000 LINE",
"80 1274 LINE",
"80 962 LINE",
"866 750 LINE",
"80 538 LINE",
"80 226 LINE"
);
}
);
width = 1160;
},
{
layerId = "9AF1F7D9-E035-453E-B2A8-46DE370997D0";
paths = (
{
closed = 1;
nodes = (
"1080 702 LINE",
"1080 796 LINE",
"80 1082 LINE",
"80 1018 LINE",
"1026 750 LINE",
"80 480 LINE",
"80 418 LINE"
);
}
);
width = 1160;
}
);
leftKerningGroup = greater;
rightKerningGroup = greater;
unicode = 003E;
},
{
glyphname = less;
lastChange = "2020-01-28 07:06:04 +0000";
layers = (
{
layerId = "10BC12B3-5274-42E3-B5BC-F74F362F0DF4";
paths = (
{
closed = 1;
nodes = (
"1080 526 LINE",
"294 750 LINE",
"1080 974 LINE",
"1080 1286 LINE",
"80 1000 LINE",
"80 498 LINE",
"1080 214 LINE"
);
}
);
width = 1160;
},
{
layerId = "9AF1F7D9-E035-453E-B2A8-46DE370997D0";
paths = (
{
closed = 1;
nodes = (
"1080 480 LINE",
"134 750 LINE",
"1080 1018 LINE",
"1080 1082 LINE",
"80 796 LINE",
"80 702 LINE",
"1080 418 LINE"
);
}
);
width = 1160;
}
);
leftKerningGroup = less;
rightKerningGroup = less;
unicode = 003C;
},
{
glyphname = greaterequal;
lastChange = "2020-01-28 07:06:08 +0000";
layers = (
{
layerId = "10BC12B3-5274-42E3-B5BC-F74F362F0DF4";
paths = (
{
closed = 1;
nodes = (
"1080 724 LINE",
"1080 1226 LINE",
"80 1500 LINE",
"80 1188 LINE",
"866 976 LINE",
"80 764 LINE",
"80 452 LINE"
);
},
{
closed = 1;
nodes = (
"1080 0 LINE",
"1080 300 LINE",
"80 300 LINE",
"80 0 LINE"
);
}
);
width = 1160;
},
{
layerId = "9AF1F7D9-E035-453E-B2A8-46DE370997D0";
paths = (
{
closed = 1;
nodes = (
"1080 702 LINE",
"1080 796 LINE",
"80 1082 LINE",
"80 1018 LINE",
"1026 750 LINE",
"80 480 LINE",
"80 418 LINE"
);
},
{
closed = 1;
nodes = (
"1080 0 LINE",
"1080 60 LINE",
"80 60 LINE",
"80 0 LINE"
);
}
);
width = 1160;
}
);
leftKerningGroup = greaterequal;
rightKerningGroup = greaterequal;
unicode = 2265;
},
{
glyphname = lessequal;
lastChange = "2020-01-28 07:06:12 +0000";
layers = (
{
layerId = "10BC12B3-5274-42E3-B5BC-F74F362F0DF4";
paths = (
{
closed = 1;
nodes = (
"1080 740 LINE",
"294 964 LINE",
"1080 1188 LINE",
"1080 1500 LINE",
"80 1214 LINE",
"80 712 LINE",
"1080 428 LINE"
);
},
{
closed = 1;
nodes = (
"1080 0 LINE",
"1080 300 LINE",
"80 300 LINE",
"80 0 LINE"
);
}
);
width = 1160;
},
{
layerId = "9AF1F7D9-E035-453E-B2A8-46DE370997D0";
paths = (
{
closed = 1;
nodes = (
"1080 480 LINE",
"134 750 LINE",
"1080 1018 LINE",
"1080 1082 LINE",
"80 796 LINE",
"80 702 LINE",
"1080 418 LINE"
);
},
{
closed = 1;
nodes = (
"1080 0 LINE",
"1080 60 LINE",
"80 60 LINE",
"80 0 LINE"
);
}
);
width = 1160;
}
);
leftKerningGroup = lessequal;
rightKerningGroup = lessequal;
unicode = 2264;
},
{
glyphname = plusminus;
lastChange = "2020-01-28 07:06:14 +0000";
layers = (
{
layerId = "10BC12B3-5274-42E3-B5BC-F74F362F0DF4";
paths = (
{
closed = 1;
nodes = (
"730 500 LINE",
"730 850 LINE",
"1080 850 LINE",
"1080 1150 LINE",
"730 1150 LINE",
"730 1500 LINE",
"430 1500 LINE",
"430 1150 LINE",
"80 1150 LINE",
"80 850 LINE",
"430 850 LINE",
"430 500 LINE"
);
},
{
closed = 1;
nodes = (
"1080 0 LINE",
"1080 300 LINE",
"80 300 LINE",
"80 0 LINE"
);
}
);
width = 1160;
},
{
layerId = "9AF1F7D9-E035-453E-B2A8-46DE370997D0";
paths = (
{
closed = 1;
nodes = (
"610 498 LINE",
"610 968 LINE",
"1080 968 LINE",
"1080 1028 LINE",
"610 1028 LINE",
"610 1498 LINE",
"550 1498 LINE",
"550 1028 LINE",
"80 1028 LINE",
"80 968 LINE",
"550 968 LINE",
"550 498 LINE"
);
},
{
closed = 1;
nodes = (
"1080 2 LINE",
"1080 62 LINE",
"80 62 LINE",
"80 2 LINE"
);
}
);
width = 1160;
}
);
leftKerningGroup = plusminus;
rightKerningGroup = plusminus;
unicode = 00B1;
},
{
glyphname = asciitilde;
lastChange = "2020-01-28 07:06:19 +0000";
layers = (
{
layerId = "10BC12B3-5274-42E3-B5BC-F74F362F0DF4";
paths = (
{
closed = 1;
nodes = (
"1188 534 OFFCURVE",
"1290 700 OFFCURVE",
"1266 888 CURVE",
"972 896 LINE",
"972 846 OFFCURVE",
"960 806 OFFCURVE",
"910 806 CURVE SMOOTH",
"770 806 OFFCURVE",
"580 966 OFFCURVE",
"402 966 CURVE SMOOTH",
"210 966 OFFCURVE",
"58 796 OFFCURVE",
"82 608 CURVE",
"376 600 LINE",
"376 642 OFFCURVE",
"384 686 OFFCURVE",
"434 686 CURVE SMOOTH",
"574 686 OFFCURVE",
"818 534 OFFCURVE",
"996 534 CURVE SMOOTH"
);
}
);
width = 1349;
},
{
layerId = "9AF1F7D9-E035-453E-B2A8-46DE370997D0";
paths = (
{
closed = 1;
nodes = (
"993 593 OFFCURVE",
"1117 731 OFFCURVE",
"1071 881 CURVE",
"1013 863 LINE",
"1043 757 OFFCURVE",
"959 655 OFFCURVE",
"849 655 CURVE SMOOTH",
"697 655 OFFCURVE",
"465 907 OFFCURVE",
"311 907 CURVE SMOOTH",
"157 907 OFFCURVE",
"47 755 OFFCURVE",
"89 617 CURVE",
"147 631 LINE",
"119 743 OFFCURVE",
"201 847 OFFCURVE",
"309 845 CURVE SMOOTH",
"441 847 OFFCURVE",
"683 593 OFFCURVE",
"847 593 CURVE SMOOTH"
);
}
);
width = 1161;
}
);
leftKerningGroup = asciitilde;
rightKerningGroup = asciitilde;
unicode = 007E;
},
{
glyphname = logicalnot;
lastChange = "2020-01-28 07:06:21 +0000";
layers = (
{
layerId = "10BC12B3-5274-42E3-B5BC-F74F362F0DF4";
paths = (
{
closed = 1;
nodes = (
"970 425 LINE",
"970 1075 LINE",
"80 1075 LINE",
"80 775 LINE",
"670 775 LINE",
"670 425 LINE"
);
}
);
width = 1050;
},
{
layerId = "9AF1F7D9-E035-453E-B2A8-46DE370997D0";
paths = (
{
closed = 1;
nodes = (
"854 485 LINE",
"854 1015 LINE",
"80 1015 LINE",
"80 955 LINE",
"794 955 LINE",
"794 485 LINE"
);
}
);
width = 934;
}
);
leftKerningGroup = logicalnot;
rightKerningGroup = logicalnot;
unicode = 00AC;
},
{
glyphname = asciicircum;
lastChange = "2020-01-28 07:06:25 +0000";
layers = (
{
layerId = "10BC12B3-5274-42E3-B5BC-F74F362F0DF4";
paths = (
{
closed = 1;
nodes = (
"400 1000 LINE",
"526 1348 LINE",
"652 1000 LINE",
"972 1000 LINE",
"736 1650 LINE",
"316 1650 LINE",
"80 1000 LINE"
);
}
);
width = 1052;
},
{
layerId = "9AF1F7D9-E035-453E-B2A8-46DE370997D0";
paths = (
{
closed = 1;
nodes = (
"142 1000 LINE",
"326 1502 LINE",
"508 1000 LINE",
"572 1000 LINE",
"336 1650 LINE",
"316 1650 LINE",
"80 1000 LINE"
);
}
);
width = 652;
}
);
leftKerningGroup = asciicircum;
rightKerningGroup = asciicircum;
unicode = 005E;
},
{
glyphname = emptyset;
lastChange = "2020-01-28 07:38:47 +0000";
layers = (
{
layerId = "10BC12B3-5274-42E3-B5BC-F74F362F0DF4";
paths = (
{
closed = 1;
nodes = (
"428 -2 LINE",
"476 -18 OFFCURVE",
"526 -26 OFFCURVE",
"580 -26 CURVE SMOOTH",
"856 -26 OFFCURVE",
"1080 210 OFFCURVE",
"1080 500 CURVE SMOOTH",
"1080 646 OFFCURVE",
"1024 778 OFFCURVE",
"934 874 CURVE",
"988 968 LINE",
"780 1088 LINE",
"730 1004 LINE",
"684 1020 OFFCURVE",
"632 1028 OFFCURVE",
"580 1028 CURVE SMOOTH",
"304 1028 OFFCURVE",
"80 792 OFFCURVE",
"80 500 CURVE SMOOTH",
"80 356 OFFCURVE",
"136 224 OFFCURVE",
"226 128 CURVE",
"172 34 LINE",
"380 -86 LINE"
);
},
{
closed = 1;
nodes = (
"362 412 OFFCURVE",
"356 444 OFFCURVE",
"356 482 CURVE SMOOTH",
"356 632 OFFCURVE",
"462 762 OFFCURVE",
"596 766 CURVE",
"374 380 LINE"
);
},
{
closed = 1;
nodes = (
"786 622 LINE",
"796 590 OFFCURVE",
"804 556 OFFCURVE",
"804 518 CURVE SMOOTH",
"804 368 OFFCURVE",
"702 240 OFFCURVE",
"564 236 CURVE"
);
}
);
width = 1160;
},
{
layerId = "9AF1F7D9-E035-453E-B2A8-46DE370997D0";
paths = (
{
closed = 1;
nodes = (
"346 36 LINE",
"416 -2 OFFCURVE",
"496 -26 OFFCURVE",
"580 -26 CURVE SMOOTH",
"856 -26 OFFCURVE",
"1080 210 OFFCURVE",
"1080 500 CURVE SMOOTH",
"1080 682 OFFCURVE",
"996 840 OFFCURVE",
"866 936 CURVE",
"912 1014 LINE",
"860 1044 LINE",
"814 968 LINE",
"746 1006 OFFCURVE",
"666 1028 OFFCURVE",
"580 1028 CURVE SMOOTH",
"304 1028 OFFCURVE",
"80 792 OFFCURVE",
"80 500 CURVE SMOOTH",
"80 322 OFFCURVE",
"166 164 OFFCURVE",
"296 68 CURVE",
"250 -10 LINE",
"302 -40 LINE"
);
},
{
closed = 1;
nodes = (
"214 206 OFFCURVE",
"140 344 OFFCURVE",
"140 500 CURVE SMOOTH",
"140 846 OFFCURVE",
"492 1080 OFFCURVE",
"784 916 CURVE",
"326 122 LINE"
);
},
{
closed = 1;
nodes = (
"836 882 LINE",
"948 796 OFFCURVE",
"1020 656 OFFCURVE",
"1020 500 CURVE SMOOTH",
"1020 162 OFFCURVE",
"680 -80 OFFCURVE",
"376 88 CURVE"
);
}
);
width = 1160;
}
);
leftKerningGroup = emptyset;
rightKerningGroup = emptyset;
unicode = 2205;
},
{
glyphname = infinity;
lastChange = "2020-01-28 07:38:50 +0000";
layers = (
{
layerId = "10BC12B3-5274-42E3-B5BC-F74F362F0DF4";
paths = (
{
closed = 1;
nodes = (
"586 218 OFFCURVE",
"686 278 OFFCURVE",
"774 382 CURVE",
"860 284 OFFCURVE",
"958 228 OFFCURVE",
"1084 228 CURVE SMOOTH",
"1314 228 OFFCURVE",
"1468 394 OFFCURVE",
"1468 614 CURVE SMOOTH",
"1468 820 OFFCURVE",
"1328 1000 OFFCURVE",
"1084 1000 CURVE SMOOTH",
"964 1000 OFFCURVE",
"864 948 OFFCURVE",
"774 844 CURVE",
"690 944 OFFCURVE",
"590 1000 OFFCURVE",
"466 1000 CURVE SMOOTH",
"236 1000 OFFCURVE",
"80 832 OFFCURVE",
"80 614 CURVE SMOOTH",
"80 408 OFFCURVE",
"224 248 OFFCURVE",
"466 228 CURVE SMOOTH"
);
},
{
closed = 1;
nodes = (
"394 500 OFFCURVE",
"350 550 OFFCURVE",
"350 614 CURVE SMOOTH",
"350 666 OFFCURVE",
"388 724 OFFCURVE",
"462 726 CURVE SMOOTH",
"518 730 OFFCURVE",
"586 650 OFFCURVE",
"610 614 CURVE",
"590 582 OFFCURVE",
"520 500 OFFCURVE",
"462 500 CURVE SMOOTH"
);
},
{
closed = 1;
nodes = (
"1032 498 OFFCURVE",
"964 578 OFFCURVE",
"940 614 CURVE",
"974 662 OFFCURVE",
"1032 728 OFFCURVE",
"1100 728 CURVE SMOOTH",
"1158 728 OFFCURVE",
"1200 672 OFFCURVE",
"1200 614 CURVE SMOOTH",
"1200 558 OFFCURVE",
"1162 502 OFFCURVE",
"1088 500 CURVE SMOOTH"
);
}
);
width = 1548;
},
{
layerId = "9AF1F7D9-E035-453E-B2A8-46DE370997D0";
paths = (
{
closed = 1;
nodes = (
"512 340 OFFCURVE",
"574 412 OFFCURVE",
"718 586 CURVE",
"868 402 OFFCURVE",
"928 340 OFFCURVE",
"1090 340 CURVE",
"1240 358 OFFCURVE",
"1354 482 OFFCURVE",
"1354 632 CURVE SMOOTH",
"1354 788 OFFCURVE",
"1248 910 OFFCURVE",
"1062 924 CURVE",
"926 924 OFFCURVE",
"848 840 OFFCURVE",
"718 678 CURVE",
"578 848 OFFCURVE",
"514 924 OFFCURVE",
"346 924 CURVE",
"194 910 OFFCURVE",
"80 782 OFFCURVE",
"80 632 CURVE SMOOTH",
"80 488 OFFCURVE",
"188 360 OFFCURVE",
"346 340 CURVE"
);
},
{
closed = 1;
nodes = (
"236 414 OFFCURVE",
"140 506 OFFCURVE",
"140 632 CURVE SMOOTH",
"140 752 OFFCURVE",
"230 850 OFFCURVE",
"350 864 CURVE",
"492 864 OFFCURVE",
"524 816 OFFCURVE",
"678 632 CURVE",
"530 454 OFFCURVE",
"494 400 OFFCURVE",
"350 400 CURVE"
);
},
{
closed = 1;
nodes = (
"954 400 OFFCURVE",
"928 428 OFFCURVE",
"756 632 CURVE",
"898 800 OFFCURVE",
"942 864 OFFCURVE",
"1062 864 CURVE",
"1208 850 OFFCURVE",
"1294 756 OFFCURVE",
"1294 632 CURVE SMOOTH",
"1294 512 OFFCURVE",
"1202 414 OFFCURVE",
"1084 400 CURVE"
);
}
);
width = 1434;
}
);
leftKerningGroup = infinity;
rightKerningGroup = infinity;
unicode = 221E;
},
{
glyphname = integral;
lastChange = "2020-01-28 07:38:53 +0000";
layers = (
{
layerId = "10BC12B3-5274-42E3-B5BC-F74F362F0DF4";
paths = (
{
closed = 1;
nodes = (
"526 -26 OFFCURVE",
"648 38 OFFCURVE",
"688 202 CURVE",
"780 1116 LINE",
"786 1160 OFFCURVE",
"812 1182 OFFCURVE",
"842 1186 CURVE",
"884 1194 OFFCURVE",
"922 1176 OFFCURVE",
"932 1108 CURVE",
"1098 1092 LINE",
"1114 1264 OFFCURVE",
"972 1426 OFFCURVE",
"792 1426 CURVE SMOOTH",
"654 1426 OFFCURVE",
"508 1324 OFFCURVE",
"490 1196 CURVE",
"396 276 LINE",
"390 234 OFFCURVE",
"358 210 OFFCURVE",
"314 210 CURVE SMOOTH",
"270 210 OFFCURVE",
"272 246 OFFCURVE",
"264 292 CURVE",
"80 306 LINE",
"70 112 OFFCURVE",
"212 -26 OFFCURVE",
"402 -26 CURVE SMOOTH"
);
}
);
width = 1179;
},
{
layerId = "9AF1F7D9-E035-453E-B2A8-46DE370997D0";
paths = (
{
closed = 1;
nodes = (
"283 -24 OFFCURVE",
"333 16 OFFCURVE",
"341 94 CURVE",
"445 1302 LINE",
"447 1334 OFFCURVE",
"479 1372 OFFCURVE",
"523 1366 CURVE",
"561 1364 OFFCURVE",
"591 1330 OFFCURVE",
"589 1290 CURVE",
"647 1284 LINE",
"653 1358 OFFCURVE",
"599 1420 OFFCURVE",
"527 1426 CURVE",
"459 1430 OFFCURVE",
"395 1386 OFFCURVE",
"385 1308 CURVE",
"281 98 LINE",
"275 58 OFFCURVE",
"243 30 OFFCURVE",
"205 34 CURVE",
"163 42 OFFCURVE",
"135 72 OFFCURVE",
"141 110 CURVE",
"81 116 LINE",
"71 42 OFFCURVE",
"131 -24 OFFCURVE",
"199 -26 CURVE"
);
}
);
width = 727;
}
);
leftKerningGroup = integral;
rightKerningGroup = integral;
unicode = 222B;
},
{
glyphname = product;
lastChange = "2020-01-27 03:55:58 +0000";
layers = (
{
layerId = "10BC12B3-5274-42E3-B5BC-F74F362F0DF4";
paths = (
{
closed = 1;
nodes = (
"80 1100 LINE",
"1200 1100 LINE",
"1200 1400 LINE",
"80 1400 LINE"
);
},
{
closed = 1;
nodes = (
"190 0 LINE",
"490 0 LINE",
"490 1194 LINE",
"190 1194 LINE"
);
},
{
closed = 1;
nodes = (
"790 0 LINE",
"1090 0 LINE",
"1090 1194 LINE",
"790 1194 LINE"
);
}
);
width = 1280;
},
{
layerId = "9AF1F7D9-E035-453E-B2A8-46DE370997D0";
paths = (
{
closed = 1;
nodes = (
"80 1340 LINE",
"1200 1340 LINE",
"1200 1400 LINE",
"80 1400 LINE"
);
},
{
closed = 1;
nodes = (
"310 0 LINE",
"370 0 LINE",
"370 1364 LINE",
"310 1364 LINE"
);
},
{
closed = 1;
nodes = (
"910 0 LINE",
"970 0 LINE",
"970 1364 LINE",
"910 1364 LINE"
);
}
);
width = 1280;
}
);
leftKerningGroup = product;
rightKerningGroup = product;
unicode = 220F;
},
{
glyphname = summation;
lastChange = "2020-01-28 07:38:57 +0000";
layers = (
{
layerId = "10BC12B3-5274-42E3-B5BC-F74F362F0DF4";
paths = (
{
closed = 1;
nodes = (
"846 0 LINE",
"846 300 LINE",
"418 300 LINE",
"620 698 LINE",
"418 1096 LINE",
"846 1096 LINE",
"846 1396 LINE",
"80 1396 LINE",
"80 1096 LINE",
"284 698 LINE",
"80 300 LINE",
"80 0 LINE"
);
}
);
width = 906;
},
{
layerId = "9AF1F7D9-E035-453E-B2A8-46DE370997D0";
paths = (
{
closed = 1;
nodes = (
"920 0 LINE",
"920 60 LINE",
"148 60 LINE",
"474 698 LINE",
"148 1336 LINE",
"920 1336 LINE",
"920 1396 LINE",
"80 1396 LINE",
"80 1336 LINE",
"406 698 LINE",
"80 60 LINE",
"80 0 LINE"
);
}
);
width = 980;
}
);
leftKerningGroup = summation;
rightKerningGroup = summation;
unicode = 2211;
},
{
glyphname = radical;
lastChange = "2020-01-28 07:38:59 +0000";
layers = (
{
layerId = "10BC12B3-5274-42E3-B5BC-F74F362F0DF4";
paths = (
{
closed = 1;
nodes = (
"532 344 LINE",
"398 708 LINE",
"80 708 LINE",
"338 0 LINE",
"726 0 LINE",
"1128 1100 LINE",
"1298 1100 LINE",
"1298 1400 LINE",
"918 1400 LINE"
);
}
);
width = 1378;
},
{
layerId = "9AF1F7D9-E035-453E-B2A8-46DE370997D0";
paths = (
{
closed = 1;
nodes = (
"368 96 LINE",
"144 708 LINE",
"80 708 LINE",
"338 0 LINE",
"396 0 LINE",
"886 1340 LINE",
"1160 1340 LINE",
"1160 1400 LINE",
"844 1400 LINE"
);
}
);
width = 1240;
}
);
leftKerningGroup = radical;
rightKerningGroup = radical;
unicode = 221A;
},
{
glyphname = partialdiff;
lastChange = "2020-01-28 07:39:01 +0000";
layers = (
{
layerId = "10BC12B3-5274-42E3-B5BC-F74F362F0DF4";
paths = (
{
closed = 1;
nodes = (
"874 -26 OFFCURVE",
"1086 198 OFFCURVE",
"1086 512 CURVE",
"1086 1046 OFFCURVE",
"800 1540 OFFCURVE",
"338 1540 CURVE",
"340 1240 LINE",
"558 1240 OFFCURVE",
"610 1080 OFFCURVE",
"664 972 CURVE",
"638 978 OFFCURVE",
"610 980 OFFCURVE",
"584 980 CURVE",
"306 980 OFFCURVE",
"80 754 OFFCURVE",
"80 476 CURVE",
"80 200 OFFCURVE",
"306 -26 OFFCURVE",
"584 -26 CURVE"
);
},
{
closed = 1;
nodes = (
"472 274 OFFCURVE",
"380 366 OFFCURVE",
"380 476 CURVE",
"380 588 OFFCURVE",
"472 680 OFFCURVE",
"584 680 CURVE",
"694 680 OFFCURVE",
"786 588 OFFCURVE",
"786 476 CURVE",
"786 366 OFFCURVE",
"694 274 OFFCURVE",
"584 274 CURVE"
);
}
);
width = 1166;
},
{
layerId = "9AF1F7D9-E035-453E-B2A8-46DE370997D0";
paths = (
{
closed = 1;
nodes = (
"882 -26 OFFCURVE",
"1084 198 OFFCURVE",
"1084 522 CURVE",
"1080 1052 OFFCURVE",
"760 1478 OFFCURVE",
"360 1478 CURVE",
"360 1418 LINE",
"692 1418 OFFCURVE",
"940 1094 OFFCURVE",
"1004 750 CURVE",
"914 888 OFFCURVE",
"760 978 OFFCURVE",
"582 978 CURVE",
"306 978 OFFCURVE",
"80 754 OFFCURVE",
"80 476 CURVE",
"80 198 OFFCURVE",
"306 -26 OFFCURVE",
"582 -26 CURVE"
);
},
{
closed = 1;
nodes = (
"336 34 OFFCURVE",
"140 236 OFFCURVE",
"140 476 CURVE",
"140 714 OFFCURVE",
"332 918 OFFCURVE",
"582 918 CURVE",
"830 918 OFFCURVE",
"1026 718 OFFCURVE",
"1026 476 CURVE",
"1026 240 OFFCURVE",
"834 34 OFFCURVE",
"582 34 CURVE"
);
}
);
width = 1164;
}
);
leftKerningGroup = partialdiff;
rightKerningGroup = partialdiff;
unicode = 2202;
},
{
glyphname = percent;
lastChange = "2020-01-28 07:06:46 +0000";
layers = (
{
layerId = "10BC12B3-5274-42E3-B5BC-F74F362F0DF4";
paths = (
{
closed = 1;
nodes = (
"584 0 LINE",
"1392 1400 LINE",
"1046 1400 LINE",
"238 0 LINE"
);
},
{
closed = 1;
nodes = (
"590 760 OFFCURVE",
"746 902 OFFCURVE",
"746 1092 CURVE SMOOTH",
"746 1278 OFFCURVE",
"596 1424 OFFCURVE",
"414 1424 CURVE SMOOTH",
"236 1424 OFFCURVE",
"80 1284 OFFCURVE",
"80 1092 CURVE SMOOTH",
"80 906 OFFCURVE",
"232 760 OFFCURVE",
"414 760 CURVE SMOOTH"
);
},
{
closed = 1;
nodes = (
"340 960 OFFCURVE",
"280 1018 OFFCURVE",
"280 1092 CURVE SMOOTH",
"280 1166 OFFCURVE",
"340 1224 OFFCURVE",
"414 1224 CURVE SMOOTH",
"486 1224 OFFCURVE",
"546 1166 OFFCURVE",
"546 1092 CURVE SMOOTH",
"546 1018 OFFCURVE",
"486 960 OFFCURVE",
"414 960 CURVE SMOOTH"
);
},
{
closed = 1;
nodes = (
"1400 -26 OFFCURVE",
"1550 124 OFFCURVE",
"1550 306 CURVE SMOOTH",
"1550 482 OFFCURVE",
"1408 640 OFFCURVE",
"1216 640 CURVE SMOOTH",
"1040 640 OFFCURVE",
"884 496 OFFCURVE",
"884 306 CURVE SMOOTH",
"884 132 OFFCURVE",
"1030 -26 OFFCURVE",
"1216 -26 CURVE SMOOTH"
);
},
{
closed = 1;
nodes = (
"1144 174 OFFCURVE",
"1084 234 OFFCURVE",
"1084 306 CURVE SMOOTH",
"1084 380 OFFCURVE",
"1144 440 OFFCURVE",
"1216 440 CURVE SMOOTH",
"1290 440 OFFCURVE",
"1350 380 OFFCURVE",
"1350 306 CURVE SMOOTH",
"1350 234 OFFCURVE",
"1290 174 OFFCURVE",
"1216 174 CURVE SMOOTH"
);
}
);
width = 1630;
},
{
layerId = "9AF1F7D9-E035-453E-B2A8-46DE370997D0";
paths = (
{
closed = 1;
nodes = (
"184 0 LINE",
"992 1400 LINE",
"922 1400 LINE",
"114 0 LINE"
);
},
{
closed = 1;
nodes = (
"378 900 OFFCURVE",
"464 986 OFFCURVE",
"464 1092 CURVE",
"464 1198 OFFCURVE",
"378 1286 OFFCURVE",
"272 1286 CURVE",
"166 1286 OFFCURVE",
"80 1198 OFFCURVE",
"80 1092 CURVE",
"80 986 OFFCURVE",
"166 900 OFFCURVE",
"272 900 CURVE"
);
},
{
closed = 1;
nodes = (
"198 960 OFFCURVE",
"140 1020 OFFCURVE",
"140 1092 CURVE",
"140 1166 OFFCURVE",
"198 1226 OFFCURVE",
"272 1226 CURVE",
"346 1226 OFFCURVE",
"404 1166 OFFCURVE",
"404 1092 CURVE",
"404 1020 OFFCURVE",
"346 960 OFFCURVE",
"272 960 CURVE"
);
},
{
closed = 1;
nodes = (
"942 114 OFFCURVE",
"1028 202 OFFCURVE",
"1028 308 CURVE",
"1028 414 OFFCURVE",
"942 500 OFFCURVE",
"836 500 CURVE",
"730 500 OFFCURVE",
"642 414 OFFCURVE",
"642 308 CURVE",
"642 202 OFFCURVE",
"730 114 OFFCURVE",
"836 114 CURVE"
);
},
{
closed = 1;
nodes = (
"762 174 OFFCURVE",
"702 234 OFFCURVE",
"702 308 CURVE",
"702 380 OFFCURVE",
"762 440 OFFCURVE",
"836 440 CURVE",
"908 440 OFFCURVE",
"968 380 OFFCURVE",
"968 308 CURVE",
"968 234 OFFCURVE",
"908 174 OFFCURVE",
"836 174 CURVE"
);
}
);
width = 1108;
}
);
leftKerningGroup = percent;
rightKerningGroup = percent;
unicode = 0025;
},
{
glyphname = perthousand;
lastChange = "2020-01-28 07:39:08 +0000";
layers = (
{
layerId = "10BC12B3-5274-42E3-B5BC-F74F362F0DF4";
paths = (
{
closed = 1;
nodes = (
"584 0 LINE",
"1392 1400 LINE",
"1046 1400 LINE",
"238 0 LINE"
);
},
{
closed = 1;
nodes = (
"590 760 OFFCURVE",
"746 902 OFFCURVE",
"746 1092 CURVE",
"746 1276 OFFCURVE",
"596 1424 OFFCURVE",
"414 1424 CURVE",
"236 1424 OFFCURVE",
"80 1284 OFFCURVE",
"80 1092 CURVE",
"80 906 OFFCURVE",
"232 760 OFFCURVE",
"414 760 CURVE"
);
},
{
closed = 1;
nodes = (
"340 960 OFFCURVE",
"280 1018 OFFCURVE",
"280 1092 CURVE",
"280 1166 OFFCURVE",
"340 1224 OFFCURVE",
"414 1224 CURVE",
"486 1224 OFFCURVE",
"546 1166 OFFCURVE",
"546 1092 CURVE",
"546 1018 OFFCURVE",
"486 960 OFFCURVE",
"414 960 CURVE"
);
},
{
closed = 1;
nodes = (
"1400 -26 OFFCURVE",
"1550 124 OFFCURVE",
"1550 306 CURVE",
"1550 482 OFFCURVE",
"1408 640 OFFCURVE",
"1216 640 CURVE",
"1040 640 OFFCURVE",
"884 496 OFFCURVE",
"884 306 CURVE",
"884 132 OFFCURVE",
"1030 -26 OFFCURVE",
"1216 -26 CURVE"
);
},
{
closed = 1;
nodes = (
"1144 174 OFFCURVE",
"1084 234 OFFCURVE",
"1084 306 CURVE",
"1084 380 OFFCURVE",
"1144 440 OFFCURVE",
"1216 440 CURVE",
"1290 440 OFFCURVE",
"1350 380 OFFCURVE",
"1350 306 CURVE",
"1350 234 OFFCURVE",
"1290 174 OFFCURVE",
"1216 174 CURVE"
);
},
{
closed = 1;
nodes = (
"2120 -26 OFFCURVE",
"2270 124 OFFCURVE",
"2270 306 CURVE",
"2270 482 OFFCURVE",
"2128 640 OFFCURVE",
"1936 640 CURVE",
"1760 640 OFFCURVE",
"1604 496 OFFCURVE",
"1604 306 CURVE",
"1604 132 OFFCURVE",
"1750 -26 OFFCURVE",
"1936 -26 CURVE"
);
},
{
closed = 1;
nodes = (
"1864 174 OFFCURVE",
"1804 234 OFFCURVE",
"1804 306 CURVE",
"1804 380 OFFCURVE",
"1864 440 OFFCURVE",
"1936 440 CURVE",
"2010 440 OFFCURVE",
"2070 380 OFFCURVE",
"2070 306 CURVE",
"2070 234 OFFCURVE",
"2010 174 OFFCURVE",
"1936 174 CURVE"
);
}
);
width = 2350;
},
{
layerId = "9AF1F7D9-E035-453E-B2A8-46DE370997D0";
paths = (
{
closed = 1;
nodes = (
"184 0 LINE",
"992 1400 LINE",
"922 1400 LINE",
"114 0 LINE"
);
},
{
closed = 1;
nodes = (
"378 900 OFFCURVE",
"464 986 OFFCURVE",
"464 1092 CURVE",
"464 1198 OFFCURVE",
"378 1286 OFFCURVE",
"272 1286 CURVE",
"166 1286 OFFCURVE",
"80 1198 OFFCURVE",
"80 1092 CURVE",
"80 986 OFFCURVE",
"166 900 OFFCURVE",
"272 900 CURVE"
);
},
{
closed = 1;
nodes = (
"198 960 OFFCURVE",
"140 1020 OFFCURVE",
"140 1092 CURVE",
"140 1166 OFFCURVE",
"198 1226 OFFCURVE",
"272 1226 CURVE",
"346 1226 OFFCURVE",
"404 1166 OFFCURVE",
"404 1092 CURVE",
"404 1020 OFFCURVE",
"346 960 OFFCURVE",
"272 960 CURVE"
);
},
{
closed = 1;
nodes = (
"882 114 OFFCURVE",
"968 202 OFFCURVE",
"968 308 CURVE",
"968 414 OFFCURVE",
"882 500 OFFCURVE",
"776 500 CURVE",
"670 500 OFFCURVE",
"582 414 OFFCURVE",
"582 308 CURVE",
"582 202 OFFCURVE",
"670 114 OFFCURVE",
"776 114 CURVE"
);
},
{
closed = 1;
nodes = (
"702 174 OFFCURVE",
"642 234 OFFCURVE",
"642 308 CURVE",
"642 380 OFFCURVE",
"702 440 OFFCURVE",
"776 440 CURVE",
"848 440 OFFCURVE",
"908 380 OFFCURVE",
"908 308 CURVE",
"908 234 OFFCURVE",
"848 174 OFFCURVE",
"776 174 CURVE"
);
},
{
closed = 1;
nodes = (
"1352 114 OFFCURVE",
"1438 202 OFFCURVE",
"1438 308 CURVE",
"1438 414 OFFCURVE",
"1352 500 OFFCURVE",
"1246 500 CURVE",
"1140 500 OFFCURVE",
"1052 414 OFFCURVE",
"1052 308 CURVE",
"1052 202 OFFCURVE",
"1140 114 OFFCURVE",
"1246 114 CURVE"
);
},
{
closed = 1;
nodes = (
"1172 174 OFFCURVE",
"1112 234 OFFCURVE",
"1112 308 CURVE",
"1112 380 OFFCURVE",
"1172 440 OFFCURVE",
"1246 440 CURVE",
"1318 440 OFFCURVE",
"1378 380 OFFCURVE",
"1378 308 CURVE",
"1378 234 OFFCURVE",
"1318 174 OFFCURVE",
"1246 174 CURVE"
);
}
);
width = 1518;
}
);
leftKerningGroup = percent;
rightKerningGroup = percent;
unicode = 2030;
},
{
glyphname = upArrow;
lastChange = "2020-01-28 07:37:53 +0000";
layers = (
{
layerId = "10BC12B3-5274-42E3-B5BC-F74F362F0DF4";
paths = (
{
closed = 1;
nodes = (
"782 116 LINE",
"782 808 LINE",
"972 620 LINE",
"1184 832 LINE",
"632 1384 LINE",
"80 832 LINE",
"292 620 LINE",
"482 808 LINE",
"482 116 LINE"
);
}
);
width = 1264;
},
{
layerId = "9AF1F7D9-E035-453E-B2A8-46DE370997D0";
paths = (
{
closed = 1;
nodes = (
"578 158 LINE",
"578 1228 LINE",
"972 832 LINE",
"1014 876 LINE",
"548 1342 LINE",
"80 876 LINE",
"124 832 LINE",
"518 1228 LINE",
"518 158 LINE"
);
}
);
width = 1094;
}
);
leftKerningGroup = upArrow;
rightKerningGroup = upArrow;
unicode = 2191;
},
{
glyphname = northEastArrow;
lastChange = "2020-01-28 07:37:55 +0000";
layers = (
{
layerId = "10BC12B3-5274-42E3-B5BC-F74F362F0DF4";
paths = (
{
closed = 1;
nodes = (
"782 738 LINE",
"782 470 LINE",
"1082 470 LINE",
"1082 1250 LINE",
"300 1250 LINE",
"300 950 LINE",
"570 950 LINE",
"80 462 LINE",
"292 250 LINE"
);
}
);
width = 1162;
},
{
layerId = "9AF1F7D9-E035-453E-B2A8-46DE370997D0";
paths = (
{
closed = 1;
nodes = (
"876 1076 LINE",
"876 518 LINE",
"936 518 LINE",
"936 1178 LINE",
"276 1178 LINE",
"276 1118 LINE",
"834 1118 LINE",
"80 364 LINE",
"122 322 LINE"
);
}
);
width = 1016;
}
);
leftKerningGroup = northEastArrow;
rightKerningGroup = northEastArrow;
unicode = 2197;
},
{
glyphname = rightArrow;
lastChange = "2020-01-28 07:37:56 +0000";
layers = (
{
layerId = "10BC12B3-5274-42E3-B5BC-F74F362F0DF4";
paths = (
{
closed = 1;
nodes = (
"1348 750 LINE",
"796 1302 LINE",
"584 1090 LINE",
"772 900 LINE",
"80 900 LINE",
"80 600 LINE",
"772 600 LINE",
"584 410 LINE",
"796 198 LINE"
);
}
);
width = 1428;
},
{
layerId = "9AF1F7D9-E035-453E-B2A8-46DE370997D0";
paths = (
{
closed = 1;
nodes = (
"1262 750 LINE",
"794 1216 LINE",
"752 1174 LINE",
"1146 780 LINE",
"80 780 LINE",
"80 720 LINE",
"1146 720 LINE",
"752 326 LINE",
"794 284 LINE"
);
}
);
width = 1342;
}
);
leftKerningGroup = rightArrow;
rightKerningGroup = rightArrow;
unicode = 2192;
},
{
glyphname = southEastArrow;
lastChange = "2020-01-28 07:37:59 +0000";
layers = (
{
layerId = "10BC12B3-5274-42E3-B5BC-F74F362F0DF4";
paths = (
{
closed = 1;
nodes = (
"1082 250 LINE",
"1082 1030 LINE",
"782 1030 LINE",
"782 762 LINE",
"292 1250 LINE",
"80 1038 LINE",
"570 550 LINE",
"302 550 LINE",
"302 250 LINE"
);
}
);
width = 1162;
},
{
layerId = "9AF1F7D9-E035-453E-B2A8-46DE370997D0";
paths = (
{
closed = 1;
nodes = (
"936 322 LINE",
"936 982 LINE",
"876 982 LINE",
"876 424 LINE",
"122 1178 LINE",
"80 1136 LINE",
"834 382 LINE",
"276 382 LINE",
"276 322 LINE"
);
}
);
width = 1016;
}
);
leftKerningGroup = southEastArrow;
rightKerningGroup = southEastArrow;
unicode = 2198;
},
{
glyphname = downArrow;
lastChange = "2020-01-28 07:38:01 +0000";
layers = (
{
layerId = "10BC12B3-5274-42E3-B5BC-F74F362F0DF4";
paths = (
{
closed = 1;
nodes = (
"1182 668 LINE",
"970 880 LINE",
"780 692 LINE",
"780 1384 LINE",
"480 1384 LINE",
"480 692 LINE",
"292 880 LINE",
"80 668 LINE",
"630 116 LINE"
);
}
);
width = 1262;
},
{
layerId = "9AF1F7D9-E035-453E-B2A8-46DE370997D0";
paths = (
{
closed = 1;
nodes = (
"1014 626 LINE",
"972 668 LINE",
"576 274 LINE",
"576 1340 LINE",
"516 1340 LINE",
"516 274 LINE",
"122 668 LINE",
"80 626 LINE",
"546 160 LINE"
);
}
);
width = 1094;
}
);
leftKerningGroup = downArrow;
rightKerningGroup = downArrow;
unicode = 2193;
},
{
glyphname = southWestArrow;
lastChange = "2020-01-28 07:38:03 +0000";
layers = (
{
layerId = "10BC12B3-5274-42E3-B5BC-F74F362F0DF4";
paths = (
{
closed = 1;
nodes = (
"860 250 LINE",
"860 550 LINE",
"592 550 LINE",
"1082 1038 LINE",
"870 1250 LINE",
"380 762 LINE",
"380 1030 LINE",
"80 1030 LINE",
"80 250 LINE"
);
}
);
width = 1162;
},
{
layerId = "9AF1F7D9-E035-453E-B2A8-46DE370997D0";
paths = (
{
closed = 1;
nodes = (
"740 322 LINE",
"740 382 LINE",
"182 382 LINE",
"936 1136 LINE",
"894 1178 LINE",
"140 424 LINE",
"140 982 LINE",
"80 982 LINE",
"80 322 LINE"
);
}
);
width = 1016;
}
);
leftKerningGroup = southWestArrow;
rightKerningGroup = southWestArrow;
unicode = 2199;
},
{
glyphname = leftArrow;
lastChange = "2020-01-28 07:38:05 +0000";
layers = (
{
layerId = "10BC12B3-5274-42E3-B5BC-F74F362F0DF4";
paths = (
{
closed = 1;
nodes = (
"844 410 LINE",
"654 600 LINE",
"1346 600 LINE",
"1346 900 LINE",
"654 900 LINE",
"844 1090 LINE",
"632 1302 LINE",
"80 750 LINE",
"632 198 LINE"
);
}
);
width = 1426;
},
{
layerId = "9AF1F7D9-E035-453E-B2A8-46DE370997D0";
paths = (
{
closed = 1;
nodes = (
"588 326 LINE",
"194 720 LINE",
"1262 720 LINE",
"1262 780 LINE",
"194 780 LINE",
"588 1174 LINE",
"546 1216 LINE",
"80 750 LINE",
"546 284 LINE"
);
}
);
width = 1342;
}
);
leftKerningGroup = leftArrow;
rightKerningGroup = leftArrow;
unicode = 2190;
},
{
glyphname = northWestArrow;
lastChange = "2020-01-28 07:38:07 +0000";
layers = (
{
layerId = "10BC12B3-5274-42E3-B5BC-F74F362F0DF4";
paths = (
{
closed = 1;
nodes = (
"1082 461 LINE",
"592 951 LINE",
"860 951 LINE",
"860 1251 LINE",
"80 1251 LINE",
"80 471 LINE",
"380 471 LINE",
"380 739 LINE",
"870 249 LINE"
);
}
);
width = 1162;
},
{
layerId = "9AF1F7D9-E035-453E-B2A8-46DE370997D0";
paths = (
{
closed = 1;
nodes = (
"938 364 LINE",
"184 1118 LINE",
"740 1118 LINE",
"740 1178 LINE",
"80 1178 LINE",
"80 518 LINE",
"140 518 LINE",
"140 1076 LINE",
"896 322 LINE"
);
}
);
width = 1018;
}
);
leftKerningGroup = northWestArrow;
rightKerningGroup = northWestArrow;
unicode = 2196;
},
{
glyphname = leftRightArrow;
lastChange = "2020-01-28 07:37:13 +0000";
layers = (
{
layerId = "10BC12B3-5274-42E3-B5BC-F74F362F0DF4";
paths = (
{
closed = 1;
nodes = (
"844 410 LINE",
"654 600 LINE",
"1272 600 LINE",
"1084 410 LINE",
"1296 198 LINE",
"1848 750 LINE",
"1296 1302 LINE",
"1084 1090 LINE",
"1272 900 LINE",
"654 900 LINE",
"844 1090 LINE",
"632 1302 LINE",
"80 750 LINE",
"632 198 LINE"
);
}
);
width = 1928;
},
{
layerId = "9AF1F7D9-E035-453E-B2A8-46DE370997D0";
paths = (
{
closed = 1;
nodes = (
"588 326 LINE",
"194 720 LINE",
"1366 720 LINE",
"972 326 LINE",
"1014 284 LINE",
"1482 750 LINE",
"1014 1216 LINE",
"972 1174 LINE",
"1366 780 LINE",
"194 780 LINE",
"588 1174 LINE",
"546 1216 LINE",
"80 750 LINE",
"546 284 LINE"
);
}
);
width = 1562;
}
);
leftKerningGroup = leftRightArrow;
rightKerningGroup = leftRightArrow;
unicode = 2194;
},
{
glyphname = upDownArrow;
lastChange = "2020-01-28 07:38:11 +0000";
layers = (
{
layerId = "10BC12B3-5274-42E3-B5BC-F74F362F0DF4";
paths = (
{
closed = 1;
nodes = (
"1184 418 LINE",
"972 630 LINE",
"782 442 LINE",
"782 1058 LINE",
"972 870 LINE",
"1184 1082 LINE",
"632 1634 LINE",
"80 1082 LINE",
"292 870 LINE",
"482 1058 LINE",
"482 442 LINE",
"292 630 LINE",
"80 418 LINE",
"632 -134 LINE"
);
}
);
width = 1264;
},
{
layerId = "9AF1F7D9-E035-453E-B2A8-46DE370997D0";
paths = (
{
closed = 1;
nodes = (
"1014 516 LINE",
"970 560 LINE",
"576 162 LINE",
"576 1338 LINE",
"970 942 LINE",
"1014 986 LINE",
"546 1452 LINE",
"80 986 LINE",
"122 942 LINE",
"516 1338 LINE",
"516 162 LINE",
"122 560 LINE",
"80 516 LINE",
"546 48 LINE"
);
}
);
width = 1094;
}
);
leftKerningGroup = upDownArrow;
rightKerningGroup = upDownArrow;
unicode = 2195;
},
{
glyphname = lozenge;
lastChange = "2020-01-27 03:55:58 +0000";
layers = (
{
layerId = "10BC12B3-5274-42E3-B5BC-F74F362F0DF4";
paths = (
{
closed = 1;
nodes = (
"872 0 LINE",
"1140 702 LINE",
"874 1400 LINE",
"326 1400 LINE",
"60 702 LINE",
"328 0 LINE"
);
},
{
closed = 1;
nodes = (
"376 702 LINE",
"600 1270 LINE",
"826 702 LINE",
"600 134 LINE"
);
}
);
width = 1200;
},
{
layerId = "9AF1F7D9-E035-453E-B2A8-46DE370997D0";
paths = (
{
closed = 1;
nodes = (
"368 0 LINE",
"636 702 LINE",
"370 1400 LINE",
"326 1400 LINE",
"60 702 LINE",
"328 0 LINE"
);
},
{
closed = 1;
nodes = (
"124 702 LINE",
"348 1270 LINE",
"574 702 LINE",
"348 134 LINE"
);
}
);
width = 696;
}
);
leftKerningGroup = lozenge;
rightKerningGroup = lozenge;
unicode = 25CA;
},
